<?xml version="1.0" encoding="UTF-8" standalone="no"?>
<svg width="64.2056mm" height="43.0389mm"
 viewBox="0 0 182 122"
 xmlns="http://www.w3.org/2000/svg" xmlns:xlink="http://www.w3.org/1999/xlink"  version="1.2" baseProfile="tiny">
<title>Qt SVG Document</title>
<desc>Generated with Qt</desc>
<defs>
</defs>
<g fill="none" stroke="black" stroke-width="1" fill-rule="evenodd" stroke-linecap="square" stroke-linejoin="bevel" >

<g fill="none" stroke="#000000" stroke-opacity="1" stroke-width="1" stroke-linecap="square" stroke-linejoin="bevel" transform="matrix(1,0,0,1,0,0)"
font-family="Ubuntu" font-size="10" font-weight="400" font-style="normal" 
>
</g>

<g fill="none" stroke="#000000" stroke-opacity="1" stroke-width="1" stroke-linecap="square" stroke-linejoin="bevel" transform="matrix(1.01111,0,0,1.01111,0,0)"
font-family="Ubuntu" font-size="10" font-weight="400" font-style="normal" 
>
</g>

<g fill="none" stroke="#a0a0a4" stroke-opacity="1" stroke-dasharray="0.5,1" stroke-dashoffset="0" stroke-width="0.5" stroke-linecap="round" stroke-linejoin="round" transform="matrix(1.01111,0,0,1.01111,0,0)"
font-family="Ubuntu" font-size="10" font-weight="400" font-style="normal" 
>
<polyline fill="none" vector-effect="none" points="43.5,80.5 164.5,80.5 " />
</g>

<g fill="none" stroke="#000000" stroke-opacity="1" stroke-width="0.5" stroke-linecap="round" stroke-linejoin="round" transform="matrix(1.01111,0,0,1.01111,0,0)"
font-family="Ubuntu" font-size="10" font-weight="400" font-style="normal" 
>
<polyline fill="none" vector-effect="none" points="43.5,80.5 46.5,80.5 " />
</g>

<g fill="none" stroke="#000000" stroke-opacity="1" stroke-width="1" stroke-linecap="square" stroke-linejoin="bevel" transform="matrix(1.01111,0,0,1.01111,0,0)"
font-family="Ubuntu" font-size="10" font-weight="400" font-style="normal" 
>
</g>

<g fill="none" stroke="#000000" stroke-opacity="1" stroke-width="1" stroke-linecap="square" stroke-linejoin="bevel" transform="matrix(1.01111,0,0,1.01111,26.7944,85.9444)"
font-family="Ubuntu" font-size="10" font-weight="400" font-style="normal" 
>
</g>

<g fill="none" stroke="#000000" stroke-opacity="1" stroke-width="1" stroke-linecap="square" stroke-linejoin="bevel" transform="matrix(1.01111,0,0,1.01111,26.7944,85.9444)"
font-family="Ubuntu" font-size="10" font-weight="400" font-style="normal" 
>
</g>

<g fill="none" stroke="#000000" stroke-opacity="1" stroke-width="1" stroke-linecap="square" stroke-linejoin="bevel" transform="matrix(1.01111,0,0,1.01111,26.7944,85.9444)"
font-family="Ubuntu" font-size="10" font-weight="400" font-style="normal" 
>
</g>

<g fill="none" stroke="#000000" stroke-opacity="1" stroke-width="1" stroke-linecap="square" stroke-linejoin="bevel" transform="matrix(1.01111,0,0,1.01111,26.7944,85.9444)"
font-family="Ubuntu" font-size="10" font-weight="400" font-style="normal" 
>
</g>

<g fill="none" stroke="#000000" stroke-opacity="1" stroke-width="1" stroke-linecap="square" stroke-linejoin="bevel" transform="matrix(1.01111,0,0,1.01111,26.7944,85.9444)"
font-family="Ubuntu" font-size="10" font-weight="400" font-style="normal" 
>
</g>

<g fill="none" stroke="#000000" stroke-opacity="1" stroke-width="1" stroke-linecap="square" stroke-linejoin="bevel" transform="matrix(1.01111,0,0,1.01111,26.7944,85.9444)"
font-family="Times" font-size="8" font-weight="400" font-style="normal" 
>
<text fill="#000000" fill-opacity="1" stroke="none" xml:space="preserve" x="0" y="0" font-family="Times" font-size="8" font-weight="400" font-style="normal" 
 > 20</text>
</g>

<g fill="none" stroke="#000000" stroke-opacity="1" stroke-width="1" stroke-linecap="square" stroke-linejoin="bevel" transform="matrix(1.01111,0,0,1.01111,26.7944,85.9444)"
font-family="Ubuntu" font-size="10" font-weight="400" font-style="normal" 
>
</g>

<g fill="none" stroke="#000000" stroke-opacity="1" stroke-width="1" stroke-linecap="square" stroke-linejoin="bevel" transform="matrix(1.01111,0,0,1.01111,0,0)"
font-family="Ubuntu" font-size="10" font-weight="400" font-style="normal" 
>
</g>

<g fill="none" stroke="#a0a0a4" stroke-opacity="1" stroke-dasharray="0.5,1" stroke-dashoffset="0" stroke-width="0.5" stroke-linecap="round" stroke-linejoin="round" transform="matrix(1.01111,0,0,1.01111,0,0)"
font-family="Ubuntu" font-size="10" font-weight="400" font-style="normal" 
>
<polyline fill="none" vector-effect="none" points="43.5,51.5 164.5,51.5 " />
</g>

<g fill="none" stroke="#000000" stroke-opacity="1" stroke-width="0.5" stroke-linecap="round" stroke-linejoin="round" transform="matrix(1.01111,0,0,1.01111,0,0)"
font-family="Ubuntu" font-size="10" font-weight="400" font-style="normal" 
>
<polyline fill="none" vector-effect="none" points="43.5,51.5 46.5,51.5 " />
</g>

<g fill="none" stroke="#000000" stroke-opacity="1" stroke-width="1" stroke-linecap="square" stroke-linejoin="bevel" transform="matrix(1.01111,0,0,1.01111,0,0)"
font-family="Ubuntu" font-size="10" font-weight="400" font-style="normal" 
>
</g>

<g fill="none" stroke="#000000" stroke-opacity="1" stroke-width="1" stroke-linecap="square" stroke-linejoin="bevel" transform="matrix(1.01111,0,0,1.01111,27.3,55.6111)"
font-family="Ubuntu" font-size="10" font-weight="400" font-style="normal" 
>
</g>

<g fill="none" stroke="#000000" stroke-opacity="1" stroke-width="1" stroke-linecap="square" stroke-linejoin="bevel" transform="matrix(1.01111,0,0,1.01111,27.3,55.6111)"
font-family="Ubuntu" font-size="10" font-weight="400" font-style="normal" 
>
</g>

<g fill="none" stroke="#000000" stroke-opacity="1" stroke-width="1" stroke-linecap="square" stroke-linejoin="bevel" transform="matrix(1.01111,0,0,1.01111,27.3,55.6111)"
font-family="Ubuntu" font-size="10" font-weight="400" font-style="normal" 
>
</g>

<g fill="none" stroke="#000000" stroke-opacity="1" stroke-width="1" stroke-linecap="square" stroke-linejoin="bevel" transform="matrix(1.01111,0,0,1.01111,27.3,55.6111)"
font-family="Ubuntu" font-size="10" font-weight="400" font-style="normal" 
>
</g>

<g fill="none" stroke="#000000" stroke-opacity="1" stroke-width="1" stroke-linecap="square" stroke-linejoin="bevel" transform="matrix(1.01111,0,0,1.01111,27.3,55.6111)"
font-family="Ubuntu" font-size="10" font-weight="400" font-style="normal" 
>
</g>

<g fill="none" stroke="#000000" stroke-opacity="1" stroke-width="1" stroke-linecap="square" stroke-linejoin="bevel" transform="matrix(1.01111,0,0,1.01111,27.3,55.6111)"
font-family="Times" font-size="8" font-weight="400" font-style="normal" 
>
<text fill="#000000" fill-opacity="1" stroke="none" xml:space="preserve" x="0" y="0" font-family="Times" font-size="8" font-weight="400" font-style="normal" 
 > 25</text>
</g>

<g fill="none" stroke="#000000" stroke-opacity="1" stroke-width="1" stroke-linecap="square" stroke-linejoin="bevel" transform="matrix(1.01111,0,0,1.01111,27.3,55.6111)"
font-family="Ubuntu" font-size="10" font-weight="400" font-style="normal" 
>
</g>

<g fill="none" stroke="#000000" stroke-opacity="1" stroke-width="1" stroke-linecap="square" stroke-linejoin="bevel" transform="matrix(1.01111,0,0,1.01111,0,0)"
font-family="Ubuntu" font-size="10" font-weight="400" font-style="normal" 
>
</g>

<g fill="none" stroke="#a0a0a4" stroke-opacity="1" stroke-dasharray="0.5,1" stroke-dashoffset="0" stroke-width="0.5" stroke-linecap="round" stroke-linejoin="round" transform="matrix(1.01111,0,0,1.01111,0,0)"
font-family="Ubuntu" font-size="10" font-weight="400" font-style="normal" 
>
<polyline fill="none" vector-effect="none" points="43.5,22.5 164.5,22.5 " />
</g>

<g fill="none" stroke="#000000" stroke-opacity="1" stroke-width="0.5" stroke-linecap="round" stroke-linejoin="round" transform="matrix(1.01111,0,0,1.01111,0,0)"
font-family="Ubuntu" font-size="10" font-weight="400" font-style="normal" 
>
<polyline fill="none" vector-effect="none" points="43.5,22.5 46.5,22.5 " />
</g>

<g fill="none" stroke="#000000" stroke-opacity="1" stroke-width="1" stroke-linecap="square" stroke-linejoin="bevel" transform="matrix(1.01111,0,0,1.01111,0,0)"
font-family="Ubuntu" font-size="10" font-weight="400" font-style="normal" 
>
</g>

<g fill="none" stroke="#000000" stroke-opacity="1" stroke-width="1" stroke-linecap="square" stroke-linejoin="bevel" transform="matrix(1.01111,0,0,1.01111,26.7944,26.2889)"
font-family="Ubuntu" font-size="10" font-weight="400" font-style="normal" 
>
</g>

<g fill="none" stroke="#000000" stroke-opacity="1" stroke-width="1" stroke-linecap="square" stroke-linejoin="bevel" transform="matrix(1.01111,0,0,1.01111,26.7944,26.2889)"
font-family="Ubuntu" font-size="10" font-weight="400" font-style="normal" 
>
</g>

<g fill="none" stroke="#000000" stroke-opacity="1" stroke-width="1" stroke-linecap="square" stroke-linejoin="bevel" transform="matrix(1.01111,0,0,1.01111,26.7944,26.2889)"
font-family="Ubuntu" font-size="10" font-weight="400" font-style="normal" 
>
</g>

<g fill="none" stroke="#000000" stroke-opacity="1" stroke-width="1" stroke-linecap="square" stroke-linejoin="bevel" transform="matrix(1.01111,0,0,1.01111,26.7944,26.2889)"
font-family="Ubuntu" font-size="10" font-weight="400" font-style="normal" 
>
</g>

<g fill="none" stroke="#000000" stroke-opacity="1" stroke-width="1" stroke-linecap="square" stroke-linejoin="bevel" transform="matrix(1.01111,0,0,1.01111,26.7944,26.2889)"
font-family="Ubuntu" font-size="10" font-weight="400" font-style="normal" 
>
</g>

<g fill="none" stroke="#000000" stroke-opacity="1" stroke-width="1" stroke-linecap="square" stroke-linejoin="bevel" transform="matrix(1.01111,0,0,1.01111,26.7944,26.2889)"
font-family="Times" font-size="8" font-weight="400" font-style="normal" 
>
<text fill="#000000" fill-opacity="1" stroke="none" xml:space="preserve" x="0" y="0" font-family="Times" font-size="8" font-weight="400" font-style="normal" 
 > 30</text>
</g>

<g fill="none" stroke="#000000" stroke-opacity="1" stroke-width="1" stroke-linecap="square" stroke-linejoin="bevel" transform="matrix(1.01111,0,0,1.01111,26.7944,26.2889)"
font-family="Ubuntu" font-size="10" font-weight="400" font-style="normal" 
>
</g>

<g fill="none" stroke="#000000" stroke-opacity="1" stroke-width="1" stroke-linecap="square" stroke-linejoin="bevel" transform="matrix(1.01111,0,0,1.01111,0,0)"
font-family="Ubuntu" font-size="10" font-weight="400" font-style="normal" 
>
</g>

<g fill="none" stroke="#a0a0a4" stroke-opacity="1" stroke-dasharray="0.5,1" stroke-dashoffset="0" stroke-width="0.5" stroke-linecap="round" stroke-linejoin="round" transform="matrix(1.01111,0,0,1.01111,0,0)"
font-family="Ubuntu" font-size="10" font-weight="400" font-style="normal" 
>
<polyline fill="none" vector-effect="none" points="43.5,86.5 43.5,16.5 " />
</g>

<g fill="none" stroke="#000000" stroke-opacity="1" stroke-width="0.5" stroke-linecap="round" stroke-linejoin="round" transform="matrix(1.01111,0,0,1.01111,0,0)"
font-family="Ubuntu" font-size="10" font-weight="400" font-style="normal" 
>
<polyline fill="none" vector-effect="none" points="43.5,86.5 43.5,83.5 " />
</g>

<g fill="none" stroke="#000000" stroke-opacity="1" stroke-width="1" stroke-linecap="square" stroke-linejoin="bevel" transform="matrix(1.01111,0,0,1.01111,0,0)"
font-family="Ubuntu" font-size="10" font-weight="400" font-style="normal" 
>
</g>

<g fill="none" stroke="#000000" stroke-opacity="1" stroke-width="1" stroke-linecap="square" stroke-linejoin="bevel" transform="matrix(1.01111,0,0,1.01111,36.9056,99.0889)"
font-family="Ubuntu" font-size="10" font-weight="400" font-style="normal" 
>
</g>

<g fill="none" stroke="#000000" stroke-opacity="1" stroke-width="1" stroke-linecap="square" stroke-linejoin="bevel" transform="matrix(1.01111,0,0,1.01111,36.9056,99.0889)"
font-family="Ubuntu" font-size="10" font-weight="400" font-style="normal" 
>
</g>

<g fill="none" stroke="#000000" stroke-opacity="1" stroke-width="1" stroke-linecap="square" stroke-linejoin="bevel" transform="matrix(1.01111,0,0,1.01111,36.9056,99.0889)"
font-family="Ubuntu" font-size="10" font-weight="400" font-style="normal" 
>
</g>

<g fill="none" stroke="#000000" stroke-opacity="1" stroke-width="1" stroke-linecap="square" stroke-linejoin="bevel" transform="matrix(1.01111,0,0,1.01111,36.9056,99.0889)"
font-family="Ubuntu" font-size="10" font-weight="400" font-style="normal" 
>
</g>

<g fill="none" stroke="#000000" stroke-opacity="1" stroke-width="1" stroke-linecap="square" stroke-linejoin="bevel" transform="matrix(1.01111,0,0,1.01111,36.9056,99.0889)"
font-family="Ubuntu" font-size="10" font-weight="400" font-style="normal" 
>
</g>

<g fill="none" stroke="#000000" stroke-opacity="1" stroke-width="1" stroke-linecap="square" stroke-linejoin="bevel" transform="matrix(1.01111,0,0,1.01111,36.9056,99.0889)"
font-family="Times" font-size="8" font-weight="400" font-style="normal" 
>
<text fill="#000000" fill-opacity="1" stroke="none" xml:space="preserve" x="0" y="0" font-family="Times" font-size="8" font-weight="400" font-style="normal" 
 > 0</text>
</g>

<g fill="none" stroke="#000000" stroke-opacity="1" stroke-width="1" stroke-linecap="square" stroke-linejoin="bevel" transform="matrix(1.01111,0,0,1.01111,36.9056,99.0889)"
font-family="Ubuntu" font-size="10" font-weight="400" font-style="normal" 
>
</g>

<g fill="none" stroke="#000000" stroke-opacity="1" stroke-width="1" stroke-linecap="square" stroke-linejoin="bevel" transform="matrix(1.01111,0,0,1.01111,0,0)"
font-family="Ubuntu" font-size="10" font-weight="400" font-style="normal" 
>
</g>

<g fill="none" stroke="#a0a0a4" stroke-opacity="1" stroke-dasharray="0.5,1" stroke-dashoffset="0" stroke-width="0.5" stroke-linecap="round" stroke-linejoin="round" transform="matrix(1.01111,0,0,1.01111,0,0)"
font-family="Ubuntu" font-size="10" font-weight="400" font-style="normal" 
>
<polyline fill="none" vector-effect="none" points="81.5,86.5 81.5,16.5 " />
</g>

<g fill="none" stroke="#000000" stroke-opacity="1" stroke-width="0.5" stroke-linecap="round" stroke-linejoin="round" transform="matrix(1.01111,0,0,1.01111,0,0)"
font-family="Ubuntu" font-size="10" font-weight="400" font-style="normal" 
>
<polyline fill="none" vector-effect="none" points="81.5,86.5 81.5,83.5 " />
</g>

<g fill="none" stroke="#000000" stroke-opacity="1" stroke-width="1" stroke-linecap="square" stroke-linejoin="bevel" transform="matrix(1.01111,0,0,1.01111,0,0)"
font-family="Ubuntu" font-size="10" font-weight="400" font-style="normal" 
>
</g>

<g fill="none" stroke="#000000" stroke-opacity="1" stroke-width="1" stroke-linecap="square" stroke-linejoin="bevel" transform="matrix(1.01111,0,0,1.01111,69.2611,99.0889)"
font-family="Ubuntu" font-size="10" font-weight="400" font-style="normal" 
>
</g>

<g fill="none" stroke="#000000" stroke-opacity="1" stroke-width="1" stroke-linecap="square" stroke-linejoin="bevel" transform="matrix(1.01111,0,0,1.01111,69.2611,99.0889)"
font-family="Ubuntu" font-size="10" font-weight="400" font-style="normal" 
>
</g>

<g fill="none" stroke="#000000" stroke-opacity="1" stroke-width="1" stroke-linecap="square" stroke-linejoin="bevel" transform="matrix(1.01111,0,0,1.01111,69.2611,99.0889)"
font-family="Ubuntu" font-size="10" font-weight="400" font-style="normal" 
>
</g>

<g fill="none" stroke="#000000" stroke-opacity="1" stroke-width="1" stroke-linecap="square" stroke-linejoin="bevel" transform="matrix(1.01111,0,0,1.01111,69.2611,99.0889)"
font-family="Ubuntu" font-size="10" font-weight="400" font-style="normal" 
>
</g>

<g fill="none" stroke="#000000" stroke-opacity="1" stroke-width="1" stroke-linecap="square" stroke-linejoin="bevel" transform="matrix(1.01111,0,0,1.01111,69.2611,99.0889)"
font-family="Ubuntu" font-size="10" font-weight="400" font-style="normal" 
>
</g>

<g fill="none" stroke="#000000" stroke-opacity="1" stroke-width="1" stroke-linecap="square" stroke-linejoin="bevel" transform="matrix(1.01111,0,0,1.01111,69.2611,99.0889)"
font-family="Times" font-size="8" font-weight="400" font-style="normal" 
>
<text fill="#000000" fill-opacity="1" stroke="none" xml:space="preserve" x="0" y="0" font-family="Times" font-size="8" font-weight="400" font-style="normal" 
 > 100</text>
</g>

<g fill="none" stroke="#000000" stroke-opacity="1" stroke-width="1" stroke-linecap="square" stroke-linejoin="bevel" transform="matrix(1.01111,0,0,1.01111,69.2611,99.0889)"
font-family="Ubuntu" font-size="10" font-weight="400" font-style="normal" 
>
</g>

<g fill="none" stroke="#000000" stroke-opacity="1" stroke-width="1" stroke-linecap="square" stroke-linejoin="bevel" transform="matrix(1.01111,0,0,1.01111,0,0)"
font-family="Ubuntu" font-size="10" font-weight="400" font-style="normal" 
>
</g>

<g fill="none" stroke="#a0a0a4" stroke-opacity="1" stroke-dasharray="0.5,1" stroke-dashoffset="0" stroke-width="0.5" stroke-linecap="round" stroke-linejoin="round" transform="matrix(1.01111,0,0,1.01111,0,0)"
font-family="Ubuntu" font-size="10" font-weight="400" font-style="normal" 
>
<polyline fill="none" vector-effect="none" points="119.5,86.5 119.5,16.5 " />
</g>

<g fill="none" stroke="#000000" stroke-opacity="1" stroke-width="0.5" stroke-linecap="round" stroke-linejoin="round" transform="matrix(1.01111,0,0,1.01111,0,0)"
font-family="Ubuntu" font-size="10" font-weight="400" font-style="normal" 
>
<polyline fill="none" vector-effect="none" points="119.5,86.5 119.5,83.5 " />
</g>

<g fill="none" stroke="#000000" stroke-opacity="1" stroke-width="1" stroke-linecap="square" stroke-linejoin="bevel" transform="matrix(1.01111,0,0,1.01111,0,0)"
font-family="Ubuntu" font-size="10" font-weight="400" font-style="normal" 
>
</g>

<g fill="none" stroke="#000000" stroke-opacity="1" stroke-width="1" stroke-linecap="square" stroke-linejoin="bevel" transform="matrix(1.01111,0,0,1.01111,107.683,99.0889)"
font-family="Ubuntu" font-size="10" font-weight="400" font-style="normal" 
>
</g>

<g fill="none" stroke="#000000" stroke-opacity="1" stroke-width="1" stroke-linecap="square" stroke-linejoin="bevel" transform="matrix(1.01111,0,0,1.01111,107.683,99.0889)"
font-family="Ubuntu" font-size="10" font-weight="400" font-style="normal" 
>
</g>

<g fill="none" stroke="#000000" stroke-opacity="1" stroke-width="1" stroke-linecap="square" stroke-linejoin="bevel" transform="matrix(1.01111,0,0,1.01111,107.683,99.0889)"
font-family="Ubuntu" font-size="10" font-weight="400" font-style="normal" 
>
</g>

<g fill="none" stroke="#000000" stroke-opacity="1" stroke-width="1" stroke-linecap="square" stroke-linejoin="bevel" transform="matrix(1.01111,0,0,1.01111,107.683,99.0889)"
font-family="Ubuntu" font-size="10" font-weight="400" font-style="normal" 
>
</g>

<g fill="none" stroke="#000000" stroke-opacity="1" stroke-width="1" stroke-linecap="square" stroke-linejoin="bevel" transform="matrix(1.01111,0,0,1.01111,107.683,99.0889)"
font-family="Ubuntu" font-size="10" font-weight="400" font-style="normal" 
>
</g>

<g fill="none" stroke="#000000" stroke-opacity="1" stroke-width="1" stroke-linecap="square" stroke-linejoin="bevel" transform="matrix(1.01111,0,0,1.01111,107.683,99.0889)"
font-family="Times" font-size="8" font-weight="400" font-style="normal" 
>
<text fill="#000000" fill-opacity="1" stroke="none" xml:space="preserve" x="0" y="0" font-family="Times" font-size="8" font-weight="400" font-style="normal" 
 > 200</text>
</g>

<g fill="none" stroke="#000000" stroke-opacity="1" stroke-width="1" stroke-linecap="square" stroke-linejoin="bevel" transform="matrix(1.01111,0,0,1.01111,107.683,99.0889)"
font-family="Ubuntu" font-size="10" font-weight="400" font-style="normal" 
>
</g>

<g fill="none" stroke="#000000" stroke-opacity="1" stroke-width="1" stroke-linecap="square" stroke-linejoin="bevel" transform="matrix(1.01111,0,0,1.01111,0,0)"
font-family="Ubuntu" font-size="10" font-weight="400" font-style="normal" 
>
</g>

<g fill="none" stroke="#a0a0a4" stroke-opacity="1" stroke-dasharray="0.5,1" stroke-dashoffset="0" stroke-width="0.5" stroke-linecap="round" stroke-linejoin="round" transform="matrix(1.01111,0,0,1.01111,0,0)"
font-family="Ubuntu" font-size="10" font-weight="400" font-style="normal" 
>
<polyline fill="none" vector-effect="none" points="157.5,86.5 157.5,22.5 157.5,22.5 157.5,16.5 " />
</g>

<g fill="none" stroke="#000000" stroke-opacity="1" stroke-width="0.5" stroke-linecap="round" stroke-linejoin="round" transform="matrix(1.01111,0,0,1.01111,0,0)"
font-family="Ubuntu" font-size="10" font-weight="400" font-style="normal" 
>
<polyline fill="none" vector-effect="none" points="157.5,86.5 157.5,83.5 " />
</g>

<g fill="none" stroke="#000000" stroke-opacity="1" stroke-width="1" stroke-linecap="square" stroke-linejoin="bevel" transform="matrix(1.01111,0,0,1.01111,0,0)"
font-family="Ubuntu" font-size="10" font-weight="400" font-style="normal" 
>
</g>

<g fill="none" stroke="#000000" stroke-opacity="1" stroke-width="1" stroke-linecap="square" stroke-linejoin="bevel" transform="matrix(1.01111,0,0,1.01111,146.106,99.0889)"
font-family="Ubuntu" font-size="10" font-weight="400" font-style="normal" 
>
</g>

<g fill="none" stroke="#000000" stroke-opacity="1" stroke-width="1" stroke-linecap="square" stroke-linejoin="bevel" transform="matrix(1.01111,0,0,1.01111,146.106,99.0889)"
font-family="Ubuntu" font-size="10" font-weight="400" font-style="normal" 
>
</g>

<g fill="none" stroke="#000000" stroke-opacity="1" stroke-width="1" stroke-linecap="square" stroke-linejoin="bevel" transform="matrix(1.01111,0,0,1.01111,146.106,99.0889)"
font-family="Ubuntu" font-size="10" font-weight="400" font-style="normal" 
>
</g>

<g fill="none" stroke="#000000" stroke-opacity="1" stroke-width="1" stroke-linecap="square" stroke-linejoin="bevel" transform="matrix(1.01111,0,0,1.01111,146.106,99.0889)"
font-family="Ubuntu" font-size="10" font-weight="400" font-style="normal" 
>
</g>

<g fill="none" stroke="#000000" stroke-opacity="1" stroke-width="1" stroke-linecap="square" stroke-linejoin="bevel" transform="matrix(1.01111,0,0,1.01111,146.106,99.0889)"
font-family="Ubuntu" font-size="10" font-weight="400" font-style="normal" 
>
</g>

<g fill="none" stroke="#000000" stroke-opacity="1" stroke-width="1" stroke-linecap="square" stroke-linejoin="bevel" transform="matrix(1.01111,0,0,1.01111,146.106,99.0889)"
font-family="Times" font-size="8" font-weight="400" font-style="normal" 
>
<text fill="#000000" fill-opacity="1" stroke="none" xml:space="preserve" x="0" y="0" font-family="Times" font-size="8" font-weight="400" font-style="normal" 
 > 300</text>
</g>

<g fill="none" stroke="#000000" stroke-opacity="1" stroke-width="1" stroke-linecap="square" stroke-linejoin="bevel" transform="matrix(1.01111,0,0,1.01111,146.106,99.0889)"
font-family="Ubuntu" font-size="10" font-weight="400" font-style="normal" 
>
</g>

<g fill="none" stroke="#000000" stroke-opacity="1" stroke-width="1" stroke-linecap="square" stroke-linejoin="bevel" transform="matrix(1.01111,0,0,1.01111,0,0)"
font-family="Ubuntu" font-size="10" font-weight="400" font-style="normal" 
>
</g>

<g fill="none" stroke="#000000" stroke-opacity="1" stroke-width="0.5" stroke-linecap="round" stroke-linejoin="round" transform="matrix(1.01111,0,0,1.01111,0,0)"
font-family="Ubuntu" font-size="10" font-weight="400" font-style="normal" 
>
<polyline fill="none" vector-effect="none" points="43.5,16.5 43.5,86.5 164.5,86.5 164.5,16.5 43.5,16.5 " />
</g>

<g fill="none" stroke="#000000" stroke-opacity="1" stroke-width="1" stroke-linecap="square" stroke-linejoin="bevel" transform="matrix(1.01111,0,0,1.01111,0,0)"
font-family="Ubuntu" font-size="10" font-weight="400" font-style="normal" 
>
</g>

<g fill="none" stroke="#000000" stroke-opacity="1" stroke-width="1" stroke-linecap="square" stroke-linejoin="bevel" transform="matrix(0,-1.01111,1.01111,0,24.2667,78.8667)"
font-family="Ubuntu" font-size="10" font-weight="400" font-style="normal" 
>
</g>

<g fill="none" stroke="#000000" stroke-opacity="1" stroke-width="1" stroke-linecap="square" stroke-linejoin="bevel" transform="matrix(0,-1.01111,1.01111,0,24.2667,78.8667)"
font-family="Ubuntu" font-size="10" font-weight="400" font-style="normal" 
>
</g>

<g fill="none" stroke="#000000" stroke-opacity="1" stroke-width="1" stroke-linecap="square" stroke-linejoin="bevel" transform="matrix(0,-1.01111,1.01111,0,24.2667,78.8667)"
font-family="Ubuntu" font-size="10" font-weight="400" font-style="normal" 
>
</g>

<g fill="none" stroke="#000000" stroke-opacity="1" stroke-width="1" stroke-linecap="square" stroke-linejoin="bevel" transform="matrix(0,-1.01111,1.01111,0,24.2667,78.8667)"
font-family="Ubuntu" font-size="10" font-weight="400" font-style="normal" 
>
</g>

<g fill="none" stroke="#000000" stroke-opacity="1" stroke-width="1" stroke-linecap="square" stroke-linejoin="bevel" transform="matrix(0,-1.01111,1.01111,0,24.2667,78.8667)"
font-family="Ubuntu" font-size="10" font-weight="400" font-style="normal" 
>
</g>

<g fill="none" stroke="#000000" stroke-opacity="1" stroke-width="1" stroke-linecap="square" stroke-linejoin="bevel" transform="matrix(0,-1.01111,1.01111,0,24.2667,78.8667)"
font-family="Times" font-size="8" font-weight="400" font-style="normal" 
>
<text fill="#000000" fill-opacity="1" stroke="none" xml:space="preserve" x="0" y="0" font-family="Times" font-size="8" font-weight="400" font-style="normal" 
 >Power (W)</text>
</g>

<g fill="none" stroke="#000000" stroke-opacity="1" stroke-width="1" stroke-linecap="square" stroke-linejoin="bevel" transform="matrix(0,-1.01111,1.01111,0,24.2667,78.8667)"
font-family="Ubuntu" font-size="10" font-weight="400" font-style="normal" 
>
</g>

<g fill="none" stroke="#000000" stroke-opacity="1" stroke-width="1" stroke-linecap="square" stroke-linejoin="bevel" transform="matrix(1.01111,0,0,1.01111,77.35,114.256)"
font-family="Ubuntu" font-size="10" font-weight="400" font-style="normal" 
>
</g>

<g fill="none" stroke="#000000" stroke-opacity="1" stroke-width="1" stroke-linecap="square" stroke-linejoin="bevel" transform="matrix(1.01111,0,0,1.01111,77.35,114.256)"
font-family="Ubuntu" font-size="10" font-weight="400" font-style="normal" 
>
</g>

<g fill="none" stroke="#000000" stroke-opacity="1" stroke-width="1" stroke-linecap="square" stroke-linejoin="bevel" transform="matrix(1.01111,0,0,1.01111,77.35,114.256)"
font-family="Ubuntu" font-size="10" font-weight="400" font-style="normal" 
>
</g>

<g fill="none" stroke="#000000" stroke-opacity="1" stroke-width="1" stroke-linecap="square" stroke-linejoin="bevel" transform="matrix(1.01111,0,0,1.01111,77.35,114.256)"
font-family="Ubuntu" font-size="10" font-weight="400" font-style="normal" 
>
</g>

<g fill="none" stroke="#000000" stroke-opacity="1" stroke-width="1" stroke-linecap="square" stroke-linejoin="bevel" transform="matrix(1.01111,0,0,1.01111,77.35,114.256)"
font-family="Ubuntu" font-size="10" font-weight="400" font-style="normal" 
>
</g>

<g fill="none" stroke="#000000" stroke-opacity="1" stroke-width="1" stroke-linecap="square" stroke-linejoin="bevel" transform="matrix(1.01111,0,0,1.01111,77.35,114.256)"
font-family="Times" font-size="8" font-weight="400" font-style="normal" 
>
<text fill="#000000" fill-opacity="1" stroke="none" xml:space="preserve" x="0" y="0" font-family="Times" font-size="8" font-weight="400" font-style="normal" 
 >Time (sec)</text>
</g>

<g fill="none" stroke="#000000" stroke-opacity="1" stroke-width="1" stroke-linecap="square" stroke-linejoin="bevel" transform="matrix(1.01111,0,0,1.01111,77.35,114.256)"
font-family="Ubuntu" font-size="10" font-weight="400" font-style="normal" 
>
</g>

<g fill="none" stroke="#000000" stroke-opacity="1" stroke-width="1" stroke-linecap="square" stroke-linejoin="bevel" transform="matrix(1.01111,0,0,1.01111,0,0)"
font-family="Ubuntu" font-size="10" font-weight="400" font-style="normal" 
>
</g>

<g fill="none" stroke="#000000" stroke-opacity="1" stroke-width="1" stroke-linecap="square" stroke-linejoin="bevel" transform="matrix(1.01111,0,0,1.01111,0,0)"
font-family="Ubuntu" font-size="10" font-weight="400" font-style="normal" 
>
</g>

<g fill="none" stroke="#000000" stroke-opacity="1" stroke-width="1" stroke-linecap="square" stroke-linejoin="bevel" transform="matrix(1.01111,0,0,1.01111,0,0)"
font-family="Ubuntu" font-size="10" font-weight="400" font-style="normal" 
>
</g>

<g fill="none" stroke="#000000" stroke-opacity="1" stroke-width="0.5" stroke-linecap="round" stroke-linejoin="round" transform="matrix(1.01111,0,0,1.01111,0,0)"
font-family="Ubuntu" font-size="10" font-weight="400" font-style="normal" 
>
<polyline fill="none" vector-effect="none" points="43.5,33.7 43.5,33.7 44.7,16.9 46,63.6 47.2,64.7 48.4,82 49.6,79.3 50.9,78.9 52.1,72.9 53.3,63.3 54.5,54.4 55.8,39.1 57,40.7 58.2,42.3 59.4,56.3 60.7,54.7 61.9,43.6 63.1,31.7 64.3,30.6 65.6,55.5 66.8,50.3 68,57.9 69.3,64.2 70.5,57.5 71.7,56 72.9,52.1 74.2,43.3 75.4,49.3 76.6,49.6 77.8,55.2 79.1,59.2 80.3,45.3 81.5,36.6 82.7,30.9 84,54.9 85.2,62.6 86.4,66.9 87.6,77.9 88.9,77.3 90.1,70.1 91.3,55.7 92.5,48.1 93.8,46.5 95,46 96.2,48.6 97.5,53.4 98.7,39.2 99.9,33.6 101.1,27.9 102.4,50.9 103.6,63.1 104.8,68.7 106,72.9 107.3,60 108.5,59.5 109.7,58.9 110.9,61.9 112.2,58.1 113.4,61.5 114.6,70 115.9,74.2 117.1,67.1 118.3,41.8 119.5,32.8 120.8,28.1 122,50.3 123.2,52.6 124.4,61.3 125.7,66.4 126.9,59.1 128.1,55 129.3,50.4 130.6,50.3 131.8,49.2 133,54.4 134.2,59.8 135.5,59 136.7,57.5 137.9,40.8 139.1,28.9 140.4,31.5 141.6,46.6 142.8,39.2 144.1,45.5 145.3,59.5 146.5,58 147.7,60.4 149,58 150.2,48.2 151.4,42.2 152.6,41.9 153.9,44.4 155.1,55 156.3,47 157.5,33.7 158.8,24.3 160,37.2 161.2,58.4 162.4,66.4 163.7,69 164.9,64 " />
</g>

<g fill="none" stroke="#000000" stroke-opacity="1" stroke-width="1" stroke-linecap="square" stroke-linejoin="bevel" transform="matrix(1.01111,0,0,1.01111,0,0)"
font-family="Ubuntu" font-size="10" font-weight="400" font-style="normal" 
>
</g>

<g fill="none" stroke="#000000" stroke-opacity="1" stroke-width="1" stroke-linecap="square" stroke-linejoin="bevel" transform="matrix(1.01111,0,0,1.01111,0,0)"
font-family="Ubuntu" font-size="10" font-weight="400" font-style="normal" 
>
</g>

<g fill="none" stroke="#000000" stroke-opacity="1" stroke-width="0.5" stroke-linecap="round" stroke-linejoin="round" transform="matrix(1.01111,0,0,1.01111,0,0)"
font-family="Ubuntu" font-size="10" font-weight="400" font-style="normal" 
>
<polyline fill="none" vector-effect="none" points="43.5,16.5 43.5,86.5 164.5,86.5 164.5,16.5 43.5,16.5 " />
</g>

<g fill="none" stroke="#000000" stroke-opacity="1" stroke-width="1" stroke-linecap="square" stroke-linejoin="bevel" transform="matrix(1.01111,0,0,1.01111,0,0)"
font-family="Ubuntu" font-size="10" font-weight="400" font-style="normal" 
>
</g>

<g fill="none" stroke="#000000" stroke-opacity="1" stroke-width="1" stroke-linecap="square" stroke-linejoin="bevel" transform="matrix(1,0,0,1,0,0)"
font-family="Ubuntu" font-size="10" font-weight="400" font-style="normal" 
>
</g>
</g>
</svg>
