<?xml version="1.0" encoding="utf-8"?>
<!DOCTYPE svg PUBLIC "-//W3C//DTD SVG 1.1//EN" "http://www.w3.org/Graphics/SVG/1.1/DTD/svg11.dtd">
<svg xmlns="http://www.w3.org/2000/svg" xmlns:xlink="http://www.w3.org/1999/xlink" version="1.1" baseProfile="full" width="660.45" height="295.208" viewBox="0 0 660.45 295.21" enable-background="new 0 0 660.45 295.21" xml:space="preserve">
	<path fill="#DEDEDE" fill-opacity="1" fill-rule="evenodd" stroke-width="0.64" stroke-linejoin="round" d="M 534.618,186.516L 509.813,186.516C 509.813,147.716 541.267,116.262 580.067,116.262L 580.067,140.82C 554.954,140.977 534.642,161.372 534.618,186.516 Z "/>
	<path fill="#DEDEDE" fill-opacity="1" fill-rule="evenodd" stroke-width="0.64" stroke-linejoin="round" d="M 580.082,140.802L 580.082,115.997C 618.882,115.997 650.336,147.45 650.336,186.251L 625.778,186.251C 625.621,161.138 605.226,140.826 580.082,140.802 Z "/>
	<path fill="#DEDEDE" fill-opacity="1" fill-rule="evenodd" stroke-width="0.64" stroke-linejoin="round" d="M 509.217,286.593L 534.608,286.593L 534.608,186.258L 509.217,186.258L 509.217,286.593 Z "/>
	<path fill="#DEDEDE" fill-opacity="1" fill-rule="evenodd" stroke-width="0.64" stroke-linejoin="round" d="M 625.707,286.578L 651.098,286.578L 651.117,186.109L 625.726,186.109L 625.707,286.578 Z "/>
	<path fill="#DEDEDE" fill-opacity="1" stroke-width="1.6" stroke-linejoin="round" d="M 13.9647,184.515L 14.0015,184.515C 15.3682,136.015 54.6897,97.0113 103.316,96.1545L 103.316,143.409C 80.7439,144.238 62.5388,162.169 61.2739,184.627L 61.2929,203.239L 61.2739,203.661L 61.2739,204.088C 61.2938,205.162 61.4483,206.278 61.4186,207.333L 61.4266,207.344L 61.4266,209.955L 61.2739,269.084L 61.2739,279.723L 61.2465,279.723L 61.2459,279.934L 61.2302,281.128L 61.3157,286.568L 13.7056,286.578C 13.7056,284.112 13.6744,288.989 13.6594,283.532L 13.6594,281.259L 13.6594,280.798L 13.6594,280.18L 13.6594,279.73L 13.6594,187.408L 13.9647,184.515 Z "/>
	<g>
		<rect x="619.414" y="242.883" fill="#FFFFFF" fill-opacity="1" stroke-width="1.28" stroke-linejoin="round" width="18.3506" height="18.3506"/>
		<text transform="matrix(1.0000000000000000 0.0000000000000000 0.0000000000000000 1.0000000000000000 620.00 256.00)" xml:space="preserve">
			<tspan style=" font-family:Arial; font-size:11.000000pt;" letter-spacing="0.00em" fill="#000000" fill-opacity="1" stroke-width="0.32" stroke-linejoin="round">qk</tspan>
		</text>
	</g>
	<ellipse fill="none" stroke-width="0.64" stroke-linejoin="round" stroke="#2B2B2B" stroke-opacity="1" cx="580.124" cy="186.704" rx="70.2539" ry="70.2539"/>
	<line fill="none" stroke-width="0.64" stroke-linejoin="round" stroke="#2B2B2B" stroke-opacity="1" x1="509.454" y1="73.8447" x2="509.454" y2="286.356"/>
	<ellipse fill="none" stroke-width="0.64" stroke-linejoin="round" stroke="#2B2B2B" stroke-opacity="1" cx="104.919" cy="186.952" rx="90.9862" ry="90.9861"/>
	<line fill="none" stroke-width="0.64" stroke-linejoin="round" stroke="#000000" stroke-opacity="1" x1="106.821" y1="188.655" x2="103.105" y2="184.938"/>
	<line fill="none" stroke-width="0.64" stroke-linejoin="round" stroke="#000000" stroke-opacity="1" x1="103.107" y1="188.653" x2="106.823" y2="184.937"/>
	<line fill="none" stroke-width="0.64" stroke-linejoin="round" stroke="#2B2B2B" stroke-opacity="1" x1="13.9688" y1="73.8446" x2="13.9679" y2="286.356"/>
	<line fill="none" stroke-width="0.64" stroke-linejoin="round" stroke="#000000" stroke-opacity="1" x1="105.025" y1="186.843" x2="13.8597" y2="186.843"/>
	<path fill="#000000" fill-opacity="1" stroke-width="0.32" stroke-linejoin="round" d="M 17.7082,189.064L 17.6991,184.708L 13.9309,186.894L 17.7082,189.064 Z "/>
	<line fill="none" stroke-width="0.64" stroke-linejoin="round" stroke="#2B2B2B" stroke-opacity="1" x1="650.474" y1="73.8657" x2="650.474" y2="286.377"/>
	<line fill="none" stroke-width="0.64" stroke-linejoin="round" stroke="#2B2B2B" stroke-opacity="1" x1="582.285" y1="188.792" x2="578.569" y2="185.076"/>
	<line fill="none" stroke-width="0.64" stroke-linejoin="round" stroke="#2B2B2B" stroke-opacity="1" x1="578.57" y1="188.792" x2="582.286" y2="185.076"/>
	<path fill="none" stroke-width="1.28" stroke-linejoin="round" stroke="#000000" stroke-opacity="1" d="M 111.671,24.5638C 122.229,27.4126 124.726,38.2515 124.726,38.2514C 124.726,38.2514 144.513,86.8985 92.1883,96.941C 85.3937,98.2452 86.9036,99.4804 90.564,99.3432"/>
	<path fill="#FFFFFF" fill-opacity="1" stroke-width="0.64" stroke-linejoin="round" stroke="#000000" stroke-opacity="1" d="M 133.031,49.7459L 127.915,28.5736L 123.232,34.021L 116.134,36.001L 133.031,49.7459 Z "/>
	<path fill="#000000" fill-opacity="1" stroke-width="0.32" stroke-linejoin="round" d="M 649.853,228.015L 649.857,222.682L 651.137,222.683L 651.133,228.016L 649.853,228.015 Z M 649.861,217.349L 649.865,212.015L 651.145,212.016L 651.141,217.35L 649.861,217.349 Z M 649.869,206.682L 649.873,201.349L 651.153,201.35L 651.149,206.683L 649.869,206.682 Z M 649.878,196.015L 649.882,190.682L 651.162,190.683L 651.157,196.016L 649.878,196.015 Z M 649.886,185.349L 649.887,183.712L 649.898,183.586L 649.934,183.466L 649.994,183.355L 650.075,183.259L 650.171,183.178L 650.281,183.119L 650.402,183.083L 650.527,183.072L 649.833,183.045L 649.607,181.017L 649.472,180.123L 650.741,179.959L 650.877,180.853L 651.108,182.929L 650.527,184.352L 651.167,183.713L 651.166,185.35L 649.886,185.349 Z M 648.539,174.901L 648.306,173.731L 647.291,169.75L 648.539,169.469L 649.555,173.45L 649.801,174.683L 648.539,174.901 Z M 645.725,164.691L 645.302,163.375L 643.847,159.747L 645.052,159.316L 646.507,162.944L 646.956,164.34L 645.725,164.691 Z M 641.667,154.938L 639.919,151.433L 639.201,150.277L 640.32,149.656L 641.038,150.811L 642.836,154.416L 641.667,154.938 Z M 636.385,145.748L 636.125,145.328L 633.187,141.563L 634.238,140.833L 637.176,144.598L 637.504,145.126L 636.385,145.748 Z M 629.727,137.612L 625.968,133.829L 626.93,132.985L 630.689,136.769L 629.727,137.612 Z M 621.817,130.61L 619.321,128.682L 617.503,127.645L 618.215,126.582L 620.033,127.618L 622.667,129.652L 621.817,130.61 Z M 612.871,125.003L 611.627,124.294L 608.082,122.896L 608.636,121.742L 612.181,123.14L 613.582,123.939L 612.871,125.003 Z M 603.12,120.939L 602.737,120.788L 598.04,119.662L 598.425,118.441L 603.122,119.567L 603.675,119.785L 603.12,120.939 Z M 592.854,118.418L 592.56,118.348L 587.642,117.842L 587.857,116.58L 592.775,117.086L 593.239,117.197L 592.854,118.418 Z M 582.337,117.296L 581.008,117.16L 581.06,115.881L 582.551,116.035L 582.337,117.296 Z M 649.845,238.682L 649.849,233.349L 651.129,233.35L 651.125,238.683L 649.845,238.682 Z "/>
	<path fill="#000000" fill-opacity="1" stroke-width="0.32" stroke-linejoin="round" d="M 508.687,275.99L 508.699,270.657L 509.979,270.659L 509.967,275.993L 508.687,275.99 Z M 508.711,265.323L 508.723,259.99L 510.003,259.993L 509.991,265.326L 508.711,265.323 Z M 508.735,254.657L 508.747,249.323L 510.027,249.326L 510.015,254.659L 508.735,254.657 Z M 508.759,243.99L 508.772,238.657L 510.052,238.66L 510.04,243.993L 508.759,243.99 Z M 508.784,233.323L 508.796,227.99L 510.076,227.993L 510.064,233.326L 508.784,233.323 Z M 508.808,222.657L 508.82,217.323L 510.1,217.326L 510.088,222.66L 508.808,222.657 Z M 508.832,211.99L 508.844,206.657L 510.124,206.66L 510.112,211.993L 508.832,211.99 Z M 508.856,201.323L 508.868,195.99L 510.148,195.993L 510.136,201.326L 508.856,201.323 Z M 508.88,190.657L 508.889,186.749L 508.9,186.624L 508.936,186.504L 508.996,186.394L 509.077,186.298L 509.173,186.217L 509.284,186.158L 509.404,186.121L 509.529,186.111L 508.934,185.937L 508.991,185.285L 510.269,185.372L 510.211,186.024L 509.529,187.391L 510.169,186.752L 510.16,190.66L 508.88,190.657 Z M 509.635,179.94L 510.349,175.888L 510.632,174.669L 511.886,174.922L 511.604,176.141L 510.901,180.13L 509.635,179.94 Z M 511.918,169.457L 513.313,164.772L 513.485,164.316L 514.699,164.722L 514.527,165.178L 513.156,169.782L 511.918,169.457 Z M 515.368,159.327L 515.687,158.482L 517.612,154.437L 518.79,154.935L 516.866,158.981L 516.582,159.733L 515.368,159.327 Z M 520.151,149.689L 522.703,145.432L 522.967,145.085L 524.029,145.799L 523.765,146.146L 521.281,150.291L 520.151,149.689 Z M 526.193,140.838L 527.537,139.07L 529.764,136.79L 530.736,137.624L 528.509,139.903L 527.256,141.553L 526.193,140.838 Z M 533.571,132.94L 537.782,129.667L 538.637,130.619L 534.426,133.892L 533.571,132.94 Z M 542.24,126.601L 546.88,123.971L 547.592,125.035L 542.952,127.665L 542.24,126.601 Z M 551.827,121.772L 556.804,119.854L 557.352,121.011L 552.375,122.928L 551.827,121.772 Z M 562.046,118.486L 567.247,117.307L 567.62,118.531L 562.418,119.711L 562.046,118.486 Z M 572.617,116.628L 577.931,116.164L 578.128,117.429L 572.814,117.892L 572.617,116.628 Z M 508.663,286.656L 508.675,281.323L 509.955,281.326L 509.943,286.659L 508.663,286.656 Z "/>
	<g>
		<rect x="5.03891" y="90.6595" fill="#FFFFFF" fill-opacity="1" stroke-width="1.28" stroke-linejoin="round" width="18.3507" height="18.3506"/>
		<text transform="matrix(1.0000000000000000 0.0000000000000000 0.0000000000000000 1.0000000000000000 6.00 104.00)" xml:space="preserve">
			<tspan style=" font-family:Arial; font-size:11.000000pt;" letter-spacing="0.00em" fill="#000000" fill-opacity="1" stroke-width="0.32" stroke-linejoin="round">V2</tspan>
		</text>
	</g>
	<g>
		<rect x="131.707" y="92.787" fill="#FFFFFF" fill-opacity="1" stroke-width="1.28" stroke-linejoin="round" width="18.3506" height="18.3507"/>
		<text transform="matrix(1.0000000000000000 0.0000000000000000 0.0000000000000000 1.0000000000000000 134.00 106.00)" xml:space="preserve">
			<tspan style=" font-family:Arial; font-size:11.000000pt;" letter-spacing="0.00em" fill="#000000" fill-opacity="1" stroke-width="0.32" stroke-linejoin="round">V1</tspan>
		</text>
	</g>
	<g>
		<rect x="642.1" y="90.6595" fill="#FFFFFF" fill-opacity="1" stroke-width="1.28" stroke-linejoin="round" width="18.3506" height="18.3506"/>
		<text transform="matrix(1.0000000000000000 0.0000000000000000 0.0000000000000000 1.0000000000000000 642.00 104.00)" xml:space="preserve">
			<tspan style=" font-family:Arial; font-size:11.000000pt;" letter-spacing="0.00em" fill="#000000" fill-opacity="1" stroke-width="0.32" stroke-linejoin="round">V4</tspan>
		</text>
	</g>
	<rect x="620.314" y="128.557" fill="#FFFFFF" fill-opacity="1" stroke-width="1.28" stroke-linejoin="round" width="18.3506" height="18.3506"/>
	<text transform="matrix(1.0000000000000000 0.0000000000000000 0.0000000000000000 1.0000000000000000 623.00 141.00)" xml:space="preserve">
		<tspan style=" font-family:Arial; font-size:11.000000pt;" letter-spacing="0.00em" fill="#000000" fill-opacity="1" stroke-width="0.32" stroke-linejoin="round">V5</tspan>
	</text>
	<g>
		<path fill="#FFFFFF" fill-opacity="1" stroke-width="1.28" stroke-linejoin="round" d="M 74.6849,277.41L 56.3342,277.41L 56.3073,295.139L 74.7009,295.139L 74.6849,277.41 Z "/>
		<text transform="matrix(1.0000000000000000 0.0000000000000000 0.0000000000000000 1.0000000000000000 59.00 290.00)" xml:space="preserve">
			<tspan style=" font-family:Arial; font-size:11.000000pt;" letter-spacing="0.00em" fill="#000000" fill-opacity="1" stroke-width="0.32" stroke-linejoin="round">c4</tspan>
		</text>
	</g>
	<g>
		<rect x="63.5996" y="177.784" fill="#FFFFFF" fill-opacity="1" stroke-width="1.28" stroke-linejoin="round" width="18.3507" height="18.3506"/>
		<text transform="matrix(1.0000000000000000 0.0000000000000000 0.0000000000000000 1.0000000000000000 67.00 191.00)" xml:space="preserve">
			<tspan style=" font-family:Arial; font-size:11.000000pt;" letter-spacing="0.00em" fill="#000000" fill-opacity="1" stroke-width="0.32" stroke-linejoin="round">c1</tspan>
		</text>
	</g>
	<line fill="none" stroke-width="1.6" stroke-linejoin="round" x1="123.807" y1="37.6632" x2="131.977" y2="93.1546"/>
	<line fill="none" stroke-width="0.64" stroke-linejoin="round" stroke="#000000" stroke-opacity="1" x1="125.707" y1="37.8509" x2="111.763" y2="71.9409"/>
	<line fill="none" stroke-width="0.64" stroke-linejoin="round" stroke="#000000" stroke-opacity="1" x1="125.566" y1="38.1714" x2="132.065" y2="4.65226"/>
	<path fill="#000000" fill-opacity="1" stroke-width="0.32" stroke-linejoin="round" d="M 114.471,71.1419L 110.496,69.3594L 110.939,73.6932L 114.471,71.1419 Z "/>
	<path fill="#000000" fill-opacity="1" stroke-width="0.32" stroke-linejoin="round" d="M 129.876,4.47013L 134.111,5.49113L 132.878,1.3129L 129.876,4.47013 Z "/>
	<line fill="none" stroke-width="0.64" stroke-linejoin="round" stroke="#000000" stroke-opacity="1" x1="125.66" y1="38.1181" x2="151.309" y2="63.8094"/>
	<path fill="#000000" fill-opacity="1" stroke-width="0.32" stroke-linejoin="round" d="M 151.193,60.8287L 148.404,64.1755L 152.697,64.9171L 151.193,60.8287 Z "/>
	<text transform="matrix(1.0000000000000000 0.0000000000000000 0.0000000000000000 1.0000000000000000 139.00 11.00)" xml:space="preserve">
		<tspan style=" font-family:Arial; font-size:11.000000pt;" letter-spacing="0.00em" fill="#000000" fill-opacity="1" stroke-width="0.32" stroke-linejoin="round">P</tspan>
	</text>
	<text transform="matrix(1.0000000000000000 0.0000000000000000 0.0000000000000000 1.0000000000000000 155.00 62.00)" xml:space="preserve">
		<tspan style=" font-family:Arial; font-size:11.000000pt;" letter-spacing="0.00em" fill="#000000" fill-opacity="1" stroke-width="0.32" stroke-linejoin="round">p</tspan>
	</text>
	<text transform="matrix(1.0000000000000000 0.0000000000000000 0.0000000000000000 1.0000000000000000 95.00 70.00)" xml:space="preserve">
		<tspan style=" font-family:Arial; font-size:11.000000pt;" letter-spacing="0.00em" fill="#000000" fill-opacity="1" stroke-width="0.32" stroke-linejoin="round">pd</tspan>
	</text>
	<path fill="#000000" fill-opacity="1" stroke-width="0.32" stroke-linejoin="round" d="M 13.7674,275.512L 13.7902,270.178L 15.0702,270.184L 15.0474,275.517L 13.7674,275.512 Z M 13.8129,264.845L 13.8357,259.512L 15.1157,259.517L 15.0929,264.851L 13.8129,264.845 Z M 13.8584,254.178L 13.8812,248.845L 15.1612,248.851L 15.1384,254.184L 13.8584,254.178 Z M 13.904,243.512L 13.9267,238.179L 15.2067,238.184L 15.184,243.517L 13.904,243.512 Z M 13.9495,232.845L 13.9722,227.512L 15.2522,227.518L 15.2295,232.851L 13.9495,232.845 Z M 13.995,222.179L 14.0178,216.845L 15.2977,216.851L 15.275,222.184L 13.995,222.179 Z M 14.0405,211.512L 14.0633,206.179L 15.3433,206.184L 15.3205,211.518L 14.0405,211.512 Z M 14.086,200.846L 14.1088,195.512L 15.3888,195.518L 15.366,200.851L 14.086,200.846 Z M 14.1315,190.179L 14.1543,184.846L 15.4343,184.851L 15.4115,190.185L 14.1315,190.179 Z M 14.1771,179.512L 14.1998,174.179L 15.4798,174.185L 15.4571,179.518L 14.1771,179.512 Z M 15.2351,168.821L 15.6069,167.26L 16.6364,163.648L 17.8754,163.97L 16.8459,167.582L 16.4863,169.09L 15.2351,168.821 Z M 18.3154,158.555L 18.7197,157.364L 20.2561,153.553L 21.457,153.996L 19.9206,157.807L 19.538,158.935L 18.3154,158.555 Z M 22.4367,148.647L 24.2898,144.78L 24.8295,143.835L 25.9643,144.427L 25.4246,145.372L 23.609,149.161L 22.4367,148.647 Z M 27.4744,139.203L 28.1882,137.953L 30.4156,134.7L 31.5017,135.377L 29.2744,138.631L 28.6092,139.795L 27.4744,139.203 Z M 33.5276,130.305L 36.9294,126.197L 37.9531,126.966L 34.5514,131.073L 33.5276,130.305 Z M 40.5782,122.233L 44.3785,118.491L 45.3235,119.354L 41.5232,123.096L 40.5782,122.233 Z M 48.5323,115.047L 52.7233,111.749L 53.5713,112.708L 49.3803,116.006L 48.5323,115.047 Z M 57.3143,108.897L 61.8881,106.104L 61.9356,106.083L 62.5352,107.214L 62.4878,107.235L 58.0466,109.947L 57.3143,108.897 Z M 66.7954,103.886L 71.6553,101.689L 72.2549,102.82L 67.3951,105.017L 66.7954,103.886 Z M 76.8106,100.047L 81.9064,98.4732L 82.3606,99.67L 77.2648,101.244L 76.8106,100.047 Z M 87.1891,97.3328L 92.439,96.3933L 92.7414,97.6372L 87.4915,98.5766L 87.1891,97.3328 Z M 13.7219,286.178L 13.7447,280.845L 15.0246,280.85L 15.0019,286.184L 13.7219,286.178 Z "/>
	<g>
		<path fill="#FFFFFF" fill-opacity="1" stroke-width="1.28" stroke-linejoin="round" d="M 18.4001,277.41L 0.0494537,277.41L 0,295.208L 18.3935,295.162L 18.4001,277.41 Z "/>
		<text transform="matrix(1.0000000000000000 0.0000000000000000 0.0000000000000000 1.0000000000000000 1.00 290.00)" xml:space="preserve">
			<tspan style=" font-family:Arial; font-size:11.000000pt;" letter-spacing="0.00em" fill="#000000" fill-opacity="1" stroke-width="0.32" stroke-linejoin="round">c4</tspan>
		</text>
	</g>
	<path fill="#9B9B9B" fill-opacity="1" stroke-width="0.64" stroke-linejoin="round" stroke="#000000" stroke-opacity="1" d="M 78.8565,100.152L 100.609,101.282L 94.9092,96.093L 96.8474,87.8733L 78.8565,100.152 Z "/>
	<text transform="matrix(1.0000000000000000 0.0000000000000000 0.0000000000000000 1.0000000000000000 69.00 91.00)" xml:space="preserve">
		<tspan style=" font-family:Arial; font-size:11.000000pt;" letter-spacing="0.00em" fill="#000000" fill-opacity="1" stroke-width="0.32" stroke-linejoin="round">qk</tspan>
	</text>
	<line fill="none" stroke-width="0.64" stroke-linejoin="round" stroke="#000000" stroke-opacity="1" x1="20.5406" y1="20.4262" x2="20.5406" y2="53.9836"/>
	<line fill="none" stroke-width="0.64" stroke-linejoin="round" stroke="#000000" stroke-opacity="1" x1="53.8679" y1="53.7115" x2="20.3106" y2="53.7115"/>
	<path fill="#000000" fill-opacity="1" stroke-width="0.32" stroke-linejoin="round" d="M 18.3828,22.3935L 22.7392,22.3843L 20.5532,18.6162L 18.3828,22.3935 Z "/>
	<path fill="#000000" fill-opacity="1" stroke-width="0.32" stroke-linejoin="round" d="M 51.5469,51.5203L 51.5561,55.8767L 55.3242,53.6907L 51.5469,51.5203 Z "/>
	<text transform="matrix(1.0000000000000000 0.0000000000000000 0.0000000000000000 1.0000000000000000 4.00 65.00)" xml:space="preserve">
		<tspan style=" font-family:Arial; font-size:11.000000pt;" letter-spacing="0.00em" fill="#000000" fill-opacity="1" stroke-width="0.32" stroke-linejoin="round">Ow</tspan>
	</text>
	<line fill="none" stroke-width="0.64" stroke-linejoin="round" stroke="#000000" stroke-opacity="1" x1="20.6007" y1="53.5565" x2="124.961" y2="38.1994"/>
	<path fill="#000000" fill-opacity="1" stroke-width="0.32" stroke-linejoin="round" d="M 121.675,36.8664L 122.426,40.9616L 125.75,37.719L 121.675,36.8664 Z "/>
	<g>
		<rect x="71.5125" y="33.2679" fill="#FFFFFF" fill-opacity="1" stroke-width="1.28" stroke-linejoin="round" width="18.3507" height="18.3507"/>
		<text transform="matrix(1.0000000000000000 0.0000000000000000 0.0000000000000000 1.0000000000000000 78.00 46.00)" xml:space="preserve">
			<tspan style=" font-family:Arial; font-size:11.000000pt;" letter-spacing="0.00em" fill="#000000" fill-opacity="1" stroke-width="0.32" stroke-linejoin="round">p</tspan>
		</text>
	</g>
	<line fill="none" stroke-width="0.64" stroke-linejoin="round" stroke="#000000" stroke-opacity="1" x1="170.135" y1="38.6128" x2="195.453" y2="38.6128"/>
	<path fill="#000000" fill-opacity="1" stroke-width="0.32" stroke-linejoin="round" d="M 194.534,36.5096L 194.543,40.866L 198.311,38.6799L 194.534,36.5096 Z "/>
	<text transform="matrix(1.0000000000000000 0.0000000000000000 0.0000000000000000 1.0000000000000000 176.00 34.00)" xml:space="preserve">
		<tspan style=" font-family:Arial; font-size:11.000000pt;" letter-spacing="0.00em" fill="#000000" fill-opacity="1" stroke-width="0.32" stroke-linejoin="round">w</tspan>
	</text>
	<line fill="none" stroke-width="0.64" stroke-linejoin="round" stroke="#000000" stroke-opacity="1" x1="79.337" y1="100.02" x2="94.7654" y2="96.0917"/>
	<line fill="none" stroke-width="0.64" stroke-linejoin="round" stroke="#000000" stroke-opacity="1" x1="123.215" y1="34.0227" x2="132.893" y2="49.6082"/>
	<path fill="#DEDEDE" fill-opacity="1" fill-rule="evenodd" stroke-width="1.6" stroke-linejoin="round" d="M 289.717,101.218C 298.311,98.3391 307.114,96.3333 316.638,96.1655L 316.638,143.42C 294.065,144.249 275.86,162.18 274.595,184.638L 274.614,203.25L 274.595,203.672L 274.595,204.099C 274.615,205.173 274.77,206.289 274.74,207.344L 274.748,207.355L 274.748,209.966L 274.595,269.095L 274.595,279.734L 274.568,279.734L 274.567,279.945L 274.552,281.139L 274.637,286.579L 248.411,286.585C 248.822,257.062 247.349,215.059 248.614,187.591C 249.231,174.176 252.208,163.901 253.08,160.869C 256.352,149.493 254.017,115.973 289.06,101.468L 289.717,101.218 Z "/>
	<ellipse fill="none" stroke-width="0.64" stroke-linejoin="round" stroke="#989898" stroke-opacity="1" cx="318.248" cy="186.974" rx="90.9862" ry="90.9862"/>
	<line fill="none" stroke-width="0.64" stroke-linejoin="round" stroke="#000000" stroke-opacity="1" x1="320.149" y1="188.677" x2="316.433" y2="184.96"/>
	<line fill="none" stroke-width="0.64" stroke-linejoin="round" stroke="#000000" stroke-opacity="1" x1="316.435" y1="188.674" x2="320.151" y2="184.958"/>
	<ellipse fill="none" stroke-width="0.64" stroke-linejoin="round" stroke="#2B2B2B" stroke-opacity="1" cx="319.041" cy="187.296" rx="70.2539" ry="70.2539"/>
	<line fill="none" stroke-width="0.64" stroke-linejoin="round" stroke="#4D4D4D" stroke-opacity="1" x1="248.745" y1="73.8662" x2="248.744" y2="286.378"/>
	<line fill="none" stroke-width="0.64" stroke-linejoin="round" stroke="#000000" stroke-opacity="1" x1="384.135" y1="212.079" x2="318.541" y2="186.922"/>
	<path fill="#000000" fill-opacity="1" stroke-width="0.32" stroke-linejoin="round" d="M 381.815,208.812L 380.285,212.89L 384.582,212.176L 381.815,208.812 Z "/>
	<path fill="none" stroke-width="1.28" stroke-linejoin="round" stroke="#000000" stroke-opacity="1" d="M 324.999,24.5855C 335.557,27.4344 338.055,38.2732 338.055,38.2732C 338.055,38.2732 358.058,87.0014 305.669,96.6971C 253.279,106.393 256.807,147.946 253.087,160.88C 249.241,174.25 248.655,186.736 248.655,186.736L 248.676,187.126L 248.736,187.786"/>
	<path fill="#FFFFFF" fill-opacity="1" stroke-width="0.64" stroke-linejoin="round" stroke="#000000" stroke-opacity="1" d="M 346.359,49.7674L 341.243,28.5951L 336.56,34.0425L 329.462,36.0224L 346.359,49.7674 Z "/>
	<path fill="#9B9B9B" fill-opacity="1" stroke-width="0.64" stroke-linejoin="round" stroke="#000000" stroke-opacity="1" d="M 249.371,177.054L 261.152,158.733L 253.456,159.858L 247.644,155.341L 249.371,177.054 Z "/>
	<path fill="#000000" fill-opacity="1" stroke-width="0.32" stroke-linejoin="round" d="M 248.027,276.242L 248.027,270.909L 249.307,270.909L 249.307,276.242L 248.027,276.242 Z M 248.027,265.576L 248.027,260.242L 249.307,260.242L 249.307,265.576L 248.027,265.576 Z M 248.027,254.909L 248.027,249.576L 249.307,249.576L 249.307,254.909L 248.027,254.909 Z M 248.027,244.242L 248.027,238.909L 249.307,238.909L 249.307,244.242L 248.027,244.242 Z M 248.027,233.576L 248.027,228.242L 249.307,228.242L 249.307,233.576L 248.027,233.576 Z M 248.027,222.909L 248.027,217.576L 249.307,217.576L 249.307,222.909L 248.027,222.909 Z M 248.027,212.242L 248.027,206.909L 249.307,206.909L 249.307,212.242L 248.027,212.242 Z M 248.027,201.576L 248.027,196.242L 249.307,196.242L 249.307,201.576L 248.027,201.576 Z M 248.027,190.909L 248.027,187.311L 249.307,187.311L 249.307,190.909L 248.027,190.909 Z M 248.027,286.909L 248.027,281.576L 249.307,281.576L 249.307,286.909L 248.027,286.909 Z "/>
	<g>
		<rect x="239.815" y="90.6811" fill="#FFFFFF" fill-opacity="1" stroke-width="1.28" stroke-linejoin="round" width="18.3507" height="18.3507"/>
		<text transform="matrix(1.0000000000000000 0.0000000000000000 0.0000000000000000 1.0000000000000000 239.00 104.00)" xml:space="preserve">
			<tspan style=" font-family:Arial; font-size:11.000000pt;" letter-spacing="0.00em" fill="#000000" fill-opacity="1" stroke-width="0.32" stroke-linejoin="round">V2</tspan>
		</text>
	</g>
	<g>
		<path fill="#FFFFFF" fill-opacity="1" stroke-width="1.28" stroke-linejoin="round" d="M 252.266,277.408L 233.916,277.408L 233.866,295.207L 252.26,295.161L 252.266,277.408 Z "/>
		<text transform="matrix(1.0000000000000000 0.0000000000000000 0.0000000000000000 1.0000000000000000 235.00 290.00)" xml:space="preserve">
			<tspan style=" font-family:Arial; font-size:11.000000pt;" letter-spacing="0.00em" fill="#000000" fill-opacity="1" stroke-width="0.32" stroke-linejoin="round">c4</tspan>
		</text>
	</g>
	<g>
		<rect x="339.097" y="188.632" fill="#FFFFFF" fill-opacity="1" stroke-width="1.28" stroke-linejoin="round" width="18.3507" height="18.3506"/>
		<text transform="matrix(1.0000000000000000 0.0000000000000000 0.0000000000000000 1.0000000000000000 341.00 201.00)" xml:space="preserve">
			<tspan style=" font-family:Arial; font-size:11.000000pt;" letter-spacing="0.00em" fill="#000000" fill-opacity="1" stroke-width="0.32" stroke-linejoin="round">c</tspan>
			<tspan style=" font-family:Arial; font-size:11.000000pt;" letter-spacing="0.00em" fill="#000000" fill-opacity="1" stroke-width="1.28" stroke-linejoin="round">2</tspan>
		</text>
	</g>
	<line fill="none" stroke-width="1.6" stroke-linejoin="round" x1="337.135" y1="37.6849" x2="345.305" y2="93.1763"/>
	<path fill="#FFFFFF" fill-opacity="1" stroke-width="0.64" stroke-linejoin="round" stroke="#000000" stroke-opacity="1" d="M 292.185,100.174L 313.938,101.304L 308.238,96.1145L 310.176,87.8948L 292.185,100.174 Z "/>
	<g>
		<rect x="266.199" y="150.736" fill="#FFFFFF" fill-opacity="1" stroke-width="1.28" stroke-linejoin="round" width="18.3506" height="18.3506"/>
		<text transform="matrix(1.0000000000000000 0.0000000000000000 0.0000000000000000 1.0000000000000000 267.00 164.00)" xml:space="preserve">
			<tspan style=" font-family:Arial; font-size:11.000000pt;" letter-spacing="0.00em" fill="#000000" fill-opacity="1" stroke-width="0.32" stroke-linejoin="round">qk</tspan>
		</text>
	</g>
	<g>
		<rect x="280.611" y="76.091" fill="#FFFFFF" fill-opacity="1" stroke-width="1.28" stroke-linejoin="round" width="18.3507" height="18.3506"/>
		<text transform="matrix(1.0000000000000000 0.0000000000000000 0.0000000000000000 1.0000000000000000 287.00 89.00)" xml:space="preserve">
			<tspan style=" font-family:Arial; font-size:11.000000pt;" letter-spacing="0.00em" fill="#000000" fill-opacity="1" stroke-width="0.32" stroke-linejoin="round">p</tspan>
		</text>
	</g>
	<line fill="none" stroke-width="0.64" stroke-linejoin="round" stroke="#000000" stroke-opacity="1" x1="292.665" y1="100.041" x2="308.094" y2="96.1133"/>
	<line fill="none" stroke-width="0.64" stroke-linejoin="round" stroke="#000000" stroke-opacity="1" x1="249.628" y1="176.105" x2="253.399" y2="159.953"/>
	<line fill="none" stroke-width="0.64" stroke-linejoin="round" stroke="#000000" stroke-opacity="1" x1="336.544" y1="34.0444" x2="346.222" y2="49.6299"/>
	<g>
		<rect x="300.497" y="248.502" fill="#FFFFFF" fill-opacity="1" stroke-width="1.28" stroke-linejoin="round" width="18.3507" height="18.3506"/>
		<text transform="matrix(1.0000000000000000 0.0000000000000000 0.0000000000000000 1.0000000000000000 303.00 261.00)" xml:space="preserve">
			<tspan style=" font-family:Arial; font-size:11.000000pt;" letter-spacing="0.00em" fill="#000000" fill-opacity="1" stroke-width="0.32" stroke-linejoin="round">V1</tspan>
		</text>
	</g>
	<line fill="none" stroke-width="0.64" stroke-linejoin="round" stroke="#989898" stroke-opacity="1" x1="227.27" y1="73.8911" x2="227.269" y2="286.403"/>
	<g>
		<rect x="469.651" y="151.23" fill="#FFFFFF" fill-opacity="1" stroke-width="1.28" stroke-linejoin="round" width="18.3506" height="18.3508"/>
		<text transform="matrix(1.0000000000000000 0.0000000000000000 0.0000000000000000 1.0000000000000000 476.00 164.00)" xml:space="preserve">
			<tspan style=" font-family:Arial; font-size:11.000000pt;" letter-spacing="0.00em" fill="#000000" fill-opacity="1" stroke-width="0.32" stroke-linejoin="round">p</tspan>
		</text>
	</g>
	<ellipse fill="none" stroke-width="0.64" stroke-linejoin="round" stroke="#989898" stroke-opacity="1" cx="525.283" cy="186.953" rx="90.9862" ry="90.9862"/>
	<line fill="none" stroke-width="0.64" stroke-linejoin="round" stroke="#989898" stroke-opacity="1" x1="527.185" y1="188.655" x2="523.469" y2="184.938"/>
	<line fill="none" stroke-width="0.64" stroke-linejoin="round" stroke="#989898" stroke-opacity="1" x1="523.471" y1="188.653" x2="527.187" y2="184.938"/>
	<ellipse fill="none" stroke-width="0.64" stroke-linejoin="round" stroke="#989898" stroke-opacity="1" cx="526.077" cy="187.275" rx="70.2539" ry="70.2539"/>
	<line fill="none" stroke-width="0.64" stroke-linejoin="round" stroke="#989898" stroke-opacity="1" x1="455.78" y1="73.8452" x2="455.78" y2="286.357"/>
	<path fill="none" stroke-width="1.28" stroke-linejoin="round" stroke="#000000" stroke-opacity="1" d="M 532.035,24.5643C 542.592,27.4132 545.09,38.252 545.09,38.252C 545.09,38.252 565.094,86.9803 512.704,96.676C 460.315,106.372 463.842,147.925 460.123,160.859C 456.277,174.229 455.69,186.714 455.69,186.714L 455.711,187.105L 455.772,187.765"/>
	<path fill="#FFFFFF" fill-opacity="1" stroke-width="0.64" stroke-linejoin="round" stroke="#000000" stroke-opacity="1" d="M 456.406,177.033L 468.187,158.712L 460.492,159.837L 454.68,155.32L 456.406,177.033 Z "/>
	<line fill="none" stroke-width="1.28" stroke-linejoin="round" stroke="#000000" stroke-opacity="1" x1="455.703" y1="286.888" x2="455.703" y2="187.29"/>
	<g>
		<rect x="498.76" y="227.736" fill="#FFFFFF" fill-opacity="1" stroke-width="1.28" stroke-linejoin="round" width="18.3506" height="18.3507"/>
		<text transform="matrix(1.0000000000000000 0.0000000000000000 0.0000000000000000 1.0000000000000000 497.00 242.00)" xml:space="preserve">
			<tspan style=" font-family:Arial; font-size:11.000000pt;" letter-spacing="0.00em" fill="#000000" fill-opacity="1" stroke-width="0.32" stroke-linejoin="round">V6</tspan>
		</text>
	</g>
	<line fill="none" stroke-width="0.64" stroke-linejoin="round" stroke="#000000" stroke-opacity="1" x1="456.664" y1="176.083" x2="460.434" y2="159.932"/>
	<path fill="#FFFFFF" fill-opacity="1" stroke-width="0.64" stroke-linejoin="round" stroke="#000000" stroke-opacity="1" d="M 553.411,49.7365L 548.295,28.5642L 543.612,34.0115L 536.514,35.9915L 553.411,49.7365 Z "/>
	<path fill="#FFFFFF" fill-opacity="1" stroke-width="0.64" stroke-linejoin="round" stroke="#000000" stroke-opacity="1" d="M 499.237,100.143L 520.99,101.273L 515.29,96.0835L 517.228,87.8638L 499.237,100.143 Z "/>
	<line fill="none" stroke-width="0.64" stroke-linejoin="round" stroke="#000000" stroke-opacity="1" x1="499.718" y1="100.01" x2="515.146" y2="96.0824"/>
	<line fill="none" stroke-width="0.64" stroke-linejoin="round" stroke="#000000" stroke-opacity="1" x1="543.596" y1="34.0134" x2="553.274" y2="49.5989"/>
	<line fill="none" stroke-width="1.28" stroke-linejoin="round" stroke="#000000" stroke-opacity="1" x1="650.495" y1="286.581" x2="650.495" y2="233.447"/>
	<path fill="#9B9B9B" fill-opacity="1" stroke-width="0.64" stroke-linejoin="round" stroke="#000000" stroke-opacity="1" d="M 650.478,231.092L 643.231,251.633L 650.461,248.767L 657.156,251.825L 650.478,231.092 Z "/>
	<line fill="none" stroke-width="0.64" stroke-linejoin="round" stroke="#000000" stroke-opacity="1" x1="650.446" y1="232.076" x2="650.495" y2="248.661"/>
</svg>
