<?xml version="1.0" encoding="utf-8"?>
<!DOCTYPE svg PUBLIC "-//W3C//DTD SVG 1.1//EN" "http://www.w3.org/Graphics/SVG/1.1/DTD/svg11.dtd">
<svg xmlns="http://www.w3.org/2000/svg" xmlns:xlink="http://www.w3.org/1999/xlink" version="1.1" baseProfile="full" width="660.45" height="294.653" viewBox="0 0 660.45 294.65" enable-background="new 0 0 660.45 294.65" xml:space="preserve">
	<path fill="#DEDEDE" fill-opacity="1" fill-rule="evenodd" stroke-width="0.64" stroke-linejoin="round" d="M 534.618,185.961L 509.813,185.961C 509.813,147.161 541.267,115.707 580.067,115.707L 580.067,140.265C 554.954,140.422 534.642,160.817 534.618,185.961 Z "/>
	<path fill="#DEDEDE" fill-opacity="1" fill-rule="evenodd" stroke-width="0.64" stroke-linejoin="round" d="M 580.082,140.247L 580.082,115.442C 618.882,115.442 650.336,146.896 650.336,185.696L 625.778,185.696C 625.621,160.583 605.226,140.271 580.082,140.247 Z "/>
	<path fill="#DEDEDE" fill-opacity="1" fill-rule="evenodd" stroke-width="0.64" stroke-linejoin="round" d="M 509.217,286.038L 534.608,286.038L 534.608,185.703L 509.217,185.703L 509.217,286.038 Z "/>
	<path fill="#DEDEDE" fill-opacity="1" fill-rule="evenodd" stroke-width="0.64" stroke-linejoin="round" d="M 625.707,286.023L 651.098,286.023L 651.117,185.554L 625.726,185.554L 625.707,286.023 Z "/>
	<path fill="#DEDEDE" fill-opacity="1" stroke-width="1.6" stroke-linejoin="round" d="M 13.9647,183.96L 14.0015,183.96C 15.3682,135.46 54.6897,96.4563 103.316,95.5996L 103.316,142.854C 80.7439,143.684 62.5388,161.614 61.2739,184.072L 61.2929,202.684L 61.2739,203.106L 61.2739,203.533C 61.2938,204.607 61.4483,205.723 61.4186,206.779L 61.4265,206.789L 61.4265,209.4L 61.2739,268.529L 61.2739,279.168L 61.2465,279.168L 61.2459,279.379L 61.2302,280.573L 61.3157,286.013L 13.7056,286.024C 13.7056,283.557 13.6744,288.434 13.6594,282.977L 13.6594,280.704L 13.6594,280.243L 13.6594,279.625L 13.6594,279.175L 13.6594,186.853L 13.9647,183.96 Z "/>
	<g>
		<rect x="619.414" y="242.328" fill="#FFFFFF" fill-opacity="1" stroke-width="1.28" stroke-linejoin="round" width="18.3506" height="18.3506"/>
		<text transform="matrix(1.0000000000000000 0.0000000000000000 0.0000000000000000 1.0000000000000000 620.00 255.00)" xml:space="preserve">
			<tspan style=" font-family:Arial; font-size:11.000000pt;" letter-spacing="0.00em" fill="#000000" fill-opacity="1" stroke-width="0.32" stroke-linejoin="round">qk</tspan>
		</text>
	</g>
	<ellipse fill="none" stroke-width="0.64" stroke-linejoin="round" stroke="#2B2B2B" stroke-opacity="1" cx="580.124" cy="186.149" rx="70.2539" ry="70.2539"/>
	<line fill="none" stroke-width="0.64" stroke-linejoin="round" stroke="#2B2B2B" stroke-opacity="1" x1="509.454" y1="73.2898" x2="509.454" y2="285.801"/>
	<ellipse fill="none" stroke-width="0.64" stroke-linejoin="round" stroke="#2B2B2B" stroke-opacity="1" cx="104.919" cy="186.397" rx="90.9862" ry="90.9861"/>
	<line fill="none" stroke-width="0.64" stroke-linejoin="round" stroke="#000000" stroke-opacity="1" x1="106.821" y1="188.1" x2="103.105" y2="184.383"/>
	<line fill="none" stroke-width="0.64" stroke-linejoin="round" stroke="#000000" stroke-opacity="1" x1="103.107" y1="188.098" x2="106.823" y2="184.382"/>
	<line fill="none" stroke-width="0.64" stroke-linejoin="round" stroke="#2B2B2B" stroke-opacity="1" x1="13.9688" y1="73.2896" x2="13.9679" y2="285.801"/>
	<line fill="none" stroke-width="0.64" stroke-linejoin="round" stroke="#000000" stroke-opacity="1" x1="105.025" y1="186.288" x2="13.8597" y2="186.288"/>
	<path fill="#000000" fill-opacity="1" stroke-width="0.32" stroke-linejoin="round" d="M 17.7082,188.509L 17.6991,184.153L 13.9309,186.339L 17.7082,188.509 Z "/>
	<line fill="none" stroke-width="0.64" stroke-linejoin="round" stroke="#2B2B2B" stroke-opacity="1" x1="650.474" y1="73.3108" x2="650.474" y2="285.822"/>
	<line fill="none" stroke-width="0.64" stroke-linejoin="round" stroke="#2B2B2B" stroke-opacity="1" x1="582.285" y1="188.237" x2="578.569" y2="184.521"/>
	<line fill="none" stroke-width="0.64" stroke-linejoin="round" stroke="#2B2B2B" stroke-opacity="1" x1="578.57" y1="188.237" x2="582.286" y2="184.521"/>
	<path fill="none" stroke-width="1.28" stroke-linejoin="round" stroke="#000000" stroke-opacity="1" d="M 111.671,24.0089C 122.229,26.8577 124.726,37.6966 124.726,37.6965C 124.726,37.6965 144.513,86.3435 92.1883,96.3861C 85.3937,97.6902 86.9036,98.9255 90.564,98.7883"/>
	<path fill="#FFFFFF" fill-opacity="1" stroke-width="0.64" stroke-linejoin="round" stroke="#000000" stroke-opacity="1" d="M 133.031,49.191L 127.915,28.0187L 123.232,33.466L 116.134,35.446L 133.031,49.191 Z "/>
	<path fill="#000000" fill-opacity="1" stroke-width="0.32" stroke-linejoin="round" d="M 649.853,227.461L 649.857,222.127L 651.137,222.128L 651.133,227.462L 649.853,227.461 Z M 649.861,216.794L 649.865,211.461L 651.145,211.462L 651.141,216.795L 649.861,216.794 Z M 649.869,206.127L 649.873,200.794L 651.153,200.795L 651.149,206.128L 649.869,206.127 Z M 649.878,195.461L 649.882,190.127L 651.162,190.128L 651.157,195.462L 649.878,195.461 Z M 649.886,184.794L 649.887,183.157L 649.898,183.032L 649.934,182.911L 649.994,182.801L 650.075,182.704L 650.171,182.624L 650.281,182.564L 650.402,182.528L 650.527,182.517L 649.833,182.49L 649.607,180.462L 649.472,179.568L 650.741,179.404L 650.877,180.298L 651.108,182.375L 650.527,183.797L 651.167,183.158L 651.166,184.795L 649.886,184.794 Z M 648.539,174.346L 648.306,173.176L 647.291,169.195L 648.539,168.914L 649.555,172.895L 649.801,174.128L 648.539,174.346 Z M 645.725,164.137L 645.302,162.82L 643.847,159.192L 645.052,158.761L 646.507,162.389L 646.956,163.785L 645.725,164.137 Z M 641.667,154.383L 639.919,150.878L 639.201,149.722L 640.32,149.101L 641.038,150.256L 642.836,153.861L 641.667,154.383 Z M 636.385,145.193L 636.125,144.773L 633.187,141.008L 634.238,140.278L 637.176,144.044L 637.504,144.571L 636.385,145.193 Z M 629.727,137.057L 625.968,133.274L 626.93,132.43L 630.689,136.214L 629.727,137.057 Z M 621.817,130.055L 619.321,128.127L 617.503,127.091L 618.215,126.027L 620.033,127.064L 622.667,129.097L 621.817,130.055 Z M 612.871,124.448L 611.627,123.739L 608.082,122.341L 608.636,121.187L 612.181,122.585L 613.582,123.384L 612.871,124.448 Z M 603.12,120.384L 602.737,120.233L 598.04,119.107L 598.425,117.886L 603.122,119.012L 603.675,119.23L 603.12,120.384 Z M 592.854,117.863L 592.56,117.793L 587.642,117.287L 587.857,116.025L 592.775,116.531L 593.239,116.642L 592.854,117.863 Z M 582.337,116.741L 581.008,116.605L 581.06,115.326L 582.551,115.48L 582.337,116.741 Z M 649.845,238.127L 649.849,232.794L 651.129,232.795L 651.125,238.128L 649.845,238.127 Z "/>
	<path fill="#000000" fill-opacity="1" stroke-width="0.32" stroke-linejoin="round" d="M 508.687,275.435L 508.699,270.102L 509.979,270.105L 509.967,275.438L 508.687,275.435 Z M 508.711,264.768L 508.723,259.435L 510.003,259.438L 509.991,264.771L 508.711,264.768 Z M 508.735,254.102L 508.747,248.768L 510.027,248.771L 510.015,254.105L 508.735,254.102 Z M 508.759,243.435L 508.771,238.102L 510.052,238.105L 510.039,243.438L 508.759,243.435 Z M 508.784,232.768L 508.796,227.435L 510.076,227.438L 510.064,232.771L 508.784,232.768 Z M 508.808,222.102L 508.82,216.768L 510.1,216.771L 510.088,222.105L 508.808,222.102 Z M 508.832,211.435L 508.844,206.102L 510.124,206.105L 510.112,211.438L 508.832,211.435 Z M 508.856,200.768L 508.868,195.435L 510.148,195.438L 510.136,200.771L 508.856,200.768 Z M 508.88,190.102L 508.889,186.194L 508.9,186.069L 508.936,185.949L 508.996,185.839L 509.077,185.743L 509.173,185.662L 509.284,185.603L 509.404,185.566L 509.529,185.556L 508.934,185.382L 508.991,184.73L 510.268,184.817L 510.211,185.469L 509.529,186.836L 510.169,186.197L 510.16,190.105L 508.88,190.102 Z M 509.635,179.385L 510.349,175.333L 510.632,174.115L 511.886,174.367L 511.604,175.586L 510.901,179.575L 509.635,179.385 Z M 511.918,168.903L 513.313,164.217L 513.485,163.761L 514.699,164.168L 514.527,164.623L 513.156,169.227L 511.918,168.903 Z M 515.368,158.772L 515.687,157.927L 517.612,153.882L 518.79,154.38L 516.866,158.426L 516.582,159.178L 515.368,158.772 Z M 520.151,149.134L 522.703,144.877L 522.967,144.53L 524.029,145.244L 523.765,145.591L 521.281,149.736L 520.151,149.134 Z M 526.193,140.283L 527.537,138.515L 529.764,136.235L 530.736,137.069L 528.509,139.348L 527.256,140.998L 526.193,140.283 Z M 533.571,132.385L 537.782,129.112L 538.637,130.064L 534.426,133.337L 533.571,132.385 Z M 542.24,126.046L 546.88,123.416L 547.592,124.48L 542.952,127.11L 542.24,126.046 Z M 551.827,121.217L 556.804,119.299L 557.352,120.456L 552.375,122.373L 551.827,121.217 Z M 562.046,117.931L 567.247,116.752L 567.62,117.976L 562.418,119.156L 562.046,117.931 Z M 572.617,116.073L 577.931,115.609L 578.128,116.874L 572.814,117.337L 572.617,116.073 Z M 508.663,286.102L 508.675,280.768L 509.955,280.771L 509.943,286.104L 508.663,286.102 Z "/>
	<g>
		<rect x="5.0389" y="90.1045" fill="#FFFFFF" fill-opacity="1" stroke-width="1.28" stroke-linejoin="round" width="18.3507" height="18.3506"/>
		<text transform="matrix(1.0000000000000000 0.0000000000000000 0.0000000000000000 1.0000000000000000 6.00 104.00)" xml:space="preserve">
			<tspan style=" font-family:Arial; font-size:11.000000pt;" letter-spacing="0.00em" fill="#000000" fill-opacity="1" stroke-width="0.32" stroke-linejoin="round">V2</tspan>
		</text>
	</g>
	<g>
		<rect x="131.706" y="92.232" fill="#FFFFFF" fill-opacity="1" stroke-width="1.28" stroke-linejoin="round" width="18.3507" height="18.3507"/>
		<text transform="matrix(1.0000000000000000 0.0000000000000000 0.0000000000000000 1.0000000000000000 134.00 105.00)" xml:space="preserve">
			<tspan style=" font-family:Arial; font-size:11.000000pt;" letter-spacing="0.00em" fill="#000000" fill-opacity="1" stroke-width="0.32" stroke-linejoin="round">V1</tspan>
		</text>
	</g>
	<g>
		<rect x="642.1" y="90.1045" fill="#FFFFFF" fill-opacity="1" stroke-width="1.28" stroke-linejoin="round" width="18.3506" height="18.3506"/>
		<text transform="matrix(1.0000000000000000 0.0000000000000000 0.0000000000000000 1.0000000000000000 642.00 104.00)" xml:space="preserve">
			<tspan style=" font-family:Arial; font-size:11.000000pt;" letter-spacing="0.00em" fill="#000000" fill-opacity="1" stroke-width="0.32" stroke-linejoin="round">V4</tspan>
		</text>
	</g>
	<rect x="620.314" y="128.002" fill="#FFFFFF" fill-opacity="1" stroke-width="1.28" stroke-linejoin="round" width="18.3506" height="18.3506"/>
	<text transform="matrix(1.0000000000000000 0.0000000000000000 0.0000000000000000 1.0000000000000000 623.00 141.00)" xml:space="preserve">
		<tspan style=" font-family:Arial; font-size:11.000000pt;" letter-spacing="0.00em" fill="#000000" fill-opacity="1" stroke-width="0.32" stroke-linejoin="round">V5</tspan>
	</text>
	<g>
		<path fill="#FFFFFF" fill-opacity="1" stroke-width="1.28" stroke-linejoin="round" d="M 74.6849,276.855L 56.3342,276.855L 56.3073,294.584L 74.7009,294.584L 74.6849,276.855 Z "/>
		<text transform="matrix(1.0000000000000000 0.0000000000000000 0.0000000000000000 1.0000000000000000 59.00 290.00)" xml:space="preserve">
			<tspan style=" font-family:Arial; font-size:11.000000pt;" letter-spacing="0.00em" fill="#000000" fill-opacity="1" stroke-width="0.32" stroke-linejoin="round">c4</tspan>
		</text>
	</g>
	<g>
		<rect x="63.5996" y="177.229" fill="#FFFFFF" fill-opacity="1" stroke-width="1.28" stroke-linejoin="round" width="18.3507" height="18.3506"/>
		<text transform="matrix(1.0000000000000000 0.0000000000000000 0.0000000000000000 1.0000000000000000 67.00 190.00)" xml:space="preserve">
			<tspan style=" font-family:Arial; font-size:11.000000pt;" letter-spacing="0.00em" fill="#000000" fill-opacity="1" stroke-width="0.32" stroke-linejoin="round">c1</tspan>
		</text>
	</g>
	<line fill="none" stroke-width="1.6" stroke-linejoin="round" x1="123.807" y1="37.1083" x2="131.977" y2="92.5997"/>
	<line fill="none" stroke-width="0.64" stroke-linejoin="round" stroke="#000000" stroke-opacity="1" x1="125.707" y1="37.296" x2="111.763" y2="71.386"/>
	<line fill="none" stroke-width="0.64" stroke-linejoin="round" stroke="#000000" stroke-opacity="1" x1="125.566" y1="37.6165" x2="132.065" y2="4.09733"/>
	<path fill="#000000" fill-opacity="1" stroke-width="0.32" stroke-linejoin="round" d="M 114.471,70.587L 110.495,68.8045L 110.939,73.1382L 114.471,70.587 Z "/>
	<path fill="#000000" fill-opacity="1" stroke-width="0.32" stroke-linejoin="round" d="M 129.876,3.9152L 134.111,4.9362L 132.878,0.757973L 129.876,3.9152 Z "/>
	<line fill="none" stroke-width="0.64" stroke-linejoin="round" stroke="#000000" stroke-opacity="1" x1="125.66" y1="37.5632" x2="151.309" y2="63.2544"/>
	<path fill="#000000" fill-opacity="1" stroke-width="0.32" stroke-linejoin="round" d="M 151.193,60.2737L 148.404,63.6206L 152.697,64.3622L 151.193,60.2737 Z "/>
	<text transform="matrix(1.0000000000000000 0.0000000000000000 0.0000000000000000 1.0000000000000000 139.00 10.00)" xml:space="preserve">
		<tspan style=" font-family:Arial; font-size:11.000000pt;" letter-spacing="0.00em" fill="#000000" fill-opacity="1" stroke-width="0.32" stroke-linejoin="round">P</tspan>
	</text>
	<text transform="matrix(1.0000000000000000 0.0000000000000000 0.0000000000000000 1.0000000000000000 155.00 62.00)" xml:space="preserve">
		<tspan style=" font-family:Arial; font-size:11.000000pt;" letter-spacing="0.00em" fill="#000000" fill-opacity="1" stroke-width="0.32" stroke-linejoin="round">p</tspan>
	</text>
	<text transform="matrix(1.0000000000000000 0.0000000000000000 0.0000000000000000 1.0000000000000000 95.00 69.00)" xml:space="preserve">
		<tspan style=" font-family:Arial; font-size:11.000000pt;" letter-spacing="0.00em" fill="#000000" fill-opacity="1" stroke-width="0.32" stroke-linejoin="round">pd</tspan>
	</text>
	<path fill="#000000" fill-opacity="1" stroke-width="0.32" stroke-linejoin="round" d="M 13.7674,274.957L 13.7902,269.623L 15.0702,269.629L 15.0474,274.962L 13.7674,274.957 Z M 13.8129,264.29L 13.8357,258.957L 15.1157,258.962L 15.0929,264.296L 13.8129,264.29 Z M 13.8584,253.624L 13.8812,248.29L 15.1612,248.296L 15.1384,253.629L 13.8584,253.624 Z M 13.904,242.957L 13.9267,237.624L 15.2067,237.629L 15.1839,242.962L 13.904,242.957 Z M 13.9495,232.29L 13.9722,226.957L 15.2522,226.963L 15.2295,232.296L 13.9495,232.29 Z M 13.995,221.624L 14.0177,216.291L 15.2977,216.296L 15.275,221.629L 13.995,221.624 Z M 14.0405,210.957L 14.0633,205.624L 15.3433,205.629L 15.3205,210.963L 14.0405,210.957 Z M 14.086,200.291L 14.1088,194.957L 15.3888,194.963L 15.366,200.296L 14.086,200.291 Z M 14.1315,189.624L 14.1543,184.291L 15.4343,184.296L 15.4115,189.63L 14.1315,189.624 Z M 14.1771,178.958L 14.1998,173.624L 15.4798,173.63L 15.457,178.963L 14.1771,178.958 Z M 15.2351,168.266L 15.6069,166.705L 16.6364,163.093L 17.8754,163.415L 16.8459,167.027L 16.4863,168.535L 15.2351,168.266 Z M 18.3154,158.001L 18.7197,156.809L 20.2561,152.998L 21.457,153.441L 19.9206,157.252L 19.538,158.38L 18.3154,158.001 Z M 22.4367,148.092L 24.2898,144.225L 24.8295,143.28L 25.9643,143.872L 25.4246,144.817L 23.609,148.606L 22.4367,148.092 Z M 27.4744,138.648L 28.1882,137.398L 30.4155,134.145L 31.5017,134.822L 29.2744,138.076L 28.6092,139.241L 27.4744,138.648 Z M 33.5276,129.75L 36.9294,125.642L 37.9531,126.411L 34.5514,130.518L 33.5276,129.75 Z M 40.5782,121.678L 44.3785,117.936L 45.3235,118.799L 41.5232,122.541L 40.5782,121.678 Z M 48.5323,114.492L 52.7233,111.194L 53.5713,112.153L 49.3803,115.451L 48.5323,114.492 Z M 57.3143,108.342L 61.8881,105.549L 61.9356,105.528L 62.5352,106.659L 62.4878,106.68L 58.0466,109.392L 57.3143,108.342 Z M 66.7954,103.331L 71.6553,101.134L 72.2549,102.265L 67.3951,104.462L 66.7954,103.331 Z M 76.8106,99.4923L 81.9064,97.9183L 82.3606,99.115L 77.2648,100.689L 76.8106,99.4923 Z M 87.1891,96.7779L 92.439,95.8384L 92.7414,97.0823L 87.4915,98.0217L 87.1891,96.7779 Z M 13.7219,285.623L 13.7446,280.29L 15.0246,280.296L 15.0019,285.629L 13.7219,285.623 Z "/>
	<g>
		<path fill="#FFFFFF" fill-opacity="1" stroke-width="1.28" stroke-linejoin="round" d="M 18.4001,276.855L 0.0494461,276.855L -7.62939e-006,294.653L 18.3935,294.607L 18.4001,276.855 Z "/>
		<text transform="matrix(1.0000000000000000 0.0000000000000000 0.0000000000000000 1.0000000000000000 1.00 290.00)" xml:space="preserve">
			<tspan style=" font-family:Arial; font-size:11.000000pt;" letter-spacing="0.00em" fill="#000000" fill-opacity="1" stroke-width="0.32" stroke-linejoin="round">c4</tspan>
		</text>
	</g>
	<path fill="#9B9B9B" fill-opacity="1" stroke-width="0.64" stroke-linejoin="round" stroke="#000000" stroke-opacity="1" d="M 78.8565,99.5975L 100.609,100.727L 94.9092,95.5381L 96.8474,87.3183L 78.8565,99.5975 Z "/>
	<text transform="matrix(1.0000000000000000 0.0000000000000000 0.0000000000000000 1.0000000000000000 69.00 90.00)" xml:space="preserve">
		<tspan style=" font-family:Arial; font-size:11.000000pt;" letter-spacing="0.00em" fill="#000000" fill-opacity="1" stroke-width="0.32" stroke-linejoin="round">qk</tspan>
	</text>
	<line fill="none" stroke-width="0.64" stroke-linejoin="round" stroke="#000000" stroke-opacity="1" x1="20.5406" y1="19.8713" x2="20.5406" y2="53.4287"/>
	<line fill="none" stroke-width="0.64" stroke-linejoin="round" stroke="#000000" stroke-opacity="1" x1="53.8679" y1="53.1566" x2="20.3106" y2="53.1566"/>
	<path fill="#000000" fill-opacity="1" stroke-width="0.32" stroke-linejoin="round" d="M 18.3828,21.8386L 22.7392,21.8294L 20.5531,18.0613L 18.3828,21.8386 Z "/>
	<path fill="#000000" fill-opacity="1" stroke-width="0.32" stroke-linejoin="round" d="M 51.5469,50.9654L 51.5561,55.3218L 55.3242,53.1357L 51.5469,50.9654 Z "/>
	<text transform="matrix(1.0000000000000000 0.0000000000000000 0.0000000000000000 1.0000000000000000 4.00 64.00)" xml:space="preserve">
		<tspan style=" font-family:Arial; font-size:11.000000pt;" letter-spacing="0.00em" fill="#000000" fill-opacity="1" stroke-width="0.32" stroke-linejoin="round">Ow</tspan>
	</text>
	<line fill="none" stroke-width="0.64" stroke-linejoin="round" stroke="#000000" stroke-opacity="1" x1="20.6007" y1="53.0016" x2="124.961" y2="37.6445"/>
	<path fill="#000000" fill-opacity="1" stroke-width="0.32" stroke-linejoin="round" d="M 121.675,36.3115L 122.426,40.4067L 125.75,37.1641L 121.675,36.3115 Z "/>
	<g>
		<rect x="71.5125" y="32.713" fill="#FFFFFF" fill-opacity="1" stroke-width="1.28" stroke-linejoin="round" width="18.3507" height="18.3507"/>
		<text transform="matrix(1.0000000000000000 0.0000000000000000 0.0000000000000000 1.0000000000000000 78.00 46.00)" xml:space="preserve">
			<tspan style=" font-family:Arial; font-size:11.000000pt;" letter-spacing="0.00em" fill="#000000" fill-opacity="1" stroke-width="0.32" stroke-linejoin="round">p</tspan>
		</text>
	</g>
	<line fill="none" stroke-width="0.64" stroke-linejoin="round" stroke="#000000" stroke-opacity="1" x1="49.1012" y1="11.6586" x2="74.4194" y2="11.6586"/>
	<path fill="#000000" fill-opacity="1" stroke-width="0.32" stroke-linejoin="round" d="M 73.4999,9.55534L 73.509,13.9118L 77.2772,11.7257L 73.4999,9.55534 Z "/>
	<text transform="matrix(1.0000000000000000 0.0000000000000000 0.0000000000000000 1.0000000000000000 55.00 8.00)" xml:space="preserve">
		<tspan style=" font-family:Arial; font-size:11.000000pt;" letter-spacing="0.00em" fill="#000000" fill-opacity="1" stroke-width="0.32" stroke-linejoin="round">w</tspan>
	</text>
	<line fill="none" stroke-width="0.64" stroke-linejoin="round" stroke="#000000" stroke-opacity="1" x1="79.337" y1="99.4646" x2="94.7654" y2="95.5367"/>
	<line fill="none" stroke-width="0.64" stroke-linejoin="round" stroke="#000000" stroke-opacity="1" x1="123.215" y1="33.4678" x2="132.893" y2="49.0533"/>
	<path fill="#DEDEDE" fill-opacity="1" fill-rule="evenodd" stroke-width="1.6" stroke-linejoin="round" d="M 289.717,100.663C 298.311,97.7842 307.114,95.7784 316.638,95.6106L 316.638,142.865C 294.065,143.695 275.86,161.625 274.595,184.083L 274.614,202.695L 274.595,203.117L 274.595,203.544C 274.615,204.618 274.77,205.734 274.74,206.789L 274.748,206.8L 274.748,209.411L 274.595,268.54L 274.595,279.179L 274.568,279.179L 274.567,279.39L 274.552,280.584L 274.637,286.024L 248.411,286.03C 248.822,256.507 247.349,214.504 248.614,187.036C 249.231,173.621 252.208,163.346 253.08,160.314C 256.352,148.938 254.017,115.418 289.06,100.913L 289.717,100.663 Z "/>
	<ellipse fill="none" stroke-width="0.64" stroke-linejoin="round" stroke="#989898" stroke-opacity="1" cx="318.248" cy="186.419" rx="90.9862" ry="90.9862"/>
	<line fill="none" stroke-width="0.64" stroke-linejoin="round" stroke="#000000" stroke-opacity="1" x1="320.149" y1="188.122" x2="316.433" y2="184.405"/>
	<line fill="none" stroke-width="0.64" stroke-linejoin="round" stroke="#000000" stroke-opacity="1" x1="316.435" y1="188.119" x2="320.151" y2="184.403"/>
	<ellipse fill="none" stroke-width="0.64" stroke-linejoin="round" stroke="#2B2B2B" stroke-opacity="1" cx="319.041" cy="186.741" rx="70.2539" ry="70.2539"/>
	<line fill="none" stroke-width="0.64" stroke-linejoin="round" stroke="#4D4D4D" stroke-opacity="1" x1="248.745" y1="73.3113" x2="248.744" y2="285.823"/>
	<line fill="none" stroke-width="0.64" stroke-linejoin="round" stroke="#000000" stroke-opacity="1" x1="384.135" y1="211.524" x2="318.541" y2="186.367"/>
	<path fill="#000000" fill-opacity="1" stroke-width="0.32" stroke-linejoin="round" d="M 381.815,208.257L 380.285,212.335L 384.582,211.621L 381.815,208.257 Z "/>
	<path fill="none" stroke-width="1.28" stroke-linejoin="round" stroke="#000000" stroke-opacity="1" d="M 324.999,24.0306C 335.557,26.8794 338.055,37.7182 338.055,37.7182C 338.055,37.7182 358.058,86.4465 305.669,96.1422C 253.279,105.838 256.807,147.391 253.087,160.325C 249.241,173.696 248.655,186.181 248.655,186.181L 248.676,186.572L 248.736,187.231"/>
	<path fill="#FFFFFF" fill-opacity="1" stroke-width="0.64" stroke-linejoin="round" stroke="#000000" stroke-opacity="1" d="M 346.359,49.2125L 341.243,28.0401L 336.56,33.4875L 329.462,35.4675L 346.359,49.2125 Z "/>
	<path fill="#9B9B9B" fill-opacity="1" stroke-width="0.64" stroke-linejoin="round" stroke="#000000" stroke-opacity="1" d="M 249.371,176.499L 261.152,158.178L 253.456,159.303L 247.644,154.786L 249.371,176.499 Z "/>
	<path fill="#000000" fill-opacity="1" stroke-width="0.32" stroke-linejoin="round" d="M 248.027,275.688L 248.027,270.354L 249.307,270.354L 249.307,275.688L 248.027,275.688 Z M 248.027,265.021L 248.027,259.688L 249.307,259.688L 249.307,265.021L 248.027,265.021 Z M 248.027,254.354L 248.027,249.021L 249.307,249.021L 249.307,254.354L 248.027,254.354 Z M 248.027,243.688L 248.027,238.354L 249.307,238.354L 249.307,243.688L 248.027,243.688 Z M 248.027,233.021L 248.027,227.688L 249.307,227.688L 249.307,233.021L 248.027,233.021 Z M 248.027,222.354L 248.027,217.021L 249.307,217.021L 249.307,222.354L 248.027,222.354 Z M 248.027,211.688L 248.027,206.354L 249.307,206.354L 249.307,211.688L 248.027,211.688 Z M 248.027,201.021L 248.027,195.688L 249.307,195.688L 249.307,201.021L 248.027,201.021 Z M 248.027,190.354L 248.027,186.756L 249.307,186.756L 249.307,190.354L 248.027,190.354 Z M 248.027,286.354L 248.027,281.021L 249.307,281.021L 249.307,286.354L 248.027,286.354 Z "/>
	<g>
		<rect x="239.815" y="90.1262" fill="#FFFFFF" fill-opacity="1" stroke-width="1.28" stroke-linejoin="round" width="18.3507" height="18.3507"/>
		<text transform="matrix(1.0000000000000000 0.0000000000000000 0.0000000000000000 1.0000000000000000 239.00 103.00)" xml:space="preserve">
			<tspan style=" font-family:Arial; font-size:11.000000pt;" letter-spacing="0.00em" fill="#000000" fill-opacity="1" stroke-width="0.32" stroke-linejoin="round">V2</tspan>
		</text>
	</g>
	<g>
		<path fill="#FFFFFF" fill-opacity="1" stroke-width="1.28" stroke-linejoin="round" d="M 252.266,276.853L 233.916,276.853L 233.866,294.652L 252.26,294.606L 252.266,276.853 Z "/>
		<text transform="matrix(1.0000000000000000 0.0000000000000000 0.0000000000000000 1.0000000000000000 235.00 290.00)" xml:space="preserve">
			<tspan style=" font-family:Arial; font-size:11.000000pt;" letter-spacing="0.00em" fill="#000000" fill-opacity="1" stroke-width="0.32" stroke-linejoin="round">c4</tspan>
		</text>
	</g>
	<g>
		<rect x="339.097" y="188.077" fill="#FFFFFF" fill-opacity="1" stroke-width="1.28" stroke-linejoin="round" width="18.3506" height="18.3506"/>
		<text transform="matrix(1.0000000000000000 0.0000000000000000 0.0000000000000000 1.0000000000000000 341.00 200.00)" xml:space="preserve">
			<tspan style=" font-family:Arial; font-size:11.000000pt;" letter-spacing="0.00em" fill="#000000" fill-opacity="1" stroke-width="0.32" stroke-linejoin="round">c</tspan>
			<tspan style=" font-family:Arial; font-size:11.000000pt;" letter-spacing="0.00em" fill="#000000" fill-opacity="1" stroke-width="1.28" stroke-linejoin="round">2</tspan>
		</text>
	</g>
	<line fill="none" stroke-width="1.6" stroke-linejoin="round" x1="337.135" y1="37.13" x2="345.305" y2="92.6214"/>
	<path fill="#FFFFFF" fill-opacity="1" stroke-width="0.64" stroke-linejoin="round" stroke="#000000" stroke-opacity="1" d="M 292.185,99.6189L 313.938,100.749L 308.238,95.5595L 310.176,87.3398L 292.185,99.6189 Z "/>
	<g>
		<rect x="266.199" y="150.181" fill="#FFFFFF" fill-opacity="1" stroke-width="1.28" stroke-linejoin="round" width="18.3506" height="18.3506"/>
		<text transform="matrix(1.0000000000000000 0.0000000000000000 0.0000000000000000 1.0000000000000000 267.00 163.00)" xml:space="preserve">
			<tspan style=" font-family:Arial; font-size:11.000000pt;" letter-spacing="0.00em" fill="#000000" fill-opacity="1" stroke-width="0.32" stroke-linejoin="round">qk</tspan>
		</text>
	</g>
	<g>
		<rect x="280.611" y="75.5361" fill="#FFFFFF" fill-opacity="1" stroke-width="1.28" stroke-linejoin="round" width="18.3507" height="18.3506"/>
		<text transform="matrix(1.0000000000000000 0.0000000000000000 0.0000000000000000 1.0000000000000000 287.00 88.00)" xml:space="preserve">
			<tspan style=" font-family:Arial; font-size:11.000000pt;" letter-spacing="0.00em" fill="#000000" fill-opacity="1" stroke-width="0.32" stroke-linejoin="round">p</tspan>
		</text>
	</g>
	<line fill="none" stroke-width="0.64" stroke-linejoin="round" stroke="#000000" stroke-opacity="1" x1="292.665" y1="99.4862" x2="308.094" y2="95.5584"/>
	<line fill="none" stroke-width="0.64" stroke-linejoin="round" stroke="#000000" stroke-opacity="1" x1="249.628" y1="175.55" x2="253.399" y2="159.398"/>
	<line fill="none" stroke-width="0.64" stroke-linejoin="round" stroke="#000000" stroke-opacity="1" x1="336.544" y1="33.4895" x2="346.222" y2="49.0749"/>
	<g>
		<rect x="300.497" y="247.947" fill="#FFFFFF" fill-opacity="1" stroke-width="1.28" stroke-linejoin="round" width="18.3506" height="18.3506"/>
		<text transform="matrix(1.0000000000000000 0.0000000000000000 0.0000000000000000 1.0000000000000000 303.00 261.00)" xml:space="preserve">
			<tspan style=" font-family:Arial; font-size:11.000000pt;" letter-spacing="0.00em" fill="#000000" fill-opacity="1" stroke-width="0.32" stroke-linejoin="round">V1</tspan>
		</text>
	</g>
	<line fill="none" stroke-width="0.64" stroke-linejoin="round" stroke="#989898" stroke-opacity="1" x1="227.27" y1="73.3362" x2="227.269" y2="285.848"/>
	<g>
		<rect x="469.651" y="150.675" fill="#FFFFFF" fill-opacity="1" stroke-width="1.28" stroke-linejoin="round" width="18.3506" height="18.3508"/>
		<text transform="matrix(1.0000000000000000 0.0000000000000000 0.0000000000000000 1.0000000000000000 476.00 163.00)" xml:space="preserve">
			<tspan style=" font-family:Arial; font-size:11.000000pt;" letter-spacing="0.00em" fill="#000000" fill-opacity="1" stroke-width="0.32" stroke-linejoin="round">p</tspan>
		</text>
	</g>
	<ellipse fill="none" stroke-width="0.64" stroke-linejoin="round" stroke="#989898" stroke-opacity="1" cx="525.283" cy="186.398" rx="90.9862" ry="90.9862"/>
	<line fill="none" stroke-width="0.64" stroke-linejoin="round" stroke="#989898" stroke-opacity="1" x1="527.185" y1="188.1" x2="523.469" y2="184.383"/>
	<line fill="none" stroke-width="0.64" stroke-linejoin="round" stroke="#989898" stroke-opacity="1" x1="523.471" y1="188.098" x2="527.187" y2="184.383"/>
	<ellipse fill="none" stroke-width="0.64" stroke-linejoin="round" stroke="#989898" stroke-opacity="1" cx="526.077" cy="186.72" rx="70.2539" ry="70.2539"/>
	<line fill="none" stroke-width="0.64" stroke-linejoin="round" stroke="#989898" stroke-opacity="1" x1="455.78" y1="73.2903" x2="455.779" y2="285.802"/>
	<path fill="none" stroke-width="1.28" stroke-linejoin="round" stroke="#000000" stroke-opacity="1" d="M 532.035,24.0094C 542.592,26.8583 545.09,37.6971 545.09,37.6971C 545.09,37.6971 565.094,86.4253 512.704,96.1211C 460.315,105.817 463.842,147.37 460.122,160.304C 456.277,173.674 455.69,186.16 455.69,186.16L 455.711,186.55L 455.772,187.21"/>
	<path fill="#FFFFFF" fill-opacity="1" stroke-width="0.64" stroke-linejoin="round" stroke="#000000" stroke-opacity="1" d="M 456.406,176.478L 468.187,158.158L 460.492,159.282L 454.68,154.765L 456.406,176.478 Z "/>
	<line fill="none" stroke-width="1.28" stroke-linejoin="round" stroke="#000000" stroke-opacity="1" x1="455.703" y1="286.333" x2="455.703" y2="186.735"/>
	<g>
		<rect x="498.76" y="227.181" fill="#FFFFFF" fill-opacity="1" stroke-width="1.28" stroke-linejoin="round" width="18.3506" height="18.3507"/>
		<text transform="matrix(1.0000000000000000 0.0000000000000000 0.0000000000000000 1.0000000000000000 497.00 241.00)" xml:space="preserve">
			<tspan style=" font-family:Arial; font-size:11.000000pt;" letter-spacing="0.00em" fill="#000000" fill-opacity="1" stroke-width="0.32" stroke-linejoin="round">V6</tspan>
		</text>
	</g>
	<line fill="none" stroke-width="0.64" stroke-linejoin="round" stroke="#000000" stroke-opacity="1" x1="456.664" y1="175.529" x2="460.434" y2="159.377"/>
	<path fill="#FFFFFF" fill-opacity="1" stroke-width="0.64" stroke-linejoin="round" stroke="#000000" stroke-opacity="1" d="M 553.411,49.1816L 548.295,28.0093L 543.612,33.4566L 536.514,35.4366L 553.411,49.1816 Z "/>
	<path fill="#FFFFFF" fill-opacity="1" stroke-width="0.64" stroke-linejoin="round" stroke="#000000" stroke-opacity="1" d="M 499.237,99.588L 520.99,100.718L 515.29,95.5286L 517.228,87.3089L 499.237,99.588 Z "/>
	<line fill="none" stroke-width="0.64" stroke-linejoin="round" stroke="#000000" stroke-opacity="1" x1="499.718" y1="99.4553" x2="515.146" y2="95.5274"/>
	<line fill="none" stroke-width="0.64" stroke-linejoin="round" stroke="#000000" stroke-opacity="1" x1="543.596" y1="33.4585" x2="553.274" y2="49.044"/>
	<line fill="none" stroke-width="1.28" stroke-linejoin="round" stroke="#000000" stroke-opacity="1" x1="650.495" y1="286.026" x2="650.495" y2="232.892"/>
	<path fill="#9B9B9B" fill-opacity="1" stroke-width="0.64" stroke-linejoin="round" stroke="#000000" stroke-opacity="1" d="M 650.478,230.537L 643.231,251.078L 650.461,248.212L 657.156,251.27L 650.478,230.537 Z "/>
	<line fill="none" stroke-width="0.64" stroke-linejoin="round" stroke="#000000" stroke-opacity="1" x1="650.446" y1="231.521" x2="650.495" y2="248.107"/>
	<g>
		<path fill="none" stroke-width="0.32" stroke-linejoin="round" stroke="#000000" stroke-opacity="1" d="M 399.767,7.20683C 401.183,7.58903 401.518,9.04288 401.518,9.04288C 401.518,9.04288 402.094,12.4183 395.066,13.7188C 388.039,15.0194 388.512,20.5935 388.013,22.3285C 387.497,24.1219 387.418,25.7967 387.418,25.7967L 387.421,25.8492L 387.429,25.9377L 387.425,25.8772L 387.42,39.6946L 387.418,49.7701C 387.418,49.7701 387.519,61.4875 400.569,62.5164C 400.569,62.5164 412.933,62.7412 413.472,48.9824L 413.547,39.6527L 413.553,25.3941C 413.553,25.3941 413.091,16.7456 404.257,16.386"/>
		<path fill="none" stroke-width="0.32" stroke-linejoin="round" stroke="#000000" stroke-opacity="1" d="M 435.418,37.1551L 435.238,51.0263C 433.366,62.8615 422.369,62.5525 422.369,62.5525C 408.864,61.7432 409.102,48.9385 409.102,48.9385L 409.119,35.3108L 409.114,26.0234C 409.417,23.4607 409.923,20.9991 412.722,18.5038C 415.521,16.0085 419.323,16.4739 419.323,16.4739C 428.046,17.4631 427.978,25.5897 427.978,25.5897L 427.978,35.7046L 427.995,49.4532C 426.983,62.4693 415.35,62.6042 415.35,62.6042C 401.895,62.1321 401.726,49.3843 401.726,49.3843L 401.792,31.4778L 401.792,25.0708L 402.309,22.9906C 404.287,16.2915 411.323,16.3589 411.323,16.3589C 420.934,17.0786 420.789,25.8915 420.789,25.8915L 420.789,33.2313L 420.722,44.7799L 420.722,49.6354C 419.811,62.7351 407.848,62.544 407.848,62.544C 407.848,62.544 395.508,62.8644 394.618,49.3845L 394.609,39.6637L 394.639,25.8016C 394.639,25.8017 394.954,16.6072 404.234,16.3824"/>
	</g>
	<g>
		<path fill="none" stroke-width="0.32" stroke-linejoin="round" stroke="#000000" stroke-opacity="1" d="M 187.629,7.12553C 189.047,7.50822 189.383,8.96403 189.383,8.96403C 189.383,8.96403 189.959,12.3437 182.922,13.646C 175.886,14.9482 172.829,20.584 172.475,24.99L 172.458,49.3557C 172.458,49.3557 171.919,60.4156 184.209,62.4752C 184.209,62.4752 197.901,63.5429 198.576,49.2074L 198.582,25.6185C 198.582,25.6185 198.772,14.3362 186.326,13.3791"/>
		<path fill="none" stroke-width="0.32" stroke-linejoin="round" stroke="#000000" stroke-opacity="1" d="M 186.35,13.4009L 184.982,13.4712C 177.208,14.5854 174.524,20.5702 174.169,24.9762L 174.144,49.3707C 174.144,49.3707 173.753,60.4 186.043,62.4596C 186.043,62.4596 199.736,63.5273 200.411,49.1917L 200.417,25.6029C 200.417,25.6029 200.611,14.3282 188.165,13.3713"/>
		<path fill="none" stroke-width="0.32" stroke-linejoin="round" stroke="#000000" stroke-opacity="1" d="M 188.173,13.3704L 186.745,13.5428C 178.971,14.657 176.286,20.6417 175.932,25.0477L 175.907,49.4422C 175.907,49.4422 175.516,60.4715 187.806,62.5311C 187.806,62.5311 201.498,63.5989 202.174,49.2633L 202.18,25.6744C 202.18,25.6744 202.382,14.3711 189.936,13.4141"/>
		<path fill="none" stroke-width="0.32" stroke-linejoin="round" stroke="#000000" stroke-opacity="1" d="M 189.939,13.4121L 188.572,13.4825C 180.798,14.5967 178.114,20.5814 177.759,24.9874L 177.734,49.3819C 177.734,49.3819 177.343,60.4112 189.633,62.4708C 189.633,62.4708 203.326,63.5386 204.001,49.203L 204.007,25.6141C 204.007,25.6141 204.197,14.3318 191.751,13.3747"/>
		<path fill="none" stroke-width="0.32" stroke-linejoin="round" stroke="#000000" stroke-opacity="1" d="M 191.763,13.3816L 190.335,13.5539C 182.56,14.6681 179.876,20.6529 179.522,25.0589L 179.496,49.4534C 179.496,49.4534 179.106,60.4827 191.396,62.5423C 191.396,62.5423 205.088,63.61 205.764,49.2745L 205.769,25.6856C 205.769,25.6856 205.844,14.3307 193.398,13.3738"/>
		<path fill="none" stroke-width="0.32" stroke-linejoin="round" stroke="#000000" stroke-opacity="1" d="M 193.415,13.3738L 192.052,13.4562C 184.278,14.5704 181.594,20.5552 181.239,24.9612L 181.214,49.3557C 181.214,49.3557 180.823,60.385 193.113,62.4446C 193.113,62.4446 206.805,63.5122 207.481,49.1767L 207.487,25.5879C 207.487,25.5879 207.676,14.3055 195.23,13.3484"/>
		<path fill="none" stroke-width="0.32" stroke-linejoin="round" stroke="#000000" stroke-opacity="1" d="M 195.234,13.3468L 193.806,13.5191C 186.032,14.6333 183.347,20.6181 182.993,25.0241L 182.968,49.4187C 182.968,49.4187 182.577,60.448 194.867,62.5075C 194.867,62.5075 208.559,63.5752 209.235,49.2397L 209.241,25.6509C 209.241,25.6509 209.43,14.3684 196.984,13.4114"/>
		<path fill="none" stroke-width="0.32" stroke-linejoin="round" stroke="#000000" stroke-opacity="1" d="M 197.001,13.4096L 195.633,13.48C 187.859,14.5942 185.175,20.579 184.82,24.985L 184.795,49.3795C 184.795,49.3795 184.404,60.4088 196.694,62.4684C 196.694,62.4684 210.387,63.5361 211.062,49.2005L 211.068,25.6117C 211.068,25.6117 211.258,14.3293 198.812,13.3723"/>
		<path fill="none" stroke-width="0.32" stroke-linejoin="round" stroke="#000000" stroke-opacity="1" d="M 198.824,13.3791L 197.396,13.5515C 189.622,14.6656 186.937,20.6504 186.583,25.0564L 186.557,49.451C 186.557,49.451 186.184,60.447 198.474,62.5066C 198.474,62.5066 212.149,63.6075 212.825,49.272L 212.83,25.6831C 212.83,25.6831 213.19,14.3757 200.744,13.4187"/>
		<path fill="none" stroke-width="0.32" stroke-linejoin="round" stroke="#000000" stroke-opacity="1" d="M 200.765,13.4176L 199.336,13.5899C 191.562,14.7041 188.878,20.6889 188.524,25.0949L 188.498,49.4895C 188.498,49.4895 188.164,60.4737 200.454,62.5334C 200.454,62.5334 214.09,63.646 214.765,49.3105L 214.771,25.7217C 214.771,25.7217 214.961,14.4392 202.515,13.4822"/>
		<path fill="none" stroke-width="0.32" stroke-linejoin="round" stroke="#000000" stroke-opacity="1" d="M 202.637,13.4803L 201.269,13.5506C 193.495,14.6648 190.811,20.6496 190.456,25.0556L 190.431,49.4502C 190.431,49.4502 190.04,60.4795 202.33,62.539C 202.33,62.539 216.023,63.6067 216.698,49.2712L 216.704,25.6824C 216.704,25.6824 216.902,14.4038 204.456,13.4468"/>
		<path fill="none" stroke-width="0.32" stroke-linejoin="round" stroke="#000000" stroke-opacity="1" d="M 204.467,13.4463L 203.038,13.6187C 195.264,14.7329 192.58,20.7176 192.225,25.1236L 192.2,49.5182C 192.2,49.5182 191.831,60.5257 204.121,62.5854C 204.121,62.5854 217.792,63.6748 218.467,49.3392L 218.473,25.7503C 218.473,25.7503 218.663,14.468 206.217,13.511"/>
		<path fill="none" stroke-width="0.32" stroke-linejoin="round" stroke="#000000" stroke-opacity="1" d="M 206.39,13.5254L 205.022,13.5958C 197.248,14.71 194.564,20.6948 194.209,25.1008L 194.184,49.4953C 194.184,49.4953 193.793,60.5246 206.083,62.5842C 206.083,62.5842 219.776,63.6519 220.451,49.3164L 220.441,37.03"/>
	</g>
	<g>
		<path fill="none" stroke-width="0.32" stroke-linejoin="round" stroke="#000000" stroke-opacity="1" d="M 603.279,7.20683C 604.695,7.58903 605.03,9.04288 605.03,9.04288C 605.03,9.04288 605.606,12.4183 598.578,13.7188C 591.55,15.0194 592.024,20.5935 591.525,22.3285C 591.009,24.1219 590.93,25.7967 590.93,25.7967L 590.933,25.8492L 590.941,25.9377L 590.936,25.8772L 590.932,39.6946L 590.93,49.7701C 590.93,49.7701 591.031,61.4875 604.08,62.5164C 604.08,62.5164 616.444,62.7412 616.984,48.9824L 617.059,39.6527L 617.064,25.3941C 617.064,25.3941 616.603,16.7456 607.768,16.386"/>
		<path fill="none" stroke-width="0.32" stroke-linejoin="round" stroke="#000000" stroke-opacity="1" d="M 638.93,37.1551L 638.75,51.0263C 636.878,62.8615 625.88,62.5525 625.88,62.5525C 612.376,61.7432 612.614,48.9385 612.614,48.9385L 612.63,35.3108L 612.625,26.0234C 612.929,23.4607 613.435,20.9991 616.234,18.5038C 619.032,16.0085 622.835,16.4739 622.835,16.4739C 631.558,17.4631 631.49,25.5897 631.49,25.5897L 631.49,35.7046L 631.507,49.4532C 630.495,62.4693 618.862,62.6042 618.862,62.6042C 605.407,62.1321 605.237,49.3843 605.237,49.3843L 605.304,31.4778L 605.304,25.0708L 605.82,22.9906C 607.799,16.2915 614.835,16.3589 614.835,16.3589C 624.446,17.0786 624.301,25.8915 624.301,25.8915L 624.301,33.2313L 624.233,44.7799L 624.233,49.6354C 623.323,62.7351 611.36,62.544 611.36,62.544C 611.36,62.544 599.019,62.8644 598.13,49.3845L 598.12,39.6637L 598.151,25.8016C 598.151,25.8017 598.466,16.6072 607.746,16.3824"/>
	</g>
	<text transform="matrix(1.0000000000000000 0.0000000000000000 0.0000000000000000 1.0000000000000000 149.00 289.00)" xml:space="preserve">
		<tspan style=" font-family:Arial; font-size:11.000000pt;" letter-spacing="0.00em" fill="#000000" fill-opacity="1" stroke-width="0.32" stroke-linejoin="round">M={M0,...}</tspan>
	</text>
	<text transform="matrix(1.0000000000000000 0.0000000000000000 0.0000000000000000 1.0000000000000000 329.00 289.00)" xml:space="preserve">
		<tspan style=" font-family:Arial; font-size:11.000000pt;" letter-spacing="0.00em" fill="#000000" fill-opacity="1" stroke-width="0.32" stroke-linejoin="round">M={M0,M1,...}</tspan>
	</text>
	<line fill="none" stroke-width="0.64" stroke-linejoin="round" stroke="#989898" stroke-opacity="1" x1="434.21" y1="73.401" x2="434.209" y2="285.912"/>
	<text transform="matrix(0.9999998807907103 0.0000000000000000 0.0000000000000000 0.9999998807907103 542.00 289.00)" xml:space="preserve">
		<tspan style=" font-family:Arial; font-size:11.000000pt;" letter-spacing="0.00em" fill="#000000" fill-opacity="1" stroke-width="0.32" stroke-linejoin="round">M={...,M4,...}</tspan>
	</text>
</svg>
