<?xml version="1.0" encoding="utf-8"?>
<!DOCTYPE svg PUBLIC "-//W3C//DTD SVG 1.1//EN" "http://www.w3.org/Graphics/SVG/1.1/DTD/svg11.dtd">
<svg xmlns="http://www.w3.org/2000/svg" xmlns:xlink="http://www.w3.org/1999/xlink" version="1.1" baseProfile="full" width="230.153" height="215.322" viewBox="0 0 230.15 215.32" enable-background="new 0 0 230.15 215.32" xml:space="preserve">
	<line fill="none" stroke-width="0.640004" stroke-linejoin="round" stroke="#989898" stroke-opacity="1" x1="37.9773" y1="138.566" x2="35.3357" y2="138.563"/>
	<g>
		<path fill="#DEDEDE" fill-opacity="1" fill-rule="evenodd" stroke-width="0.2" stroke-linejoin="round" d="M 59.2379,138.536L 37.33,138.536C 37.33,104.268 65.11,76.4881 99.3784,76.4881L 99.3784,98.1778C 77.1987,98.3164 59.2589,116.329 59.2379,138.536 Z "/>
		<path fill="#DEDEDE" fill-opacity="1" fill-rule="evenodd" stroke-width="0.2" stroke-linejoin="round" d="M 36.8146,208.222L 59.2401,208.222L 59.2407,138.086L 36.8151,138.086L 36.8146,208.222 Z "/>
		<path fill="#DEDEDE" fill-opacity="1" fill-rule="evenodd" stroke-width="0.2" stroke-linejoin="round" d="M 75.5064,138.322L 53.5984,138.322C 53.5984,104.054 81.3785,76.2741 115.647,76.2741L 115.647,97.9639C 93.4671,98.1025 75.5273,116.115 75.5064,138.322 Z "/>
		<path fill="#DEDEDE" fill-opacity="1" fill-rule="evenodd" stroke-width="0.2" stroke-linejoin="round" d="M 115.56,97.9479L 115.56,76.0399C 149.828,76.0399 177.708,103.82 177.708,138.088L 156.019,138.088C 155.88,115.909 137.768,97.9688 115.56,97.9479 Z "/>
		<path fill="#DEDEDE" fill-opacity="1" fill-rule="evenodd" stroke-width="0.2" stroke-linejoin="round" d="M 53.0716,208.233L 75.4972,208.233L 75.4974,138.095L 53.0718,138.095L 53.0716,208.233 Z "/>
		<path fill="#DEDEDE" fill-opacity="1" fill-rule="evenodd" stroke-width="0.2" stroke-linejoin="round" d="M 155.957,208.219L 178.383,208.219L 178.399,137.963L 155.973,137.963L 155.957,208.219 Z "/>
		<ellipse fill="none" stroke-width="0.640004" stroke-linejoin="round" stroke="#989898" stroke-opacity="1" cx="99.5543" cy="138.993" rx="62.0484" ry="62.0483"/>
		<text transform="matrix(1.0000000000000000 0.0000000000000000 0.0000000000000000 1.0000000000000000 190.00 175.00)" xml:space="preserve">
			<tspan style=" font-family:Arial; font-size:9.715213pt;" letter-spacing="0.00em" fill="#000000" fill-opacity="1" stroke-width="0.2" stroke-linejoin="round">p4</tspan>
		</text>
		<g>
			<rect x="65.5184" y="186.63" fill="#FFFFFF" fill-opacity="1" stroke-width="0.2" stroke-linejoin="round" width="16.2073" height="16.2074"/>
			<text transform="matrix(1.0000000000000000 0.0000000000000000 0.0000000000000000 1.0000000000000000 63.00 199.00)" xml:space="preserve">
				<tspan style=" font-family:Arial; font-size:9.715213pt;" letter-spacing="0.00em" fill="#000000" fill-opacity="1" stroke-width="0.2" stroke-linejoin="round">VX</tspan>
			</text>
		</g>
		<ellipse fill="none" stroke-width="0.640004" stroke-linejoin="round" stroke="#2B2B2B" stroke-opacity="1" cx="115.697" cy="138.488" rx="62.0484" ry="62.0483"/>
		<line fill="none" stroke-width="0.640004" stroke-linejoin="round" stroke="#2B2B2B" stroke-opacity="1" x1="53.2806" y1="50.4116" x2="53.2808" y2="208.022"/>
		<line fill="none" stroke-width="0.640004" stroke-linejoin="round" stroke="#2B2B2B" stroke-opacity="1" x1="177.83" y1="50.4301" x2="177.83" y2="208.041"/>
		<line fill="none" stroke-width="0.640004" stroke-linejoin="round" stroke="#2B2B2B" stroke-opacity="1" x1="118.103" y1="140.834" x2="113.823" y2="136.552"/>
		<line fill="none" stroke-width="0.640004" stroke-linejoin="round" stroke="#2B2B2B" stroke-opacity="1" x1="113.826" y1="140.831" x2="118.107" y2="136.55"/>
		<path fill="#000000" fill-opacity="1" stroke-width="0.32" stroke-linejoin="round" d="M 52.5078,197.622L 52.5078,192.288L 53.7878,192.288L 53.7878,197.622L 52.5078,197.622 Z M 52.5078,186.955L 52.5077,181.622L 53.7877,181.622L 53.7877,186.955L 52.5078,186.955 Z M 52.5077,176.289L 52.5077,170.955L 53.7877,170.955L 53.7877,176.289L 52.5077,176.289 Z M 52.5077,165.622L 52.5077,160.289L 53.7877,160.289L 53.7877,165.622L 52.5077,165.622 Z M 52.5076,154.955L 52.5076,149.622L 53.7876,149.622L 53.7876,154.955L 52.5076,154.955 Z M 52.5076,144.289L 52.5076,138.955L 53.7876,138.955L 53.7876,144.289L 52.5076,144.289 Z M 53.0267,133.581L 53.1252,132.833L 53.8254,128.913L 53.9747,128.274L 55.2289,128.53L 55.0796,129.168L 54.3905,133.026L 54.2992,133.72L 53.0267,133.581 Z M 55.2719,123.065L 56.467,119.075L 56.8957,117.944L 58.109,118.351L 57.6804,119.483L 56.5094,123.392L 55.2719,123.065 Z M 58.8505,112.931L 61.1435,108.116L 62.3221,108.615L 60.0291,113.43L 58.8505,112.931 Z M 63.8781,103.473L 64.7913,101.948L 66.9793,99.0624L 68.0419,99.7761L 65.8539,102.662L 65.0079,104.074L 63.8781,103.473 Z M 70.4287,94.9101L 74.1486,91.0881L 75.1213,91.9201L 71.4014,95.7421L 70.4287,94.9101 Z M 78.4053,87.7408L 80.3745,86.2019L 82.9136,84.7517L 83.6288,85.8132L 81.0897,87.2634L 79.2622,88.6916L 78.4053,87.7408 Z M 87.6306,82.0689L 92.6007,80.1345L 93.1529,81.2893L 88.1827,83.2237L 87.6306,82.0689 Z M 97.7391,78.4275L 102.936,77.2307L 103.313,78.454L 98.116,79.6508L 97.7391,78.4275 Z M 108.283,76.3988L 113.595,75.9193L 113.796,77.1835L 108.484,77.663L 108.283,76.3988 Z M 119.031,75.9276L 124.336,76.4738L 124.284,77.7527L 118.979,77.2066L 119.031,75.9276 Z M 129.659,77.403L 134.845,78.6494L 134.63,79.9113L 129.444,78.6648L 129.659,77.403 Z M 139.938,80.4796L 144.044,82.1042L 144.92,82.6049L 144.364,83.7578L 143.489,83.2571L 139.552,81.7L 139.938,80.4796 Z M 149.549,85.2532L 150.989,86.0768L 153.965,88.3831L 153.252,89.446L 150.275,87.1396L 148.993,86.4062L 149.549,85.2532 Z M 158.106,91.8657L 161.858,95.6554L 161.008,96.6118L 157.255,92.8221L 158.106,91.8657 Z M 165.195,99.9168L 166.148,101.142L 168.178,104.418L 167.125,105.146L 165.096,101.87L 164.232,100.759L 165.195,99.9168 Z M 170.794,109.132L 172.286,112.133L 173.042,114.025L 171.873,114.545L 171.117,112.653L 169.674,109.751L 170.794,109.132 Z M 174.925,119.063L 175.974,122.338L 176.451,124.215L 175.22,124.565L 174.743,122.688L 173.72,119.493L 174.925,119.063 Z M 177.631,129.451L 177.828,130.445L 178.261,133.303L 178.424,134.783L 177.155,134.946L 176.991,133.466L 176.567,130.663L 176.382,129.731L 177.631,129.451 Z M 178.514,140.195L 178.51,145.528L 177.23,145.527L 177.234,140.194L 178.514,140.195 Z M 178.506,150.861L 178.502,156.195L 177.222,156.194L 177.226,150.86L 178.506,150.861 Z M 178.497,161.528L 178.493,166.861L 177.213,166.86L 177.217,161.527L 178.497,161.528 Z M 178.489,172.195L 178.485,177.528L 177.205,177.527L 177.209,172.194L 178.489,172.195 Z M 178.481,182.861L 178.48,184.397L 177.2,184.396L 177.201,182.86L 178.481,182.861 Z M 52.5078,208.288L 52.5078,202.955L 53.7878,202.955L 53.7878,208.288L 52.5078,208.288 Z "/>
		<g>
			<rect x="170.434" y="62.4618" fill="#FFFFFF" fill-opacity="1" stroke-width="0.2" stroke-linejoin="round" width="16.2074" height="16.2073"/>
			<text transform="matrix(1.0000000000000000 0.0000000000000000 0.0000000000000000 1.0000000000000000 168.00 75.00)" xml:space="preserve">
				<tspan style=" font-family:Arial; font-size:9.715213pt;" letter-spacing="0.00em" fill="#000000" fill-opacity="1" stroke-width="0.2" stroke-linejoin="round">VX</tspan>
			</text>
		</g>
		<rect x="151.193" y="87.1333" fill="#FFFFFF" fill-opacity="1" stroke-width="0.2" stroke-linejoin="round" width="16.2074" height="16.2074"/>
		<text transform="matrix(1.0000000000000000 0.0000000000000000 0.0000000000000000 1.0000000000000000 151.00 98.00)" xml:space="preserve">
			<tspan style=" font-family:Arial; font-size:9.715213pt;" letter-spacing="0.00em" fill="#000000" fill-opacity="1" stroke-width="0.2" stroke-linejoin="round">VX</tspan>
		</text>
		<text transform="matrix(1.0000000000000000 0.0000000000000000 0.0000000000000000 1.0000000000000000 18.00 120.00)" xml:space="preserve">
			<tspan style=" font-family:Arial; font-size:9.715213pt;" letter-spacing="0.00em" fill="#000000" fill-opacity="1" stroke-width="0.2" stroke-linejoin="round">p3</tspan>
		</text>
		<line fill="none" stroke-width="0.640004" stroke-linejoin="round" stroke="#989898" stroke-opacity="1" x1="101.641" y1="140.713" x2="97.3588" y2="136.431"/>
		<line fill="none" stroke-width="0.640004" stroke-linejoin="round" stroke="#989898" stroke-opacity="1" x1="97.362" y1="140.709" x2="101.643" y2="136.43"/>
		<line fill="none" stroke-width="0.640004" stroke-linejoin="round" stroke="#989898" stroke-opacity="1" x1="37.4683" y1="50.2362" x2="37.4674" y2="207.847"/>
		<path fill="none" stroke-width="1.28" stroke-linejoin="round" stroke="#000000" stroke-opacity="1" d="M 37.3655,139.146C 37.3655,108.318 59.8482,82.7404 89.3117,77.916"/>
		<line fill="none" stroke-width="1.28" stroke-linejoin="round" stroke="#000000" stroke-opacity="1" x1="37.4074" y1="138.843" x2="37.4612" y2="139.426"/>
		<path fill="none" stroke-width="1.28" stroke-linejoin="round" stroke="#000000" stroke-opacity="1" d="M 104.816,14.6465C 114.141,17.1626 116.347,26.7356 116.347,26.7355C 116.347,26.7355 134.014,69.7724 87.7439,78.3357"/>
		<path fill="#FFFFFF" fill-opacity="1" stroke-width="0.640004" stroke-linejoin="round" stroke="#000000" stroke-opacity="1" d="M 38.0214,129.947L 48.4265,113.766L 41.6299,114.759L 36.4969,110.77L 38.0214,129.947 Z "/>
		<line fill="none" stroke-width="1.28" stroke-linejoin="round" stroke="#000000" stroke-opacity="1" x1="37.3995" y1="208.313" x2="37.3999" y2="138.828"/>
		<g>
			<rect x="48.236" y="62.4618" fill="#FFFFFF" fill-opacity="1" stroke-width="0.2" stroke-linejoin="round" width="16.2073" height="16.2073"/>
			<text transform="matrix(1.0000000000000000 0.0000000000000000 0.0000000000000000 1.0000000000000000 46.00 75.00)" xml:space="preserve">
				<tspan style=" font-family:Arial; font-size:9.715213pt;" letter-spacing="0.00em" fill="#000000" fill-opacity="1" stroke-width="0.2" stroke-linejoin="round">VX</tspan>
			</text>
		</g>
		<line fill="none" stroke-width="0.640004" stroke-linejoin="round" stroke="#000000" stroke-opacity="1" x1="38.2486" y1="129.109" x2="41.5789" y2="114.844"/>
		<path fill="#FFFFFF" fill-opacity="1" stroke-width="0.640004" stroke-linejoin="round" stroke="#000000" stroke-opacity="1" d="M 75.8501,81.3976L 95.062,82.3957L 90.0278,77.8124L 91.7396,70.5527L 75.8501,81.3976 Z "/>
		<line fill="none" stroke-width="0.640004" stroke-linejoin="round" stroke="#000000" stroke-opacity="1" x1="76.2742" y1="81.2804" x2="89.9006" y2="77.8114"/>
		<line fill="none" stroke-width="1.28" stroke-linejoin="round" stroke="#000000" stroke-opacity="1" x1="177.849" y1="208.221" x2="177.849" y2="158.652"/>
		<path fill="#9B9B9B" fill-opacity="1" stroke-width="0.640004" stroke-linejoin="round" stroke="#000000" stroke-opacity="1" d="M 177.834,156.572L 171.433,174.714L 177.819,172.183L 183.732,174.883L 177.834,156.572 Z "/>
		<line fill="none" stroke-width="0.640004" stroke-linejoin="round" stroke="#000000" stroke-opacity="1" x1="177.806" y1="157.441" x2="177.849" y2="172.09"/>
		<path fill="#FFFFFF" fill-opacity="1" stroke-width="0.640004" stroke-linejoin="round" stroke="#000000" stroke-opacity="1" d="M 122.582,36.724L 118.069,18.0488L 113.938,22.8537L 107.678,24.6001L 122.582,36.724 Z "/>
		<line fill="none" stroke-width="0.640004" stroke-linejoin="round" stroke="#000000" stroke-opacity="1" x1="11.279" y1="8.9418" x2="11.279" y2="38.5413"/>
		<line fill="none" stroke-width="0.640004" stroke-linejoin="round" stroke="#000000" stroke-opacity="1" x1="40.6757" y1="38.3017" x2="11.0761" y2="38.3017"/>
		<text transform="matrix(1.0000000000000000 0.0000000000000000 0.0000000000000000 1.0000000000000000 1.00 52.00)" xml:space="preserve">
			<tspan style=" font-family:Arial; font-size:9.679979pt;" letter-spacing="0.00em" fill="#000000" fill-opacity="1" stroke-width="0.2" stroke-linejoin="round">Ow</tspan>
		</text>
		<line fill="none" stroke-width="0.640004" stroke-linejoin="round" stroke="#000000" stroke-opacity="1" x1="12.2122" y1="38.1596" x2="114.584" y2="24.7774"/>
		<g>
			<rect x="49.3746" y="20.269" fill="#FFFFFF" fill-opacity="1" stroke-width="0.2" stroke-linejoin="round" width="24.3393" height="16.1863"/>
			<text transform="matrix(1.0000000000000000 0.0000000000000000 0.0000000000000000 1.0000000000000000 53.00 35.00)" xml:space="preserve">
				<tspan style=" font-family:Arial; font-size:9.679979pt;" letter-spacing="0.00em" fill="#000000" fill-opacity="1" stroke-width="0.2" stroke-linejoin="round">p</tspan>
			</text>
		</g>
		<line fill="none" stroke-width="0.640004" stroke-linejoin="round" stroke="#000000" stroke-opacity="1" x1="113.924" y1="22.8546" x2="122.461" y2="36.602"/>
		<path fill="#000000" fill-opacity="1" stroke-width="0.2" stroke-linejoin="round" d="M 38.712,35.2069L 38.7201,41.3379L 44.3321,38.2655L 38.712,35.2069 Z "/>
		<path fill="#000000" fill-opacity="1" stroke-width="0.2" stroke-linejoin="round" d="M 8.2258,10.6325L 14.3568,10.6281L 11.2877,5.01431L 8.2258,10.6325 Z "/>
		<path fill="#000000" fill-opacity="1" stroke-width="0.2" stroke-linejoin="round" d="M 109.587,22.7566L 110.586,28.8056L 115.627,24.8662L 109.587,22.7566 Z "/>
		<g>
			<rect x="29.9808" y="62.4618" fill="#FFFFFF" fill-opacity="1" stroke-width="0.2" stroke-linejoin="round" width="16.2073" height="16.2073"/>
			<text transform="matrix(1.0000000000000000 0.0000000000000000 0.0000000000000000 1.0000000000000000 27.00 75.00)" xml:space="preserve">
				<tspan style=" font-family:Arial; font-size:9.715213pt;" letter-spacing="0.00em" fill="#000000" fill-opacity="1" stroke-width="0.2" stroke-linejoin="round">VX</tspan>
			</text>
		</g>
	</g>
	<line fill="none" stroke-width="0.640004" stroke-linejoin="round" stroke="#2B2B2B" stroke-opacity="1" x1="179.638" y1="138.635" x2="177.499" y2="138.633"/>
	<line fill="none" stroke-width="0.640004" stroke-linejoin="round" stroke="#2B2B2B" stroke-opacity="1" x1="53.737" y1="138.606" x2="51.0981" y2="138.606"/>
	<g>
		<path fill="#FFFFFF" fill-opacity="1" stroke-width="0.2" stroke-linejoin="round" d="M 185.588,202.989L 173.138,202.989L 173.104,215.063L 185.583,215.032L 185.588,202.989 Z "/>
		<text transform="matrix(1.0000000000000000 0.0000000000000000 0.0000000000000000 1.0000000000000000 176.00 213.00)" xml:space="preserve">
			<tspan style=" font-family:Arial; font-size:9.680036pt;" letter-spacing="0.00em" fill="#000000" fill-opacity="1" stroke-width="0.2" stroke-linejoin="round">c1</tspan>
		</text>
	</g>
	<g>
		<path fill="#FFFFFF" fill-opacity="1" stroke-width="0.2" stroke-linejoin="round" d="M 160.575,202.991L 148.126,202.991L 148.092,215.066L 160.571,215.035L 160.575,202.991 Z "/>
		<text transform="matrix(1.0000000000000000 0.0000000000000000 0.0000000000000000 1.0000000000000000 151.00 213.00)" xml:space="preserve">
			<tspan style=" font-family:Arial; font-size:9.680036pt;" letter-spacing="0.00em" fill="#000000" fill-opacity="1" stroke-width="0.2" stroke-linejoin="round">c1</tspan>
		</text>
	</g>
	<line fill="none" stroke-width="0.640004" stroke-linejoin="round" stroke="#989898" stroke-opacity="1" x1="163.405" y1="138.637" x2="161.265" y2="138.636"/>
	<text transform="matrix(1.0000000000000000 0.0000000000000000 0.0000000000000000 1.0000000000000000 17.00 143.00)" xml:space="preserve">
		<tspan style=" font-family:Arial; font-size:9.715213pt;" letter-spacing="0.00em" fill="#000000" fill-opacity="1" stroke-width="0.2" stroke-linejoin="round">pT</tspan>
	</text>
	<rect x="62.9567" y="132.244" fill="#FFFFFF" fill-opacity="1" stroke-width="0.2" stroke-linejoin="round" width="16.2073" height="16.2073"/>
	<text transform="matrix(1.0000000000000000 0.0000000000000000 0.0000000000000000 1.0000000000000000 66.00 144.00)" xml:space="preserve">
		<tspan style=" font-family:Arial; font-size:9.715213pt;" letter-spacing="0.00em" fill="#000000" fill-opacity="1" stroke-width="0.2" stroke-linejoin="round">pT</tspan>
	</text>
	<text transform="matrix(0.9999999403953552 0.0000000000000000 0.0000000000000000 0.9999999403953552 139.00 143.00)" xml:space="preserve">
		<tspan style=" font-family:Arial; font-size:9.715213pt;" letter-spacing="0.00em" fill="#000000" fill-opacity="1" stroke-width="0.2" stroke-linejoin="round">pT</tspan>
	</text>
	<text transform="matrix(0.9999998807907103 0.0000000000000000 0.0000000000000000 0.9999998807907103 189.00 143.00)" xml:space="preserve">
		<tspan style=" font-family:Arial; font-size:9.715213pt;" letter-spacing="0.00em" fill="#000000" fill-opacity="1" stroke-width="0.2" stroke-linejoin="round">pT</tspan>
	</text>
	<line fill="none" stroke-width="0.640004" stroke-linejoin="round" stroke="#000000" stroke-opacity="1" x1="116.012" y1="138.751" x2="116.012" y2="76.7023"/>
	<path fill="#000000" fill-opacity="1" stroke-width="0.2" stroke-linejoin="round" d="M 113.696,80.5069L 118.412,80.5006L 116.049,76.1842L 113.696,80.5069 Z "/>
	<g>
		<path fill="#FFFFFF" fill-opacity="1" stroke-width="0.2" stroke-linejoin="round" d="M 123.21,108.657L 105.481,108.656L 105.481,121.106L 123.21,121.106L 123.21,108.657 Z "/>
		<text transform="matrix(1.0000000000000000 0.0000000000000000 0.0000000000000000 1.0000000000000000 109.00 117.00)" xml:space="preserve">
			<tspan style=" font-family:Arial; font-size:9.680036pt;" letter-spacing="0.00em" fill="#000000" fill-opacity="1" stroke-width="0.2" stroke-linejoin="round">c1</tspan>
		</text>
	</g>
</svg>
