<?xml version="1.0" encoding="utf-8"?>
<!DOCTYPE svg PUBLIC "-//W3C//DTD SVG 1.1//EN" "http://www.w3.org/Graphics/SVG/1.1/DTD/svg11.dtd">
<svg xmlns="http://www.w3.org/2000/svg" xmlns:xlink="http://www.w3.org/1999/xlink" version="1.1" baseProfile="full" width="221.19" height="256.529" viewBox="0 0 221.19 256.53" enable-background="new 0 0 221.19 256.53" xml:space="preserve">
	<g>
		<path fill="#DEDEDE" fill-opacity="1" fill-rule="evenodd" stroke-width="0.2" stroke-linejoin="round" d="M 42.8768,176.596L 17.9813,176.596C 17.9813,137.655 49.5496,106.087 88.4909,106.087L 88.4909,130.734C 63.2867,130.892 42.9005,151.36 42.8768,176.596 Z "/>
		<path fill="#DEDEDE" fill-opacity="1" fill-rule="evenodd" stroke-width="0.2" stroke-linejoin="round" d="M 17.3956,255.785L 42.8792,255.785L 42.8799,176.084L 17.3962,176.084L 17.3956,255.785 Z "/>
		<path fill="#DEDEDE" fill-opacity="1" fill-rule="evenodd" stroke-width="0.2" stroke-linejoin="round" d="M 61.3636,176.353L 36.4682,176.353C 36.4682,137.412 68.0365,105.844 106.978,105.844L 106.978,130.491C 81.7736,130.649 61.3874,151.117 61.3636,176.353 Z "/>
		<path fill="#DEDEDE" fill-opacity="1" fill-rule="evenodd" stroke-width="0.2" stroke-linejoin="round" d="M 106.993,130.473L 106.993,105.578C 145.934,105.578 177.503,137.146 177.503,176.087L 152.855,176.087C 152.698,150.883 132.229,130.497 106.993,130.473 Z "/>
		<path fill="#DEDEDE" fill-opacity="1" fill-rule="evenodd" stroke-width="0.2" stroke-linejoin="round" d="M 35.8695,255.797L 61.3532,255.797L 61.3535,176.094L 35.8698,176.094L 35.8695,255.797 Z "/>
		<path fill="#DEDEDE" fill-opacity="1" fill-rule="evenodd" stroke-width="0.2" stroke-linejoin="round" d="M 152.785,255.781L 178.269,255.781L 178.287,175.945L 152.803,175.945L 152.785,255.781 Z "/>
		<ellipse fill="none" stroke-width="0.640004" stroke-linejoin="round" stroke="#989898" stroke-opacity="1" cx="88.6908" cy="177.115" rx="70.5097" ry="70.5096"/>
		<text transform="matrix(0.9999999403953552 0.0000000000000000 0.0000000000000000 0.9999999403953552 191.00 218.00)" xml:space="preserve">
			<tspan style=" font-family:Arial; font-size:11.040040pt;" letter-spacing="0.00em" fill="#000000" fill-opacity="1" stroke-width="0.2" stroke-linejoin="round">qk</tspan>
		</text>
		<g>
			<rect x="50.0136" y="231.248" fill="#FFFFFF" fill-opacity="1" stroke-width="0.2" stroke-linejoin="round" width="18.4174" height="18.4175"/>
			<text transform="matrix(1.0000000000000000 0.0000000000000000 0.0000000000000000 1.0000000000000000 47.00 245.00)" xml:space="preserve">
				<tspan style=" font-family:Arial; font-size:11.040040pt;" letter-spacing="0.00em" fill="#000000" fill-opacity="1" stroke-width="0.2" stroke-linejoin="round">VX</tspan>
			</text>
		</g>
		<ellipse fill="none" stroke-width="0.640004" stroke-linejoin="round" stroke="#2B2B2B" stroke-opacity="1" cx="107.035" cy="176.542" rx="70.5097" ry="70.5096"/>
		<line fill="none" stroke-width="0.640004" stroke-linejoin="round" stroke="#2B2B2B" stroke-opacity="1" x1="36.1073" y1="83.272" x2="36.1072" y2="255.557"/>
		<line fill="none" stroke-width="0.640004" stroke-linejoin="round" stroke="#2B2B2B" stroke-opacity="1" x1="177.641" y1="83.2929" x2="177.641" y2="255.579"/>
		<line fill="none" stroke-width="0.640004" stroke-linejoin="round" stroke="#2B2B2B" stroke-opacity="1" x1="109.204" y1="178.638" x2="105.474" y2="174.908"/>
		<line fill="none" stroke-width="0.640004" stroke-linejoin="round" stroke="#2B2B2B" stroke-opacity="1" x1="105.475" y1="178.637" x2="109.205" y2="174.908"/>
		<path fill="#000000" fill-opacity="1" stroke-width="0.32" stroke-linejoin="round" d="M 177.02,218.043L 177.024,212.709L 178.304,212.71L 178.3,218.044L 177.02,218.043 Z M 177.028,207.376L 177.032,202.043L 178.312,202.044L 178.308,207.377L 177.028,207.376 Z M 177.037,196.709L 177.041,191.376L 178.321,191.377L 178.317,196.71L 177.037,196.709 Z M 177.045,186.043L 177.049,180.709L 178.329,180.71L 178.325,186.044L 177.045,186.043 Z M 177.053,175.376L 177.054,173.539L 177.065,173.414L 177.101,173.293L 177.161,173.183L 177.242,173.086L 177.338,173.006L 177.449,172.946L 177.569,172.91L 177.694,172.899L 177,172.869L 176.774,170.834L 176.67,170.148L 177.939,169.984L 178.043,170.67L 178.275,172.754L 177.694,174.179L 178.334,173.54L 178.333,175.377L 177.053,175.376 Z M 175.747,164.924L 175.468,163.521L 174.511,159.771L 175.76,159.49L 176.716,163.24L 177.009,164.706L 175.747,164.924 Z M 172.96,154.707L 172.453,153.127L 171.101,149.757L 172.306,149.325L 173.658,152.696L 174.191,154.356L 172.96,154.707 Z M 168.943,144.937L 167.05,141.141L 166.503,140.262L 167.622,139.64L 168.169,140.519L 170.112,144.416L 168.943,144.937 Z M 163.688,135.732L 163.242,135.014L 160.52,131.526L 161.571,130.796L 164.293,134.284L 164.807,135.111L 163.688,135.732 Z M 157.094,127.545L 153.335,123.762L 154.298,122.918L 158.057,126.702L 157.094,127.545 Z M 149.22,120.503L 146.377,118.307L 144.94,117.488L 145.652,116.424L 147.088,117.243L 150.069,119.545L 149.22,120.503 Z M 140.307,114.845L 138.653,113.902L 135.547,112.677L 136.102,111.524L 139.208,112.749L 141.019,113.782L 140.307,114.845 Z M 130.586,110.72L 129.731,110.383L 125.527,109.375L 125.912,108.155L 130.116,109.163L 131.14,109.567L 130.586,110.72 Z M 120.341,108.132L 119.517,107.934L 115.141,107.484L 115.356,106.223L 119.732,106.673L 120.726,106.911L 120.341,108.132 Z M 109.836,106.939L 107.922,106.742L 107.974,105.463L 110.051,105.677L 109.836,106.939 Z M 177.012,228.709L 177.016,223.376L 178.296,223.377L 178.292,228.71L 177.012,228.709 Z "/>
		<path fill="#000000" fill-opacity="1" stroke-width="0.32" stroke-linejoin="round" d="M 35.3466,245.192L 35.3619,239.859L 36.6419,239.862L 36.6266,245.195L 35.3466,245.192 Z M 35.3772,234.525L 35.3925,229.192L 36.6725,229.196L 36.6572,234.529L 35.3772,234.525 Z M 35.4077,223.859L 35.423,218.525L 36.703,218.529L 36.6877,223.862L 35.4077,223.859 Z M 35.4383,213.192L 35.4536,207.859L 36.7336,207.862L 36.7183,213.196L 35.4383,213.192 Z M 35.4688,202.525L 35.4841,197.192L 36.7641,197.196L 36.7488,202.529L 35.4688,202.525 Z M 35.4994,191.859L 35.5146,186.525L 36.7946,186.529L 36.7794,191.862L 35.4994,191.859 Z M 35.5299,181.192L 35.5431,176.587L 35.5541,176.462L 35.5905,176.342L 35.6502,176.232L 35.7312,176.136L 35.8273,176.055L 35.9379,175.996L 36.0581,175.96L 36.1831,175.949L 36.2239,175.222L 36.2239,176.502L 36.1831,177.229L 36.8231,176.591L 36.8099,181.196L 35.5299,181.192 Z M 36.1788,170.495L 36.2252,170.134L 37.0086,165.687L 37.1246,165.187L 38.3794,165.44L 38.2633,165.94L 37.491,170.325L 37.4517,170.63L 36.1788,170.495 Z M 38.3654,159.963L 39.8875,154.851L 41.1257,155.176L 39.6036,160.287L 38.3654,159.963 Z M 41.7635,149.814L 42.3659,148.219L 43.9453,144.898L 45.1243,145.396L 43.5449,148.717L 42.9774,150.22L 41.7635,149.814 Z M 46.4153,140.113L 49.1568,135.538L 50.2867,136.14L 47.5451,140.714L 46.4153,140.113 Z M 52.3792,131.209L 54.2589,128.736L 55.8672,127.089L 56.8387,127.923L 55.2304,129.569L 53.4413,131.924L 52.3792,131.209 Z M 59.5942,123.275L 60.1272,122.729L 63.8018,119.873L 64.6566,120.826L 60.982,123.682L 60.5657,124.108L 59.5942,123.275 Z M 68.1836,116.694L 72.8231,114.063L 73.5353,115.127L 68.8957,117.757L 68.1836,116.694 Z M 77.7085,111.733L 82.6852,109.816L 83.2336,110.972L 78.2568,112.889L 77.7085,111.733 Z M 87.8844,108.307L 93.0857,107.127L 93.4584,108.352L 88.2571,109.531L 87.8844,108.307 Z M 98.4341,106.306L 103.747,105.842L 103.944,107.107L 98.6309,107.571L 98.4341,106.306 Z M 35.3161,255.858L 35.3314,250.525L 36.6114,250.529L 36.5961,255.862L 35.3161,255.858 Z "/>
		<g>
			<rect x="169.236" y="90.1478" fill="#FFFFFF" fill-opacity="1" stroke-width="0.2" stroke-linejoin="round" width="18.4175" height="18.4175"/>
			<text transform="matrix(1.0000000000000000 0.0000000000000000 0.0000000000000000 1.0000000000000000 167.00 104.00)" xml:space="preserve">
				<tspan style=" font-family:Arial; font-size:11.040040pt;" letter-spacing="0.00em" fill="#000000" fill-opacity="1" stroke-width="0.2" stroke-linejoin="round">VX</tspan>
			</text>
		</g>
		<rect x="147.371" y="118.184" fill="#FFFFFF" fill-opacity="1" stroke-width="0.2" stroke-linejoin="round" width="18.4175" height="18.4175"/>
		<text transform="matrix(1.0000000000000000 0.0000000000000000 0.0000000000000000 1.0000000000000000 148.00 131.00)" xml:space="preserve">
			<tspan style=" font-family:Arial; font-size:11.040040pt;" letter-spacing="0.00em" fill="#000000" fill-opacity="1" stroke-width="0.2" stroke-linejoin="round">VX</tspan>
		</text>
		<text transform="matrix(1.0000000000000000 0.0000000000000000 0.0000000000000000 1.0000000000000000 3.00 155.00)" xml:space="preserve">
			<tspan style=" font-family:Arial; font-size:11.040040pt;" letter-spacing="0.00em" fill="#000000" fill-opacity="1" stroke-width="0.2" stroke-linejoin="round">p</tspan>
		</text>
		<line fill="none" stroke-width="0.640004" stroke-linejoin="round" stroke="#989898" stroke-opacity="1" x1="53.9034" y1="178.501" x2="50.174" y2="174.771"/>
		<line fill="none" stroke-width="0.640004" stroke-linejoin="round" stroke="#989898" stroke-opacity="1" x1="50.1759" y1="178.498" x2="53.9057" y2="174.769"/>
		<line fill="none" stroke-width="0.640004" stroke-linejoin="round" stroke="#989898" stroke-opacity="1" x1="18.1387" y1="83.0726" x2="18.1375" y2="255.359"/>
		<path fill="none" stroke-width="1.28" stroke-linejoin="round" stroke="#000000" stroke-opacity="1" d="M 18.0216,177.289C 18.0216,142.257 43.5702,113.192 77.0515,107.709"/>
		<line fill="none" stroke-width="1.28" stroke-linejoin="round" stroke="#000000" stroke-opacity="1" x1="18.0693" y1="176.945" x2="18.1304" y2="177.607"/>
		<path fill="none" stroke-width="1.28" stroke-linejoin="round" stroke="#000000" stroke-opacity="1" d="M 94.6706,35.8121C 105.267,38.6713 107.774,49.5496 107.774,49.5495C 107.774,49.5495 127.85,98.4552 75.2699,108.186"/>
		<path fill="#FFFFFF" fill-opacity="1" stroke-width="0.640004" stroke-linejoin="round" stroke="#000000" stroke-opacity="1" d="M 18.7671,166.836L 30.591,148.449L 22.8677,149.577L 17.0346,145.044L 18.7671,166.836 Z "/>
		<line fill="none" stroke-width="1.28" stroke-linejoin="round" stroke="#000000" stroke-opacity="1" x1="18.0603" y1="255.889" x2="18.0608" y2="176.927"/>
		<g>
			<rect x="30.3745" y="87.723" fill="#FFFFFF" fill-opacity="1" stroke-width="0.2" stroke-linejoin="round" width="18.4175" height="18.4175"/>
			<text transform="matrix(1.0000000000000000 0.0000000000000000 0.0000000000000000 1.0000000000000000 27.00 102.00)" xml:space="preserve">
				<tspan style=" font-family:Arial; font-size:11.040040pt;" letter-spacing="0.00em" fill="#000000" fill-opacity="1" stroke-width="0.2" stroke-linejoin="round">VX</tspan>
			</text>
		</g>
		<line fill="none" stroke-width="0.640004" stroke-linejoin="round" stroke="#000000" stroke-opacity="1" x1="19.0252" y1="165.883" x2="22.8096" y2="149.673"/>
		<path fill="#FFFFFF" fill-opacity="1" stroke-width="0.640004" stroke-linejoin="round" stroke="#000000" stroke-opacity="1" d="M 61.7543,111.666L 83.5859,112.8L 77.8654,107.591L 79.8106,99.3419L 61.7543,111.666 Z "/>
		<line fill="none" stroke-width="0.640004" stroke-linejoin="round" stroke="#000000" stroke-opacity="1" x1="62.2361" y1="111.533" x2="77.7207" y2="107.59"/>
		<line fill="none" stroke-width="1.28" stroke-linejoin="round" stroke="#000000" stroke-opacity="1" x1="177.662" y1="255.783" x2="177.663" y2="199.455"/>
		<path fill="#9B9B9B" fill-opacity="1" stroke-width="0.640004" stroke-linejoin="round" stroke="#000000" stroke-opacity="1" d="M 177.645,197.092L 170.372,217.707L 177.628,214.831L 184.348,217.9L 177.645,197.092 Z "/>
		<line fill="none" stroke-width="0.640004" stroke-linejoin="round" stroke="#000000" stroke-opacity="1" x1="177.613" y1="198.079" x2="177.662" y2="214.725"/>
		<path fill="#FFFFFF" fill-opacity="1" stroke-width="0.640004" stroke-linejoin="round" stroke="#000000" stroke-opacity="1" d="M 114.859,60.9003L 109.73,39.6783L 105.037,45.1384L 97.922,47.123L 114.859,60.9003 Z "/>
		<line fill="none" stroke-width="0.640004" stroke-linejoin="round" stroke="#000000" stroke-opacity="1" x1="106.675" y1="47.4733" x2="113.891" y2="13.7"/>
		<line fill="none" stroke-width="0.640004" stroke-linejoin="round" stroke="#000000" stroke-opacity="1" x1="106.782" y1="47.6598" x2="133.18" y2="72.9958"/>
		<text transform="matrix(1.0000000000000000 0.0000000000000000 0.0000000000000000 1.0000000000000000 125.00 14.00)" xml:space="preserve">
			<tspan style=" font-family:Arial; font-size:11.000000pt;" letter-spacing="0.00em" fill="#000000" fill-opacity="1" stroke-width="0.2" stroke-linejoin="round">P</tspan>
		</text>
		<text transform="matrix(1.0000000000000000 0.0000000000000000 0.0000000000000000 1.0000000000000000 144.00 71.00)" xml:space="preserve">
			<tspan style=" font-family:Arial; font-size:11.000000pt;" letter-spacing="0.00em" fill="#000000" fill-opacity="1" stroke-width="0.2" stroke-linejoin="round">p</tspan>
		</text>
		<text transform="matrix(0.9999999403953552 0.0000000000000000 0.0000000000000000 0.9999999403953552 73.00 82.00)" xml:space="preserve">
			<tspan style=" font-family:Arial; font-size:11.000000pt;" letter-spacing="0.00em" fill="#000000" fill-opacity="1" stroke-width="0.2" stroke-linejoin="round">pd</tspan>
		</text>
		<line fill="none" stroke-width="0.640004" stroke-linejoin="round" stroke="#000000" stroke-opacity="1" x1="11.1051" y1="22.5112" x2="11.1051" y2="56.1472"/>
		<line fill="none" stroke-width="0.640004" stroke-linejoin="round" stroke="#000000" stroke-opacity="1" x1="44.5105" y1="55.8748" x2="10.8746" y2="55.8748"/>
		<text transform="matrix(1.0000000000000000 0.0000000000000000 0.0000000000000000 1.0000000000000000 0.00 71.00)" xml:space="preserve">
			<tspan style=" font-family:Arial; font-size:11.000000pt;" letter-spacing="0.00em" fill="#000000" fill-opacity="1" stroke-width="0.2" stroke-linejoin="round">Ow</tspan>
		</text>
		<line fill="none" stroke-width="0.640004" stroke-linejoin="round" stroke="#000000" stroke-opacity="1" x1="12.1657" y1="55.715" x2="105.77" y2="47.3245"/>
		<g>
			<rect x="54.3956" y="35.383" fill="#FFFFFF" fill-opacity="1" stroke-width="0.2" stroke-linejoin="round" width="28.7948" height="18.3937"/>
			<text transform="matrix(1.0000000000000000 0.0000000000000000 0.0000000000000000 1.0000000000000000 59.00 52.00)" xml:space="preserve">
				<tspan style=" font-family:Arial; font-size:11.000000pt;" letter-spacing="0.00em" fill="#000000" fill-opacity="1" stroke-width="0.2" stroke-linejoin="round">p</tspan>
			</text>
		</g>
		<line fill="none" stroke-width="0.640004" stroke-linejoin="round" stroke="#000000" stroke-opacity="1" x1="40.7325" y1="11.2791" x2="66.11" y2="11.2791"/>
		<text transform="matrix(1.0000000000000000 0.0000000000000000 0.0000000000000000 1.0000000000000000 47.00 7.00)" xml:space="preserve">
			<tspan style=" font-family:Arial; font-size:11.000000pt;" letter-spacing="0.00em" fill="#000000" fill-opacity="1" stroke-width="0.2" stroke-linejoin="round">w</tspan>
		</text>
		<line fill="none" stroke-width="0.640004" stroke-linejoin="round" stroke="#000000" stroke-opacity="1" x1="105.02" y1="45.1395" x2="114.721" y2="60.7614"/>
		<path fill="#000000" fill-opacity="1" stroke-width="0.2" stroke-linejoin="round" d="M 42.2791,52.358L 42.2882,59.3251L 48.6655,55.8338L 42.2791,52.358 Z "/>
		<path fill="#000000" fill-opacity="1" stroke-width="0.2" stroke-linejoin="round" d="M 7.63562,24.4325L 14.6026,24.4274L 11.1151,18.0482L 7.63562,24.4325 Z "/>
		<path fill="#000000" fill-opacity="1" stroke-width="0.2" stroke-linejoin="round" d="M 132.472,67.1442L 127.419,71.941L 134.339,74.1713L 132.472,67.1442 Z "/>
		<path fill="#000000" fill-opacity="1" stroke-width="0.2" stroke-linejoin="round" d="M 110.057,15.7764L 116.912,17.0209L 114.626,10.1196L 110.057,15.7764 Z "/>
		<path fill="#000000" fill-opacity="1" stroke-width="0.2" stroke-linejoin="round" d="M 91.8888,85.3087L 97.4148,81.0659L 90.7657,78.1249L 91.8888,85.3087 Z "/>
		<path fill="#000000" fill-opacity="1" stroke-width="0.2" stroke-linejoin="round" d="M 65.0964,7.47968L 65.1056,14.4467L 71.4829,10.9554L 65.0964,7.47968 Z "/>
		<path fill="#000000" fill-opacity="1" stroke-width="0.2" stroke-linejoin="round" d="M 100.091,45.028L 101.227,51.9019L 106.956,47.4254L 100.091,45.028 Z "/>
		<line fill="none" stroke-width="0.640004" stroke-linejoin="round" stroke="#000000" stroke-opacity="1" x1="92.9862" y1="82.1757" x2="106.808" y2="47.8196"/>
		<g>
			<rect x="9.62994" y="87.835" fill="#FFFFFF" fill-opacity="1" stroke-width="0.2" stroke-linejoin="round" width="18.4175" height="18.4175"/>
			<text transform="matrix(1.0000000000000000 0.0000000000000000 0.0000000000000000 1.0000000000000000 6.00 102.00)" xml:space="preserve">
				<tspan style=" font-family:Arial; font-size:11.040040pt;" letter-spacing="0.00em" fill="#000000" fill-opacity="1" stroke-width="0.2" stroke-linejoin="round">VX</tspan>
			</text>
		</g>
		<rect x="182.23" y="10.8166" fill="#DEDEDE" fill-opacity="1" fill-rule="evenodd" stroke-width="0.2" stroke-linejoin="round" width="21.1189" height="21.119"/>
		<text transform="matrix(0.9999999403953552 0.0000000000000000 0.0000000000000000 0.9999999403953552 214.00 27.00)" xml:space="preserve">
			<tspan style=" font-family:Arial; font-size:11.000000pt;" letter-spacing="0.00em" fill="#000000" fill-opacity="1" stroke-width="0.2" stroke-linejoin="round">P</tspan>
		</text>
		<line fill="none" stroke-width="1.28" stroke-linejoin="round" stroke="#000000" stroke-opacity="1" x1="182.23" y1="53.4302" x2="203.35" y2="53.4304"/>
		<text transform="matrix(0.9999998807907103 0.0000000000000000 0.0000000000000000 0.9999998807907103 213.00 56.00)" xml:space="preserve">
			<tspan style=" font-family:Arial; font-size:11.000000pt;" letter-spacing="0.00em" fill="#000000" fill-opacity="1" stroke-width="0.2" stroke-linejoin="round">P</tspan>
		</text>
	</g>
	<path fill="#0000FF" fill-opacity="1" stroke-width="0.2" stroke-linejoin="round" d="M 193.312,200.535C 190.479,200.535 188.182,198.238 188.182,195.405C 188.182,192.572 190.479,190.276 193.312,190.276"/>
</svg>
