<?xml version="1.0" encoding="utf-8"?>
<!DOCTYPE svg PUBLIC "-//W3C//DTD SVG 1.1//EN" "http://www.w3.org/Graphics/SVG/1.1/DTD/svg11.dtd">
<svg xmlns="http://www.w3.org/2000/svg" xmlns:xlink="http://www.w3.org/1999/xlink" version="1.1" baseProfile="full" width="230.153" height="225.745" viewBox="0 0 230.15 225.74" enable-background="new 0 0 230.15 225.74" xml:space="preserve">
	<g>
		<path fill="#DEDEDE" fill-opacity="1" fill-rule="evenodd" stroke-width="0.2" stroke-linejoin="round" d="M 59.2379,155.404L 37.33,155.404C 37.33,121.136 65.11,93.3559 99.3784,93.3559L 99.3784,115.046C 77.1987,115.184 59.2589,133.197 59.2379,155.404 Z "/>
		<path fill="#DEDEDE" fill-opacity="1" fill-rule="evenodd" stroke-width="0.2" stroke-linejoin="round" d="M 36.8146,225.09L 59.2401,225.09L 59.2407,154.954L 36.8151,154.954L 36.8146,225.09 Z "/>
		<path fill="#DEDEDE" fill-opacity="1" fill-rule="evenodd" stroke-width="0.2" stroke-linejoin="round" d="M 75.5064,155.19L 53.5984,155.19C 53.5984,120.922 81.3785,93.142 115.647,93.142L 115.647,114.832C 93.4671,114.97 75.5273,132.983 75.5064,155.19 Z "/>
		<path fill="#DEDEDE" fill-opacity="1" fill-rule="evenodd" stroke-width="0.2" stroke-linejoin="round" d="M 115.56,114.816L 115.56,92.9078C 149.828,92.9078 177.708,120.688 177.708,154.956L 156.019,154.956C 155.88,132.776 137.768,114.837 115.56,114.816 Z "/>
		<path fill="#DEDEDE" fill-opacity="1" fill-rule="evenodd" stroke-width="0.2" stroke-linejoin="round" d="M 53.0716,225.101L 75.4972,225.101L 75.4974,154.962L 53.0718,154.962L 53.0716,225.101 Z "/>
		<path fill="#DEDEDE" fill-opacity="1" fill-rule="evenodd" stroke-width="0.2" stroke-linejoin="round" d="M 155.957,225.086L 178.383,225.086L 178.399,154.831L 155.973,154.831L 155.957,225.086 Z "/>
		<ellipse fill="none" stroke-width="0.640004" stroke-linejoin="round" stroke="#989898" stroke-opacity="1" cx="99.5543" cy="155.861" rx="62.0484" ry="62.0483"/>
		<text transform="matrix(1.0000000000000000 0.0000000000000000 0.0000000000000000 1.0000000000000000 190.00 191.00)" xml:space="preserve">
			<tspan style=" font-family:Arial; font-size:9.715213pt;" letter-spacing="0.00em" fill="#000000" fill-opacity="1" stroke-width="0.2" stroke-linejoin="round">qk</tspan>
		</text>
		<g>
			<rect x="65.5184" y="203.498" fill="#FFFFFF" fill-opacity="1" stroke-width="0.2" stroke-linejoin="round" width="16.2073" height="16.2074"/>
			<text transform="matrix(1.0000000000000000 0.0000000000000000 0.0000000000000000 1.0000000000000000 63.00 216.00)" xml:space="preserve">
				<tspan style=" font-family:Arial; font-size:9.715213pt;" letter-spacing="0.00em" fill="#000000" fill-opacity="1" stroke-width="0.2" stroke-linejoin="round">VX</tspan>
			</text>
		</g>
		<ellipse fill="none" stroke-width="0.640004" stroke-linejoin="round" stroke="#2B2B2B" stroke-opacity="1" cx="115.697" cy="155.356" rx="62.0484" ry="62.0483"/>
		<line fill="none" stroke-width="0.640004" stroke-linejoin="round" stroke="#2B2B2B" stroke-opacity="1" x1="53.2806" y1="67.2794" x2="53.2808" y2="224.89"/>
		<line fill="none" stroke-width="0.640004" stroke-linejoin="round" stroke="#2B2B2B" stroke-opacity="1" x1="177.83" y1="67.2979" x2="177.83" y2="224.909"/>
		<line fill="none" stroke-width="0.640004" stroke-linejoin="round" stroke="#2B2B2B" stroke-opacity="1" x1="117.605" y1="157.201" x2="114.323" y2="153.918"/>
		<line fill="none" stroke-width="0.640004" stroke-linejoin="round" stroke="#2B2B2B" stroke-opacity="1" x1="114.324" y1="157.2" x2="117.606" y2="153.918"/>
		<path fill="#000000" fill-opacity="1" stroke-width="0.32" stroke-linejoin="round" d="M 52.5078,214.49L 52.5078,209.156L 53.7878,209.156L 53.7878,214.49L 52.5078,214.49 Z M 52.5078,203.823L 52.5077,198.49L 53.7877,198.49L 53.7877,203.823L 52.5078,203.823 Z M 52.5077,193.156L 52.5077,187.823L 53.7877,187.823L 53.7877,193.156L 52.5077,193.156 Z M 52.5077,182.49L 52.5077,177.156L 53.7877,177.156L 53.7877,182.49L 52.5077,182.49 Z M 52.5076,171.823L 52.5076,166.49L 53.7876,166.49L 53.7876,171.823L 52.5076,171.823 Z M 52.5076,161.156L 52.5076,155.823L 53.7876,155.823L 53.7876,161.156L 52.5076,161.156 Z M 53.0267,150.449L 53.1252,149.701L 53.8254,145.78L 53.9747,145.142L 55.2289,145.398L 55.0796,146.036L 54.3905,149.894L 54.2992,150.588L 53.0267,150.449 Z M 55.2719,139.933L 56.467,135.943L 56.8957,134.811L 58.109,135.219L 57.6804,136.351L 56.5094,140.26L 55.2719,139.933 Z M 58.8505,129.799L 61.1435,124.983L 62.3221,125.483L 60.0291,130.298L 58.8505,129.799 Z M 63.8781,120.341L 64.7913,118.816L 66.9793,115.93L 68.0419,116.644L 65.8539,119.53L 65.0079,120.942L 63.8781,120.341 Z M 70.4287,111.778L 74.1486,107.956L 75.1213,108.788L 71.4014,112.61L 70.4287,111.778 Z M 78.4053,104.609L 80.3745,103.07L 82.9136,101.62L 83.6288,102.681L 81.0897,104.131L 79.2622,105.559L 78.4053,104.609 Z M 87.6306,98.9367L 92.6007,97.0023L 93.1529,98.1571L 88.1827,100.091L 87.6306,98.9367 Z M 97.7391,95.2953L 102.936,94.0985L 103.313,95.3218L 98.116,96.5187L 97.7391,95.2953 Z M 108.283,93.2667L 113.595,92.7872L 113.796,94.0513L 108.484,94.5308L 108.283,93.2667 Z M 119.031,92.7955L 124.336,93.3416L 124.284,94.6205L 118.979,94.0744L 119.031,92.7955 Z M 129.659,94.2708L 134.845,95.5173L 134.63,96.7792L 129.444,95.5327L 129.659,94.2708 Z M 139.938,97.3475L 144.044,98.972L 144.92,99.4727L 144.364,100.626L 143.489,100.125L 139.552,98.5678L 139.938,97.3475 Z M 149.549,102.121L 150.989,102.945L 153.965,105.251L 153.252,106.314L 150.275,104.007L 148.993,103.274L 149.549,102.121 Z M 158.106,108.734L 161.858,112.523L 161.008,113.48L 157.255,109.69L 158.106,108.734 Z M 165.195,116.785L 166.148,118.01L 168.178,121.286L 167.125,122.014L 165.096,118.738L 164.232,117.627L 165.195,116.785 Z M 170.794,125.999L 172.286,129.001L 173.042,130.893L 171.873,131.413L 171.117,129.521L 169.674,126.619L 170.794,125.999 Z M 174.925,135.931L 175.974,139.206L 176.451,141.083L 175.22,141.433L 174.743,139.556L 173.72,136.361L 174.925,135.931 Z M 177.631,146.319L 177.828,147.313L 178.261,150.171L 178.424,151.651L 177.155,151.814L 176.991,150.334L 176.567,147.531L 176.382,146.599L 177.631,146.319 Z M 178.514,157.062L 178.51,162.396L 177.23,162.395L 177.234,157.061L 178.514,157.062 Z M 178.506,167.729L 178.502,173.062L 177.222,173.061L 177.226,167.728L 178.506,167.729 Z M 178.497,178.396L 178.493,183.729L 177.213,183.728L 177.217,178.395L 178.497,178.396 Z M 178.489,189.062L 178.485,194.396L 177.205,194.395L 177.209,189.061L 178.489,189.062 Z M 178.481,199.729L 178.48,201.264L 177.2,201.263L 177.201,199.728L 178.481,199.729 Z M 52.5078,225.156L 52.5078,219.823L 53.7878,219.823L 53.7878,225.156L 52.5078,225.156 Z "/>
		<g>
			<rect x="170.434" y="79.3297" fill="#FFFFFF" fill-opacity="1" stroke-width="0.2" stroke-linejoin="round" width="16.2074" height="16.2073"/>
			<text transform="matrix(1.0000000000000000 0.0000000000000000 0.0000000000000000 1.0000000000000000 168.00 91.00)" xml:space="preserve">
				<tspan style=" font-family:Arial; font-size:9.715213pt;" letter-spacing="0.00em" fill="#000000" fill-opacity="1" stroke-width="0.2" stroke-linejoin="round">VX</tspan>
			</text>
		</g>
		<rect x="151.193" y="104.001" fill="#FFFFFF" fill-opacity="1" stroke-width="0.2" stroke-linejoin="round" width="16.2074" height="16.2074"/>
		<text transform="matrix(1.0000000000000000 0.0000000000000000 0.0000000000000000 1.0000000000000000 151.00 115.00)" xml:space="preserve">
			<tspan style=" font-family:Arial; font-size:9.715213pt;" letter-spacing="0.00em" fill="#000000" fill-opacity="1" stroke-width="0.2" stroke-linejoin="round">VX</tspan>
		</text>
		<text transform="matrix(1.0000000000000000 0.0000000000000000 0.0000000000000000 1.0000000000000000 20.00 137.00)" xml:space="preserve">
			<tspan style=" font-family:Arial; font-size:9.715213pt;" letter-spacing="0.00em" fill="#000000" fill-opacity="1" stroke-width="0.2" stroke-linejoin="round">p</tspan>
		</text>
		<line fill="none" stroke-width="0.640004" stroke-linejoin="round" stroke="#989898" stroke-opacity="1" x1="68.9413" y1="157.08" x2="65.6595" y2="153.798"/>
		<line fill="none" stroke-width="0.640004" stroke-linejoin="round" stroke="#989898" stroke-opacity="1" x1="65.6607" y1="157.078" x2="68.9429" y2="153.796"/>
		<line fill="none" stroke-width="0.640004" stroke-linejoin="round" stroke="#989898" stroke-opacity="1" x1="37.4683" y1="67.1041" x2="37.4674" y2="224.715"/>
		<path fill="none" stroke-width="1.28" stroke-linejoin="round" stroke="#000000" stroke-opacity="1" d="M 37.3655,156.014C 37.3655,125.186 59.8482,99.6083 89.3117,94.7838"/>
		<line fill="none" stroke-width="1.28" stroke-linejoin="round" stroke="#000000" stroke-opacity="1" x1="37.4074" y1="155.711" x2="37.4612" y2="156.294"/>
		<path fill="none" stroke-width="1.28" stroke-linejoin="round" stroke="#000000" stroke-opacity="1" d="M 104.816,31.5143C 114.141,34.0305 116.347,43.6034 116.347,43.6033C 116.347,43.6033 134.014,86.6402 87.7439,95.2035"/>
		<path fill="#FFFFFF" fill-opacity="1" stroke-width="0.640004" stroke-linejoin="round" stroke="#000000" stroke-opacity="1" d="M 38.0214,146.815L 48.4265,130.634L 41.6299,131.627L 36.4969,127.638L 38.0214,146.815 Z "/>
		<line fill="none" stroke-width="1.28" stroke-linejoin="round" stroke="#000000" stroke-opacity="1" x1="37.3995" y1="225.181" x2="37.3999" y2="155.695"/>
		<g>
			<rect x="48.236" y="79.3297" fill="#FFFFFF" fill-opacity="1" stroke-width="0.2" stroke-linejoin="round" width="16.2073" height="16.2073"/>
			<text transform="matrix(1.0000000000000000 0.0000000000000000 0.0000000000000000 1.0000000000000000 46.00 91.00)" xml:space="preserve">
				<tspan style=" font-family:Arial; font-size:9.715213pt;" letter-spacing="0.00em" fill="#000000" fill-opacity="1" stroke-width="0.2" stroke-linejoin="round">VX</tspan>
			</text>
		</g>
		<line fill="none" stroke-width="0.640004" stroke-linejoin="round" stroke="#000000" stroke-opacity="1" x1="38.2486" y1="145.976" x2="41.5789" y2="131.712"/>
		<path fill="#FFFFFF" fill-opacity="1" stroke-width="0.640004" stroke-linejoin="round" stroke="#000000" stroke-opacity="1" d="M 75.8501,98.2654L 95.062,99.2635L 90.0278,94.6802L 91.7396,87.4205L 75.8501,98.2654 Z "/>
		<line fill="none" stroke-width="0.640004" stroke-linejoin="round" stroke="#000000" stroke-opacity="1" x1="76.2742" y1="98.1483" x2="89.9006" y2="94.6793"/>
		<line fill="none" stroke-width="1.28" stroke-linejoin="round" stroke="#000000" stroke-opacity="1" x1="177.849" y1="225.088" x2="177.849" y2="175.52"/>
		<path fill="#9B9B9B" fill-opacity="1" stroke-width="0.640004" stroke-linejoin="round" stroke="#000000" stroke-opacity="1" d="M 177.834,173.44L 171.433,191.582L 177.819,189.051L 183.732,191.751L 177.834,173.44 Z "/>
		<line fill="none" stroke-width="0.640004" stroke-linejoin="round" stroke="#000000" stroke-opacity="1" x1="177.806" y1="174.309" x2="177.849" y2="188.957"/>
		<path fill="#FFFFFF" fill-opacity="1" stroke-width="0.640004" stroke-linejoin="round" stroke="#000000" stroke-opacity="1" d="M 122.582,53.5919L 118.069,34.9166L 113.938,39.7215L 107.678,41.4679L 122.582,53.5919 Z "/>
		<line fill="none" stroke-width="0.640004" stroke-linejoin="round" stroke="#000000" stroke-opacity="1" x1="115.38" y1="41.7762" x2="121.73" y2="12.0558"/>
		<line fill="none" stroke-width="0.640004" stroke-linejoin="round" stroke="#000000" stroke-opacity="1" x1="115.474" y1="41.9403" x2="138.705" y2="64.236"/>
		<text transform="matrix(1.0000000000000000 0.0000000000000000 0.0000000000000000 1.0000000000000000 132.00 12.00)" xml:space="preserve">
			<tspan style=" font-family:Arial; font-size:9.679979pt;" letter-spacing="0.00em" fill="#000000" fill-opacity="1" stroke-width="0.2" stroke-linejoin="round">P</tspan>
		</text>
		<text transform="matrix(1.0000000000000000 0.0000000000000000 0.0000000000000000 1.0000000000000000 148.00 63.00)" xml:space="preserve">
			<tspan style=" font-family:Arial; font-size:9.679979pt;" letter-spacing="0.00em" fill="#000000" fill-opacity="1" stroke-width="0.2" stroke-linejoin="round">p</tspan>
		</text>
		<text transform="matrix(1.0000000000000000 0.0000000000000000 0.0000000000000000 1.0000000000000000 86.00 72.00)" xml:space="preserve">
			<tspan style=" font-family:Arial; font-size:9.679979pt;" letter-spacing="0.00em" fill="#000000" fill-opacity="1" stroke-width="0.2" stroke-linejoin="round">pd</tspan>
		</text>
		<line fill="none" stroke-width="0.640004" stroke-linejoin="round" stroke="#000000" stroke-opacity="1" x1="11.279" y1="25.8096" x2="11.279" y2="55.4091"/>
		<line fill="none" stroke-width="0.640004" stroke-linejoin="round" stroke="#000000" stroke-opacity="1" x1="40.6757" y1="55.1696" x2="11.0761" y2="55.1696"/>
		<text transform="matrix(1.0000000000000000 0.0000000000000000 0.0000000000000000 1.0000000000000000 1.00 69.00)" xml:space="preserve">
			<tspan style=" font-family:Arial; font-size:9.679979pt;" letter-spacing="0.00em" fill="#000000" fill-opacity="1" stroke-width="0.2" stroke-linejoin="round">Ow</tspan>
		</text>
		<line fill="none" stroke-width="0.640004" stroke-linejoin="round" stroke="#000000" stroke-opacity="1" x1="12.2122" y1="55.0274" x2="114.584" y2="41.6452"/>
		<g>
			<rect x="49.3746" y="37.1368" fill="#FFFFFF" fill-opacity="1" stroke-width="0.2" stroke-linejoin="round" width="24.3393" height="16.1863"/>
			<text transform="matrix(1.0000000000000000 0.0000000000000000 0.0000000000000000 1.0000000000000000 53.00 52.00)" xml:space="preserve">
				<tspan style=" font-family:Arial; font-size:9.679979pt;" letter-spacing="0.00em" fill="#000000" fill-opacity="1" stroke-width="0.2" stroke-linejoin="round">p</tspan>
			</text>
		</g>
		<line fill="none" stroke-width="0.640004" stroke-linejoin="round" stroke="#000000" stroke-opacity="1" x1="37.3511" y1="15.9254" x2="59.6832" y2="15.9254"/>
		<text transform="matrix(1.0000000000000000 0.0000000000000000 0.0000000000000000 1.0000000000000000 44.00 12.00)" xml:space="preserve">
			<tspan style=" font-family:Arial; font-size:9.679979pt;" letter-spacing="0.00em" fill="#000000" fill-opacity="1" stroke-width="0.2" stroke-linejoin="round">w</tspan>
		</text>
		<line fill="none" stroke-width="0.640004" stroke-linejoin="round" stroke="#000000" stroke-opacity="1" x1="113.924" y1="39.7225" x2="122.461" y2="53.4698"/>
		<path fill="#000000" fill-opacity="1" stroke-width="0.2" stroke-linejoin="round" d="M 38.712,52.0748L 38.7201,58.2057L 44.3321,55.1334L 38.712,52.0748 Z "/>
		<path fill="#000000" fill-opacity="1" stroke-width="0.2" stroke-linejoin="round" d="M 8.2258,27.5004L 14.3568,27.496L 11.2877,21.8821L 8.2258,27.5004 Z "/>
		<path fill="#000000" fill-opacity="1" stroke-width="0.2" stroke-linejoin="round" d="M 138.081,59.0865L 133.635,63.3077L 139.724,65.2704L 138.081,59.0865 Z "/>
		<path fill="#000000" fill-opacity="1" stroke-width="0.2" stroke-linejoin="round" d="M 118.357,13.8832L 124.389,14.9784L 122.377,8.90515L 118.357,13.8832 Z "/>
		<path fill="#000000" fill-opacity="1" stroke-width="0.2" stroke-linejoin="round" d="M 102.368,75.0714L 107.231,71.3376L 101.38,68.7496L 102.368,75.0714 Z "/>
		<path fill="#000000" fill-opacity="1" stroke-width="0.2" stroke-linejoin="round" d="M 58.7913,12.5819L 58.7994,18.7128L 64.4114,15.6405L 58.7913,12.5819 Z "/>
		<path fill="#000000" fill-opacity="1" stroke-width="0.2" stroke-linejoin="round" d="M 109.587,39.6244L 110.586,45.6734L 115.627,41.734L 109.587,39.6244 Z "/>
		<line fill="none" stroke-width="0.640004" stroke-linejoin="round" stroke="#000000" stroke-opacity="1" x1="103.334" y1="72.3143" x2="115.497" y2="42.081"/>
		<g>
			<rect x="29.9808" y="79.3297" fill="#FFFFFF" fill-opacity="1" stroke-width="0.2" stroke-linejoin="round" width="16.2073" height="16.2073"/>
			<text transform="matrix(1.0000000000000000 0.0000000000000000 0.0000000000000000 1.0000000000000000 27.00 91.00)" xml:space="preserve">
				<tspan style=" font-family:Arial; font-size:9.715213pt;" letter-spacing="0.00em" fill="#000000" fill-opacity="1" stroke-width="0.2" stroke-linejoin="round">VX</tspan>
			</text>
		</g>
		<path fill="#DEDEDE" fill-opacity="1" fill-rule="evenodd" stroke-width="0.2" stroke-linejoin="round" d="M 181.868,9.51837L 210.453,9.51862L 210.453,28.1032L 181.868,28.1031L 181.868,9.51837 Z "/>
		<text transform="matrix(1.0000000000000000 0.0000000000000000 0.0000000000000000 1.0000000000000000 219.00 24.00)" xml:space="preserve">
			<tspan style=" font-family:Arial; font-size:9.679979pt;" letter-spacing="0.00em" fill="#000000" fill-opacity="1" stroke-width="0.2" stroke-linejoin="round">P</tspan>
		</text>
		<line fill="none" stroke-width="1.28" stroke-linejoin="round" stroke="#000000" stroke-opacity="1" x1="181.868" y1="47.0182" x2="210.454" y2="47.0184"/>
		<text transform="matrix(1.0000000000000000 0.0000000000000000 0.0000000000000000 1.0000000000000000 219.00 50.00)" xml:space="preserve">
			<tspan style=" font-family:Arial; font-size:9.679979pt;" letter-spacing="0.00em" fill="#000000" fill-opacity="1" stroke-width="0.2" stroke-linejoin="round">P</tspan>
		</text>
	</g>
</svg>
