<?xml version="1.0" encoding="utf-8"?>
<!DOCTYPE svg PUBLIC "-//W3C//DTD SVG 1.1//EN" "http://www.w3.org/Graphics/SVG/1.1/DTD/svg11.dtd">
<svg xmlns="http://www.w3.org/2000/svg" xmlns:xlink="http://www.w3.org/1999/xlink" version="1.1" baseProfile="full" width="295.04" height="175.05" viewBox="0 0 295.04 175.05" enable-background="new 0 0 295.04 175.05" xml:space="preserve">
	<g>
		<path fill="#DEDEDE" fill-opacity="1" fill-rule="evenodd" stroke-width="0.2" stroke-linejoin="round" d="M 201.222,23.2328C 207.053,21.2795 213.025,19.9187 219.486,19.8048L 219.486,51.8636C 204.173,52.4262 191.822,64.5906 190.964,79.8268L 190.977,92.4539L 190.964,92.7398L 190.964,93.0298C 190.977,93.7581 191.082,94.5156 191.062,95.2314L 191.067,95.2383L 191.067,97.0099L 190.964,137.125L 190.964,144.342L 190.945,144.342L 190.945,144.485L 190.934,145.295L 190.992,148.986L 173.2,148.99C 173.479,128.961 172.479,100.465 173.337,81.8299C 173.756,72.7288 175.776,65.7584 176.367,63.7016C 178.587,55.9835 177.003,33.243 200.777,23.4025L 201.222,23.2328 Z "/>
		<ellipse fill="none" stroke-width="0.640004" stroke-linejoin="round" stroke="#989898" stroke-opacity="1" cx="220.579" cy="81.4115" rx="61.7273" ry="61.7273"/>
		<line fill="none" stroke-width="0.640004" stroke-linejoin="round" stroke="#000000" stroke-opacity="1" x1="222.748" y1="83.4478" x2="218.467" y2="79.1666"/>
		<line fill="none" stroke-width="0.640004" stroke-linejoin="round" stroke="#2B2B2B" stroke-opacity="1" x1="283.011" y1="4.75403" x2="283.01" y2="148.927"/>
		<path fill="none" stroke-width="1.28" stroke-linejoin="round" stroke="#000000" stroke-opacity="1" d="M 212.566,20.5261C 214.291,19.7869 220.904,19.8394 220.904,19.8394C 254.995,19.8394 282.631,47.4757 282.631,81.5667"/>
		<line fill="none" stroke-width="0.640004" stroke-linejoin="round" stroke="#000000" stroke-opacity="1" x1="218.468" y1="83.4451" x2="222.75" y2="79.1645"/>
		<g>
			<path fill="#FFFFFF" fill-opacity="1" stroke-width="0.2" stroke-linejoin="round" d="M 289.402,14.4017L 276.953,14.4017L 276.953,30.3712L 289.408,30.3707L 289.402,14.4017 Z "/>
			<text transform="matrix(1.0000000000000000 0.0000000000000000 0.0000000000000000 1.0000000000000000 273.00 27.00)" xml:space="preserve">
				<tspan style=" font-family:Arial; font-size:9.680036pt;" letter-spacing="0.00em" fill="#000000" fill-opacity="1" stroke-width="0.2" stroke-linejoin="round">VX</tspan>
			</text>
		</g>
		<line fill="none" stroke-width="1.28" stroke-linejoin="round" stroke="#000000" stroke-opacity="1" x1="282.63" y1="148.938" x2="282.63" y2="81.3682"/>
		<ellipse fill="none" stroke-width="0.640004" stroke-linejoin="round" stroke="#2B2B2B" stroke-opacity="1" cx="221.117" cy="81.6303" rx="47.662" ry="47.662"/>
		<line fill="none" stroke-width="0.640004" stroke-linejoin="round" stroke="#4D4D4D" stroke-opacity="1" x1="173.426" y1="4.67664" x2="173.426" y2="148.85"/>
		<line fill="none" stroke-width="0.640004" stroke-linejoin="round" stroke="#000000" stroke-opacity="1" x1="265.278" y1="98.4432" x2="220.778" y2="81.3763"/>
		<path fill="none" stroke-width="1.28" stroke-linejoin="round" stroke="#000000" stroke-opacity="1" d="M 212.045,20.1656C 176.502,26.7435 178.896,54.9344 176.372,63.709C 173.763,72.7797 173.365,81.2499 173.365,81.2499L 173.379,81.5152L 173.421,81.9628"/>
		<path fill="#9B9B9B" fill-opacity="1" stroke-width="0.640004" stroke-linejoin="round" stroke="#000000" stroke-opacity="1" d="M 173.851,74.6812L 181.843,62.2519L 176.623,63.015L 172.68,59.9504L 173.851,74.6812 Z "/>
		<path fill="#000000" fill-opacity="1" stroke-width="0.32" stroke-linejoin="round" d="M 172.733,138.543L 172.733,133.21L 174.014,133.21L 174.014,138.543L 172.733,138.543 Z M 172.733,127.877L 172.733,122.543L 174.014,122.543L 174.014,127.877L 172.733,127.877 Z M 172.733,117.21L 172.733,111.877L 174.014,111.877L 174.014,117.21L 172.733,117.21 Z M 172.733,106.543L 172.733,101.21L 174.014,101.21L 174.014,106.543L 172.733,106.543 Z M 172.733,95.8768L 172.733,90.5434L 174.014,90.5434L 174.014,95.8768L 172.733,95.8768 Z M 172.733,85.2101L 172.733,81.6401L 174.014,81.6401L 174.014,85.2101L 172.733,85.2101 Z M 172.733,149.21L 172.733,143.877L 174.014,143.877L 174.014,149.21L 172.733,149.21 Z "/>
		<g>
			<rect x="167.368" y="14.4016" fill="#FFFFFF" fill-opacity="1" stroke-width="0.2" stroke-linejoin="round" width="12.4496" height="15.9697"/>
			<text transform="matrix(1.0000000000000000 0.0000000000000000 0.0000000000000000 1.0000000000000000 164.00 27.00)" xml:space="preserve">
				<tspan style=" font-family:Arial; font-size:9.680036pt;" letter-spacing="0.00em" fill="#000000" fill-opacity="1" stroke-width="0.2" stroke-linejoin="round">VX</tspan>
			</text>
		</g>
		<g>
			<path fill="#FFFFFF" fill-opacity="1" stroke-width="0.2" stroke-linejoin="round" d="M 177.575,143.644L 165.126,143.644L 165.092,155.719L 177.571,155.688L 177.575,143.644 Z "/>
			<text transform="matrix(1.0000000000000000 0.0000000000000000 0.0000000000000000 1.0000000000000000 164.00 154.00)" xml:space="preserve">
				<tspan style=" font-family:Arial; font-size:9.680036pt;" letter-spacing="0.00em" fill="#000000" fill-opacity="1" stroke-width="0.2" stroke-linejoin="round">c1</tspan>
			</text>
		</g>
		<g>
			<rect x="230.323" y="82.5364" fill="#FFFFFF" fill-opacity="1" stroke-width="0.2" stroke-linejoin="round" width="21.2495" height="15.9696"/>
			<text transform="matrix(1.0000000000000000 0.0000000000000000 0.0000000000000000 1.0000000000000000 232.00 94.00)" xml:space="preserve">
				<tspan style=" font-family:Arial; font-size:9.680036pt;" letter-spacing="0.00em" fill="#000000" fill-opacity="1" stroke-width="0.2" stroke-linejoin="round">c</tspan>
				<tspan style=" font-family:Arial; font-size:9.680036pt;" letter-spacing="0.00em" fill="#000000" fill-opacity="1" stroke-width="0.2" stroke-linejoin="round">2</tspan>
			</text>
		</g>
		<path fill="#FFFFFF" fill-opacity="1" stroke-width="0.640004" stroke-linejoin="round" stroke="#000000" stroke-opacity="1" d="M 202.897,22.5244L 217.655,23.291L 213.788,19.7704L 215.103,14.1938L 202.897,22.5244 Z "/>
		<g>
			<path fill="#FFFFFF" fill-opacity="1" stroke-width="0.2" stroke-linejoin="round" d="M 199.477,54.1873L 183.508,54.1871L 183.508,70.1567L 199.477,70.1569L 199.477,54.1873 Z "/>
			<text transform="matrix(1.0000000000000000 0.0000000000000000 0.0000000000000000 1.0000000000000000 185.00 66.00)" xml:space="preserve">
				<tspan style=" font-family:Arial; font-size:9.680036pt;" letter-spacing="0.00em" fill="#000000" fill-opacity="1" stroke-width="0.2" stroke-linejoin="round">qk</tspan>
			</text>
		</g>
		<g>
			<rect x="192.405" y="6.18591" fill="#FFFFFF" fill-opacity="1" stroke-width="0.2" stroke-linejoin="round" width="12.4496" height="12.4496"/>
			<text transform="matrix(1.0000000000000000 0.0000000000000000 0.0000000000000000 1.0000000000000000 195.00 15.00)" xml:space="preserve">
				<tspan style=" font-family:Arial; font-size:9.680036pt;" letter-spacing="0.00em" fill="#000000" fill-opacity="1" stroke-width="0.2" stroke-linejoin="round">p</tspan>
			</text>
		</g>
		<line fill="none" stroke-width="0.640004" stroke-linejoin="round" stroke="#000000" stroke-opacity="1" x1="203.223" y1="22.4342" x2="213.69" y2="19.7695"/>
		<line fill="none" stroke-width="0.640004" stroke-linejoin="round" stroke="#000000" stroke-opacity="1" x1="174.025" y1="74.0375" x2="176.584" y2="63.0803"/>
		<g>
			<path fill="#FFFFFF" fill-opacity="1" stroke-width="0.2" stroke-linejoin="round" d="M 219.226,117.874L 203.256,117.874L 203.256,133.844L 219.226,133.843L 219.226,117.874 Z "/>
			<text transform="matrix(1.0000000000000000 0.0000000000000000 0.0000000000000000 1.0000000000000000 202.00 131.00)" xml:space="preserve">
				<tspan style=" font-family:Arial; font-size:10.560039pt;" letter-spacing="0.00em" fill="#000000" fill-opacity="1" stroke-width="0.2" stroke-linejoin="round">VX</tspan>
			</text>
		</g>
		<line fill="none" stroke-width="0.640004" stroke-linejoin="round" stroke="#989898" stroke-opacity="1" x1="158.857" y1="4.69348" x2="158.857" y2="148.867"/>
		<text transform="matrix(1.0000000000000000 0.0000000000000000 0.0000000000000000 1.0000000000000000 181.00 171.00)" xml:space="preserve">
			<tspan style=" font-family:Arial; font-size:7.040026pt;" letter-spacing="0.00em" fill="#000000" fill-opacity="1" stroke-width="0.2" stroke-linejoin="round">(b) path adjustment</tspan>
		</text>
		<path fill="#000000" fill-opacity="1" stroke-width="0.2" stroke-linejoin="round" d="M 262.593,94.7485L 260.761,99.0937L 265.657,98.5993L 262.593,94.7485 Z "/>
	</g>
	<g>
		<line fill="none" stroke-width="0.640004" stroke-linejoin="round" stroke="#2B2B2B" stroke-opacity="1" x1="137.91" y1="4.64313" x2="137.91" y2="148.816"/>
		<g>
			<path fill="#FFFFFF" fill-opacity="1" stroke-width="0.2" stroke-linejoin="round" d="M 144.686,14.3673L 131.236,14.3673L 131.236,30.3369L 144.696,30.3712L 144.686,14.3673 Z "/>
			<text transform="matrix(1.0000000000000000 0.0000000000000000 0.0000000000000000 1.0000000000000000 128.00 27.00)" xml:space="preserve">
				<tspan style=" font-family:Arial; font-size:9.680036pt;" letter-spacing="0.00em" fill="#000000" fill-opacity="1" stroke-width="0.2" stroke-linejoin="round">VX</tspan>
			</text>
		</g>
		<path fill="#DEDEDE" fill-opacity="1" stroke-width="0.2" stroke-linejoin="round" d="M 14.4062,79.2398L 14.4312,79.2398C 15.3584,46.3359 42.0351,19.875 75.0244,19.2937L 75.0244,51.3525C 59.7109,51.9151 47.3601,64.0795 46.502,79.3157L 46.5148,91.9428L 46.502,92.2287L 46.502,92.5186C 46.5155,93.247 46.6203,94.0045 46.6001,94.7203L 46.6055,94.7272L 46.6055,96.4988L 46.502,136.613L 46.502,143.831L 46.4834,143.831L 46.483,143.974L 46.4723,144.784L 46.5303,148.475L 14.2305,148.482C 14.2305,146.809 14.2093,150.117 14.1991,146.415L 14.1991,144.873L 14.1991,144.56L 14.1991,144.141L 14.1991,143.836L 14.1991,81.2026L 14.4062,79.2398 Z "/>
		<ellipse fill="none" stroke-width="0.640004" stroke-linejoin="round" stroke="#2B2B2B" stroke-opacity="1" cx="75.8516" cy="81.3968" rx="61.7273" ry="61.7273"/>
		<line fill="none" stroke-width="0.640004" stroke-linejoin="round" stroke="#000000" stroke-opacity="1" x1="78.0153" y1="83.4313" x2="73.7395" y2="79.1506"/>
		<line fill="none" stroke-width="0.640004" stroke-linejoin="round" stroke="#000000" stroke-opacity="1" x1="73.7418" y1="83.4311" x2="78.023" y2="79.1501"/>
		<line fill="none" stroke-width="0.640004" stroke-linejoin="round" stroke="#2B2B2B" stroke-opacity="1" x1="14.1484" y1="4.66199" x2="14.1478" y2="148.835"/>
		<line fill="none" stroke-width="0.640004" stroke-linejoin="round" stroke="#000000" stroke-opacity="1" x1="75.9234" y1="81.3229" x2="14.0744" y2="81.3229"/>
		<path fill="#000000" fill-opacity="1" stroke-width="0.2" stroke-linejoin="round" d="M 19.0789,83.6391L 19.0727,78.9235L 14.7563,81.2866L 19.0789,83.6391 Z "/>
		<g>
			<rect x="8.09013" y="14.4017" fill="#FFFFFF" fill-opacity="1" stroke-width="0.2" stroke-linejoin="round" width="12.4495" height="15.9695"/>
			<text transform="matrix(1.0000000000000000 0.0000000000000000 0.0000000000000000 1.0000000000000000 5.00 27.00)" xml:space="preserve">
				<tspan style=" font-family:Arial; font-size:9.680036pt;" letter-spacing="0.00em" fill="#000000" fill-opacity="1" stroke-width="0.2" stroke-linejoin="round">VX</tspan>
			</text>
		</g>
		<path fill="none" stroke-width="1.28" stroke-linejoin="round" stroke="#000000" stroke-opacity="1" d="M 67.5257,20.3422C 69.2505,19.603 75.8631,19.6555 75.8631,19.6555C 109.954,19.6555 137.59,47.2917 137.59,81.3828"/>
		<g>
			<rect x="115.265" y="35.5129" fill="#FFFFFF" fill-opacity="1" stroke-width="0.2" stroke-linejoin="round" width="15.9695" height="12.4496"/>
			<text transform="matrix(1.0000000000000000 0.0000000000000000 0.0000000000000000 1.0000000000000000 114.00 47.00)" xml:space="preserve">
				<tspan style=" font-family:Arial; font-size:9.680036pt;" letter-spacing="0.00em" fill="#000000" fill-opacity="1" stroke-width="0.2" stroke-linejoin="round">VX</tspan>
			</text>
		</g>
		<g>
			<path fill="#FFFFFF" fill-opacity="1" stroke-width="0.2" stroke-linejoin="round" d="M 52.6997,143.645L 40.2501,143.645L 40.2318,155.674L 52.7105,155.674L 52.6997,143.645 Z "/>
			<text transform="matrix(1.0000000000000000 0.0000000000000000 0.0000000000000000 1.0000000000000000 44.00 154.00)" xml:space="preserve">
				<tspan style=" font-family:Arial; font-size:9.680036pt;" letter-spacing="0.00em" fill="#000000" fill-opacity="1" stroke-width="0.2" stroke-linejoin="round">c1</tspan>
			</text>
		</g>
		<g>
			<path fill="#FFFFFF" fill-opacity="1" stroke-width="0.2" stroke-linejoin="round" d="M 64.6687,78.6978L 46.9392,78.6972L 46.9392,91.1468L 64.6687,91.1473L 64.6687,78.6978 Z "/>
			<text transform="matrix(1.0000000000000000 0.0000000000000000 0.0000000000000000 1.0000000000000000 50.00 87.00)" xml:space="preserve">
				<tspan style=" font-family:Arial; font-size:9.680036pt;" letter-spacing="0.00em" fill="#000000" fill-opacity="1" stroke-width="0.2" stroke-linejoin="round">c1</tspan>
			</text>
		</g>
		<path fill="#000000" fill-opacity="1" stroke-width="0.32" stroke-linejoin="round" d="M 13.8207,138.045L 13.8435,132.712L 15.1235,132.718L 15.1007,138.051L 13.8207,138.045 Z M 13.8663,127.379L 13.889,122.046L 15.169,122.051L 15.1462,127.384L 13.8663,127.379 Z M 13.9118,116.712L 13.9345,111.379L 15.2145,111.384L 15.1918,116.718L 13.9118,116.712 Z M 13.9573,106.046L 13.98,100.712L 15.26,100.718L 15.2373,106.051L 13.9573,106.046 Z M 14.0028,95.3792L 14.0256,90.046L 15.3055,90.0513L 15.2828,95.3847L 14.0028,95.3792 Z M 14.0483,84.7126L 14.0711,79.3793L 15.3511,79.3848L 15.3283,84.7181L 14.0483,84.7126 Z M 14.0938,74.0461L 14.1004,72.4985L 14.1116,72.3736L 14.1481,72.2536L 14.2079,72.1434L 14.2889,72.0477L 14.3849,71.9671L 14.4954,71.9078L 14.6155,71.8719L 14.7404,71.8611L 14.1976,71.8625L 14.4982,70.3443L 14.8987,68.6638L 16.1499,68.9338L 15.7494,70.6143L 15.4579,72.0861L 14.7404,73.1412L 15.3804,72.504L 15.3738,74.0516L 14.0938,74.0461 Z M 16.4171,63.4948L 17.1786,61.2507L 18.2994,58.4708L 19.5003,58.9138L 18.3795,61.6937L 17.6397,63.8737L 16.4171,63.4948 Z M 20.5367,53.5897L 20.9681,52.6892L 23.1393,48.8873L 24.2742,49.4794L 22.1029,53.2813L 21.7089,54.1036L 20.5367,53.5897 Z M 26.1129,44.4041L 26.8488,43.329L 29.4548,40.1822L 30.4785,40.9506L 27.8725,44.0974L 27.199,45.0813L 26.1129,44.4041 Z M 33.1526,36.2626L 35.2417,34.2055L 37.1823,32.6782L 38.0303,33.6371L 36.0897,35.1643L 34.0975,37.126L 33.1526,36.2626 Z M 41.5104,29.4484L 46.0624,26.6692L 46.7947,27.719L 42.2428,30.4982L 41.5104,29.4484 Z M 50.9593,24.3763L 53.4451,23.2526L 56.0106,22.4601L 56.4648,23.6568L 53.8994,24.4492L 51.5589,25.5072L 50.9593,24.3763 Z M 61.1064,20.886L 61.2086,20.8544L 66.4314,19.9198L 66.7338,21.1635L 61.5109,22.0981L 61.5606,22.0828L 61.1064,20.886 Z M 13.7752,148.712L 13.798,143.379L 15.078,143.384L 15.0552,148.717L 13.7752,148.712 Z "/>
		<g>
			<path fill="#FFFFFF" fill-opacity="1" stroke-width="0.2" stroke-linejoin="round" d="M 18.9147,143.645L 6.46518,143.645L 6.43163,155.72L 18.9102,155.689L 18.9147,143.645 Z "/>
			<text transform="matrix(1.0000000000000000 0.0000000000000000 0.0000000000000000 1.0000000000000000 6.00 154.00)" xml:space="preserve">
				<tspan style=" font-family:Arial; font-size:9.680036pt;" letter-spacing="0.00em" fill="#000000" fill-opacity="1" stroke-width="0.2" stroke-linejoin="round">c1</tspan>
			</text>
		</g>
		<path fill="#9B9B9B" fill-opacity="1" stroke-width="0.640004" stroke-linejoin="round" stroke="#000000" stroke-opacity="1" d="M 58.1701,22.51L 72.9275,23.2766L 69.0606,19.756L 70.3755,14.1796L 58.1701,22.51 Z "/>
		<text transform="matrix(1.0000000000000000 0.0000000000000000 0.0000000000000000 1.0000000000000000 43.00 19.00)" xml:space="preserve">
			<tspan style=" font-family:Arial; font-size:9.680036pt;" letter-spacing="0.00em" fill="#000000" fill-opacity="1" stroke-width="0.2" stroke-linejoin="round">qk</tspan>
		</text>
		<line fill="none" stroke-width="0.640004" stroke-linejoin="round" stroke="#000000" stroke-opacity="1" x1="58.4957" y1="22.4196" x2="68.9628" y2="19.7548"/>
		<text transform="matrix(1.0000000000000000 0.0000000000000000 0.0000000000000000 1.0000000000000000 37.00 171.00)" xml:space="preserve">
			<tspan style=" font-family:Arial; font-size:7.462672pt;" letter-spacing="0.00em" fill="#000000" fill-opacity="1" stroke-width="0.2" stroke-linejoin="round">(a) initial path</tspan>
		</text>
		<line fill="none" stroke-width="1.28" stroke-linejoin="round" stroke="#000000" stroke-opacity="1" x1="137.59" y1="148.754" x2="137.59" y2="81.1844"/>
	</g>
</svg>
