<?xml version="1.0" encoding="utf-8"?>
<!DOCTYPE svg PUBLIC "-//W3C//DTD SVG 1.1//EN" "http://www.w3.org/Graphics/SVG/1.1/DTD/svg11.dtd">
<svg xmlns="http://www.w3.org/2000/svg" xmlns:xlink="http://www.w3.org/1999/xlink" version="1.1" baseProfile="full" width="295.04" height="265.746" viewBox="0 0 295.04 265.75" enable-background="new 0 0 295.04 265.75" xml:space="preserve">
	<path fill="#2B2B2B" fill-opacity="1" stroke-width="0.32" stroke-linejoin="round" d="M 101.035,53.6179L 96.2027,55.8748L 95.7468,54.6788L 100.579,52.4218L 101.035,53.6179 Z M 111.142,50.5445L 106.029,52.0626L 105.761,50.8111L 110.873,49.293L 111.142,50.5445 Z "/>
	<path fill="none" stroke-width="1.28" stroke-linejoin="round" stroke="#2B2B2B" stroke-opacity="1" d="M 128.382,48.6757C 127.048,48.5917 125.706,48.5494 124.356,48.5494C 119.772,48.5494 115.267,49.039 110.868,49.9835"/>
	<g>
		<path fill="#DEDEDE" fill-opacity="1" fill-rule="evenodd" stroke-width="0.2" stroke-linejoin="round" d="M 201.222,113.929C 207.053,111.975 213.025,110.615 219.486,110.501L 219.486,142.56C 204.173,143.122 191.822,155.287 190.964,170.523L 190.977,183.15L 190.964,183.436L 190.964,183.726C 190.977,184.454 191.082,185.211 191.062,185.927L 191.067,185.934L 191.067,187.706L 190.964,227.82L 190.964,235.038L 190.945,235.038L 190.945,235.181L 190.934,235.991L 190.992,239.682L 173.2,239.686C 173.479,219.657 172.479,191.161 173.337,172.526C 173.756,163.425 175.776,156.454 176.367,154.398C 178.587,146.679 177.003,123.939 200.777,114.098L 201.222,113.929 Z "/>
		<ellipse fill="none" stroke-width="0.640004" stroke-linejoin="round" stroke="#989898" stroke-opacity="1" cx="220.579" cy="172.107" rx="61.7273" ry="61.7273"/>
		<line fill="none" stroke-width="0.640004" stroke-linejoin="round" stroke="#000000" stroke-opacity="1" x1="222.748" y1="174.144" x2="218.467" y2="169.862"/>
		<line fill="none" stroke-width="0.640004" stroke-linejoin="round" stroke="#2B2B2B" stroke-opacity="1" x1="283.011" y1="95.4499" x2="283.01" y2="239.623"/>
		<path fill="none" stroke-width="1.28" stroke-linejoin="round" stroke="#000000" stroke-opacity="1" d="M 212.566,111.222C 214.291,110.483 220.904,110.535 220.904,110.535C 254.995,110.535 282.631,138.172 282.631,172.263"/>
		<line fill="none" stroke-width="0.640004" stroke-linejoin="round" stroke="#000000" stroke-opacity="1" x1="218.468" y1="174.141" x2="222.749" y2="169.86"/>
		<g>
			<path fill="#FFFFFF" fill-opacity="1" stroke-width="0.2" stroke-linejoin="round" d="M 289.402,105.098L 276.953,105.098L 276.953,121.067L 289.408,121.067L 289.402,105.098 Z "/>
			<text transform="matrix(1.0000000000000000 0.0000000000000000 0.0000000000000000 1.0000000000000000 273.00 118.00)" xml:space="preserve">
				<tspan style=" font-family:Arial; font-size:9.680036pt;" letter-spacing="0.00em" fill="#000000" fill-opacity="1" stroke-width="0.2" stroke-linejoin="round">VX</tspan>
			</text>
		</g>
		<line fill="none" stroke-width="1.28" stroke-linejoin="round" stroke="#000000" stroke-opacity="1" x1="282.63" y1="239.634" x2="282.63" y2="172.064"/>
		<ellipse fill="none" stroke-width="0.640004" stroke-linejoin="round" stroke="#2B2B2B" stroke-opacity="1" cx="221.117" cy="172.326" rx="47.662" ry="47.662"/>
		<line fill="none" stroke-width="0.640004" stroke-linejoin="round" stroke="#4D4D4D" stroke-opacity="1" x1="173.426" y1="95.3725" x2="173.426" y2="239.546"/>
		<line fill="none" stroke-width="0.640004" stroke-linejoin="round" stroke="#000000" stroke-opacity="1" x1="265.278" y1="189.139" x2="220.778" y2="172.072"/>
		<path fill="none" stroke-width="1.28" stroke-linejoin="round" stroke="#000000" stroke-opacity="1" d="M 212.045,110.862C 176.502,117.439 178.896,145.63 176.372,154.405C 173.763,163.476 173.365,171.946 173.365,171.946L 173.379,172.211L 173.421,172.659"/>
		<path fill="#9B9B9B" fill-opacity="1" stroke-width="0.640004" stroke-linejoin="round" stroke="#000000" stroke-opacity="1" d="M 173.851,165.377L 181.843,152.948L 176.623,153.711L 172.68,150.646L 173.851,165.377 Z "/>
		<path fill="#000000" fill-opacity="1" stroke-width="0.32" stroke-linejoin="round" d="M 172.733,229.239L 172.733,223.906L 174.013,223.906L 174.013,229.239L 172.733,229.239 Z M 172.733,218.573L 172.733,213.239L 174.013,213.239L 174.013,218.573L 172.733,218.573 Z M 172.733,207.906L 172.733,202.573L 174.013,202.573L 174.013,207.906L 172.733,207.906 Z M 172.733,197.239L 172.733,191.906L 174.013,191.906L 174.013,197.239L 172.733,197.239 Z M 172.733,186.573L 172.733,181.239L 174.013,181.239L 174.013,186.573L 172.733,186.573 Z M 172.733,175.906L 172.733,172.336L 174.013,172.336L 174.013,175.906L 172.733,175.906 Z M 172.733,239.906L 172.733,234.573L 174.013,234.573L 174.013,239.906L 172.733,239.906 Z "/>
		<g>
			<rect x="167.368" y="105.098" fill="#FFFFFF" fill-opacity="1" stroke-width="0.2" stroke-linejoin="round" width="12.4496" height="15.9696"/>
			<text transform="matrix(1.0000000000000000 0.0000000000000000 0.0000000000000000 1.0000000000000000 164.00 118.00)" xml:space="preserve">
				<tspan style=" font-family:Arial; font-size:9.680036pt;" letter-spacing="0.00em" fill="#000000" fill-opacity="1" stroke-width="0.2" stroke-linejoin="round">VX</tspan>
			</text>
		</g>
		<g>
			<path fill="#FFFFFF" fill-opacity="1" stroke-width="0.2" stroke-linejoin="round" d="M 177.575,234.34L 165.126,234.34L 165.092,246.415L 177.571,246.384L 177.575,234.34 Z "/>
			<text transform="matrix(1.0000000000000000 0.0000000000000000 0.0000000000000000 1.0000000000000000 164.00 245.00)" xml:space="preserve">
				<tspan style=" font-family:Arial; font-size:9.680036pt;" letter-spacing="0.00em" fill="#000000" fill-opacity="1" stroke-width="0.2" stroke-linejoin="round">c1</tspan>
			</text>
		</g>
		<g>
			<rect x="230.323" y="173.232" fill="#FFFFFF" fill-opacity="1" stroke-width="0.2" stroke-linejoin="round" width="21.2495" height="15.9696"/>
			<text transform="matrix(1.0000000000000000 0.0000000000000000 0.0000000000000000 1.0000000000000000 232.00 185.00)" xml:space="preserve">
				<tspan style=" font-family:Arial; font-size:9.680036pt;" letter-spacing="0.00em" fill="#000000" fill-opacity="1" stroke-width="0.2" stroke-linejoin="round">c2</tspan>
			</text>
		</g>
		<path fill="#FFFFFF" fill-opacity="1" stroke-width="0.640004" stroke-linejoin="round" stroke="#000000" stroke-opacity="1" d="M 203.356,114.421L 218.005,112.477L 213.56,109.723L 213.834,104L 203.356,114.421 Z "/>
		<g>
			<path fill="#FFFFFF" fill-opacity="1" stroke-width="0.2" stroke-linejoin="round" d="M 199.477,144.883L 183.508,144.883L 183.508,160.853L 199.477,160.853L 199.477,144.883 Z "/>
			<text transform="matrix(1.0000000000000000 0.0000000000000000 0.0000000000000000 1.0000000000000000 185.00 156.00)" xml:space="preserve">
				<tspan style=" font-family:Arial; font-size:9.680036pt;" letter-spacing="0.00em" fill="#000000" fill-opacity="1" stroke-width="0.2" stroke-linejoin="round">qk</tspan>
			</text>
		</g>
		<g>
			<rect x="192.405" y="96.8819" fill="#FFFFFF" fill-opacity="1" stroke-width="0.2" stroke-linejoin="round" width="12.4496" height="12.4495"/>
			<text transform="matrix(1.0000000000000000 0.0000000000000000 0.0000000000000000 1.0000000000000000 195.00 105.00)" xml:space="preserve">
				<tspan style=" font-family:Arial; font-size:9.680036pt;" letter-spacing="0.00em" fill="#000000" fill-opacity="1" stroke-width="0.2" stroke-linejoin="round">p</tspan>
			</text>
		</g>
		<line fill="none" stroke-width="0.640004" stroke-linejoin="round" stroke="#000000" stroke-opacity="1" x1="203.717" y1="114.257" x2="213.516" y2="109.712"/>
		<line fill="none" stroke-width="0.640004" stroke-linejoin="round" stroke="#000000" stroke-opacity="1" x1="174.025" y1="164.733" x2="176.584" y2="153.776"/>
		<g>
			<path fill="#FFFFFF" fill-opacity="1" stroke-width="0.2" stroke-linejoin="round" d="M 219.226,208.57L 203.256,208.57L 203.256,224.54L 219.226,224.539L 219.226,208.57 Z "/>
			<text transform="matrix(1.0000000000000000 0.0000000000000000 0.0000000000000000 1.0000000000000000 202.00 222.00)" xml:space="preserve">
				<tspan style=" font-family:Arial; font-size:10.560039pt;" letter-spacing="0.00em" fill="#000000" fill-opacity="1" stroke-width="0.2" stroke-linejoin="round">VX</tspan>
			</text>
		</g>
		<line fill="none" stroke-width="0.640004" stroke-linejoin="round" stroke="#989898" stroke-opacity="1" x1="158.857" y1="95.3893" x2="158.857" y2="239.562"/>
		<text transform="matrix(1.0000000000000000 0.0000000000000000 0.0000000000000000 1.0000000000000000 181.00 261.00)" xml:space="preserve">
			<tspan style=" font-family:Arial; font-size:7.040026pt;" letter-spacing="0.00em" fill="#000000" fill-opacity="1" stroke-width="0.2" stroke-linejoin="round">(b) path adjustment</tspan>
		</text>
		<path fill="#000000" fill-opacity="1" stroke-width="0.2" stroke-linejoin="round" d="M 262.593,185.444L 260.761,189.79L 265.657,189.295L 262.593,185.444 Z "/>
	</g>
	<line fill="none" stroke-width="0.640004" stroke-linejoin="round" stroke="#2B2B2B" stroke-opacity="1" x1="137.91" y1="95.3391" x2="137.91" y2="239.512"/>
	<g>
		<path fill="#FFFFFF" fill-opacity="1" stroke-width="0.2" stroke-linejoin="round" d="M 144.686,105.063L 131.236,105.063L 131.236,121.033L 144.696,121.067L 144.686,105.063 Z "/>
		<text transform="matrix(1.0000000000000000 0.0000000000000000 0.0000000000000000 1.0000000000000000 128.00 118.00)" xml:space="preserve">
			<tspan style=" font-family:Arial; font-size:9.680036pt;" letter-spacing="0.00em" fill="#000000" fill-opacity="1" stroke-width="0.2" stroke-linejoin="round">VX</tspan>
		</text>
	</g>
	<path fill="#DEDEDE" fill-opacity="1" stroke-width="0.2" stroke-linejoin="round" d="M 14.4062,169.936L 14.4311,169.936C 15.3584,137.032 42.0351,110.571 75.0243,109.99L 75.0243,142.048C 59.7109,142.611 47.36,154.775 46.5019,170.012L 46.5148,182.639L 46.5019,182.925L 46.5019,183.215C 46.5154,183.943 46.6203,184.7 46.6001,185.416L 46.6055,185.423L 46.6055,187.195L 46.5019,227.309L 46.5019,234.527L 46.4833,234.527L 46.483,234.67L 46.4723,235.48L 46.5303,239.171L 14.2304,239.178C 14.2304,237.505 14.2092,240.813 14.1991,237.111L 14.1991,235.569L 14.1991,235.256L 14.1991,234.837L 14.1991,234.532L 14.1991,171.898L 14.4062,169.936 Z "/>
	<ellipse fill="none" stroke-width="0.640004" stroke-linejoin="round" stroke="#2B2B2B" stroke-opacity="1" cx="75.8516" cy="172.093" rx="61.7273" ry="61.7273"/>
	<line fill="none" stroke-width="0.640004" stroke-linejoin="round" stroke="#000000" stroke-opacity="1" x1="78.0152" y1="174.127" x2="73.7395" y2="169.846"/>
	<line fill="none" stroke-width="0.640004" stroke-linejoin="round" stroke="#000000" stroke-opacity="1" x1="73.7417" y1="174.127" x2="78.023" y2="169.846"/>
	<line fill="none" stroke-width="0.640004" stroke-linejoin="round" stroke="#2B2B2B" stroke-opacity="1" x1="14.1483" y1="95.3578" x2="14.1477" y2="239.531"/>
	<line fill="none" stroke-width="0.640004" stroke-linejoin="round" stroke="#000000" stroke-opacity="1" x1="75.9234" y1="172.019" x2="14.0743" y2="172.019"/>
	<path fill="#000000" fill-opacity="1" stroke-width="0.2" stroke-linejoin="round" d="M 19.0789,174.335L 19.0727,169.619L 14.7563,171.982L 19.0789,174.335 Z "/>
	<g>
		<rect x="8.0901" y="105.098" fill="#FFFFFF" fill-opacity="1" stroke-width="0.2" stroke-linejoin="round" width="12.4495" height="15.9696"/>
		<text transform="matrix(1.0000000000000000 0.0000000000000000 0.0000000000000000 1.0000000000000000 5.00 118.00)" xml:space="preserve">
			<tspan style=" font-family:Arial; font-size:9.680036pt;" letter-spacing="0.00em" fill="#000000" fill-opacity="1" stroke-width="0.2" stroke-linejoin="round">VX</tspan>
		</text>
	</g>
	<path fill="none" stroke-width="1.28" stroke-linejoin="round" stroke="#000000" stroke-opacity="1" d="M 67.5256,111.038C 69.2504,110.299 75.863,110.351 75.863,110.351C 109.954,110.351 137.59,137.988 137.59,172.079"/>
	<g>
		<rect x="115.264" y="126.209" fill="#FFFFFF" fill-opacity="1" stroke-width="0.2" stroke-linejoin="round" width="15.9695" height="12.4495"/>
		<text transform="matrix(1.0000000000000000 0.0000000000000000 0.0000000000000000 1.0000000000000000 114.00 137.00)" xml:space="preserve">
			<tspan style=" font-family:Arial; font-size:9.680036pt;" letter-spacing="0.00em" fill="#000000" fill-opacity="1" stroke-width="0.2" stroke-linejoin="round">VX</tspan>
		</text>
	</g>
	<g>
		<path fill="#FFFFFF" fill-opacity="1" stroke-width="0.2" stroke-linejoin="round" d="M 52.6996,234.341L 40.2501,234.341L 40.2318,246.37L 52.7105,246.37L 52.6996,234.341 Z "/>
		<text transform="matrix(1.0000000000000000 0.0000000000000000 0.0000000000000000 1.0000000000000000 44.00 245.00)" xml:space="preserve">
			<tspan style=" font-family:Arial; font-size:9.680036pt;" letter-spacing="0.00em" fill="#000000" fill-opacity="1" stroke-width="0.2" stroke-linejoin="round">c1</tspan>
		</text>
	</g>
	<g>
		<path fill="#FFFFFF" fill-opacity="1" stroke-width="0.2" stroke-linejoin="round" d="M 64.6687,169.394L 46.9391,169.393L 46.9391,181.843L 64.6687,181.843L 64.6687,169.394 Z "/>
		<text transform="matrix(1.0000000000000000 0.0000000000000000 0.0000000000000000 1.0000000000000000 50.00 178.00)" xml:space="preserve">
			<tspan style=" font-family:Arial; font-size:9.680036pt;" letter-spacing="0.00em" fill="#000000" fill-opacity="1" stroke-width="0.2" stroke-linejoin="round">c1</tspan>
		</text>
	</g>
	<path fill="#000000" fill-opacity="1" stroke-width="0.32" stroke-linejoin="round" d="M 13.8207,228.741L 13.8435,223.408L 15.1234,223.414L 15.1007,228.747L 13.8207,228.741 Z M 13.8662,218.075L 13.889,212.742L 15.169,212.747L 15.1462,218.08L 13.8662,218.075 Z M 13.9117,207.408L 13.9345,202.075L 15.2145,202.08L 15.1917,207.414L 13.9117,207.408 Z M 13.9572,196.742L 13.98,191.408L 15.26,191.414L 15.2372,196.747L 13.9572,196.742 Z M 14.0028,186.075L 14.0255,180.742L 15.3055,180.747L 15.2828,186.081L 14.0028,186.075 Z M 14.0483,175.409L 14.0711,170.075L 15.351,170.081L 15.3283,175.414L 14.0483,175.409 Z M 14.0938,164.742L 14.1004,163.194L 14.1116,163.07L 14.1481,162.95L 14.2078,162.839L 14.2888,162.744L 14.3849,162.663L 14.4954,162.604L 14.6155,162.568L 14.7404,162.557L 14.1975,162.558L 14.4982,161.04L 14.8987,159.36L 16.1499,159.63L 15.7494,161.31L 15.4579,162.782L 14.7404,163.837L 15.3804,163.2L 15.3738,164.747L 14.0938,164.742 Z M 16.4171,154.191L 17.1786,151.947L 18.2993,149.167L 19.5002,149.61L 18.3795,152.39L 17.6397,154.57L 16.4171,154.191 Z M 20.5366,144.286L 20.9681,143.385L 23.1393,139.583L 24.2741,140.175L 22.1029,143.977L 21.7089,144.799L 20.5366,144.286 Z M 26.1128,135.1L 26.8488,134.025L 29.4547,130.878L 30.4785,131.647L 27.8725,134.793L 27.199,135.777L 26.1128,135.1 Z M 33.1525,126.959L 35.2417,124.901L 37.1822,123.374L 38.0303,124.333L 36.0897,125.86L 34.0975,127.822L 33.1525,126.959 Z M 41.5104,120.144L 46.0624,117.365L 46.7947,118.415L 42.2427,121.194L 41.5104,120.144 Z M 50.9592,115.072L 53.4451,113.948L 56.0106,113.156L 56.4648,114.353L 53.8993,115.145L 51.5589,116.203L 50.9592,115.072 Z M 61.1063,111.582L 61.2085,111.55L 66.4314,110.616L 66.7338,111.859L 61.5109,112.794L 61.5606,112.779L 61.1063,111.582 Z M 13.7752,239.408L 13.7979,234.075L 15.0779,234.08L 15.0552,239.413L 13.7752,239.408 Z "/>
	<text transform="matrix(1.0000000000000000 0.0000000000000000 0.0000000000000000 1.0000000000000000 43.00 110.00)" xml:space="preserve">
		<tspan style=" font-family:Arial; font-size:9.680036pt;" letter-spacing="0.00em" fill="#000000" fill-opacity="1" stroke-width="0.2" stroke-linejoin="round">qk</tspan>
	</text>
	<g>
		<path fill="#FFFFFF" fill-opacity="1" stroke-width="0.2" stroke-linejoin="round" d="M 18.9147,234.341L 6.46515,234.341L 6.43159,246.416L 18.9102,246.385L 18.9147,234.341 Z "/>
		<text transform="matrix(1.0000000000000000 0.0000000000000000 0.0000000000000000 1.0000000000000000 6.00 245.00)" xml:space="preserve">
			<tspan style=" font-family:Arial; font-size:9.680036pt;" letter-spacing="0.00em" fill="#000000" fill-opacity="1" stroke-width="0.2" stroke-linejoin="round">c1</tspan>
		</text>
	</g>
	<path fill="#9B9B9B" fill-opacity="1" stroke-width="0.640004" stroke-linejoin="round" stroke="#000000" stroke-opacity="1" d="M 58.9895,114.496L 73.637,112.541L 69.1896,109.79L 69.4587,104.067L 58.9895,114.496 Z "/>
	<line fill="none" stroke-width="0.640004" stroke-linejoin="round" stroke="#000000" stroke-opacity="1" x1="59.2931" y1="114.347" x2="69.0932" y2="109.807"/>
	<text transform="matrix(1.0000000000000000 0.0000000000000000 0.0000000000000000 1.0000000000000000 37.00 261.00)" xml:space="preserve">
		<tspan style=" font-family:Arial; font-size:7.462672pt;" letter-spacing="0.00em" fill="#000000" fill-opacity="1" stroke-width="0.2" stroke-linejoin="round">(a) initial path</tspan>
	</text>
	<line fill="none" stroke-width="1.28" stroke-linejoin="round" stroke="#000000" stroke-opacity="1" x1="137.59" y1="239.45" x2="137.59" y2="171.88"/>
	<path fill="#DEDEDE" fill-opacity="1" fill-rule="evenodd" stroke-width="0.2" stroke-linejoin="round" d="M 237.026,15.0828L 265.61,15.0831L 265.61,33.6677L 237.026,33.6675L 237.026,15.0828 Z "/>
	<text transform="matrix(1.0000000000000000 0.0000000000000000 0.0000000000000000 1.0000000000000000 274.00 29.00)" xml:space="preserve">
		<tspan style=" font-family:Arial; font-size:9.679979pt;" letter-spacing="0.00em" fill="#000000" fill-opacity="1" stroke-width="0.2" stroke-linejoin="round">P</tspan>
	</text>
	<line fill="none" stroke-width="1.28" stroke-linejoin="round" stroke="#000000" stroke-opacity="1" x1="237.026" y1="52.5827" x2="265.611" y2="52.5829"/>
	<text transform="matrix(1.0000000000000000 0.0000000000000000 0.0000000000000000 1.0000000000000000 274.00 56.00)" xml:space="preserve">
		<tspan style=" font-family:Arial; font-size:9.679979pt;" letter-spacing="0.00em" fill="#000000" fill-opacity="1" stroke-width="0.2" stroke-linejoin="round">P</tspan>
	</text>
	<path fill="#9B9B9B" fill-opacity="1" stroke-width="0.640004" stroke-linejoin="round" stroke="#000000" stroke-opacity="1" d="M 103.002,54.8369L 121.991,51.915L 117.552,47.3939L 116.34,41.008L 103.002,54.8369 Z "/>
	<line fill="none" stroke-width="0.640004" stroke-linejoin="round" stroke="#000000" stroke-opacity="1" x1="115.152" y1="48.6445" x2="111.367" y2="18.4898"/>
	<line fill="none" stroke-width="0.640004" stroke-linejoin="round" stroke="#000000" stroke-opacity="1" x1="115.234" y1="48.4465" x2="94.3696" y2="72.9709"/>
	<text transform="matrix(1.0000000000000000 0.0000000000000000 0.0000000000000000 1.0000000000000000 102.00 15.00)" xml:space="preserve">
		<tspan style=" font-family:Arial; font-size:9.679979pt;" letter-spacing="0.00em" fill="#000000" fill-opacity="1" stroke-width="0.2" stroke-linejoin="round">P</tspan>
	</text>
	<text transform="matrix(1.0000001192092896 0.0000000000000000 0.0000000000000000 1.0000001192092896 96.00 86.00)" xml:space="preserve">
		<tspan style=" font-family:Arial; font-size:9.679979pt;" letter-spacing="0.00em" fill="#000000" fill-opacity="1" stroke-width="0.2" stroke-linejoin="round">p</tspan>
	</text>
	<text transform="matrix(1.0000000000000000 0.0000000000000000 0.0000000000000000 1.0000000000000000 79.00 42.00)" xml:space="preserve">
		<tspan style=" font-family:Arial; font-size:9.679979pt;" letter-spacing="0.00em" fill="#000000" fill-opacity="1" stroke-width="0.2" stroke-linejoin="round">pd</tspan>
	</text>
	<line fill="none" stroke-width="0.640004" stroke-linejoin="round" stroke="#000000" stroke-opacity="1" x1="117.552" y1="47.3796" x2="103.134" y2="54.7265"/>
	<path fill="#000000" fill-opacity="1" stroke-width="0.2" stroke-linejoin="round" d="M 99.4724,72.0401L 94.9925,67.8546L 93.398,74.0506L 99.4724,72.0401 Z "/>
	<path fill="#000000" fill-opacity="1" stroke-width="0.2" stroke-linejoin="round" d="M 108.783,21.3255L 114.839,20.3742L 110.94,15.3018L 108.783,21.3255 Z "/>
	<path fill="#000000" fill-opacity="1" stroke-width="0.2" stroke-linejoin="round" d="M 79.638,52.9767L 85.2585,55.426L 84.6922,49.0532L 79.638,52.9767 Z "/>
	<line fill="none" stroke-width="0.640004" stroke-linejoin="round" stroke="#000000" stroke-opacity="1" x1="82.5181" y1="52.4879" x2="114.862" y2="48.5042"/>
	<line fill="none" stroke-width="0.640004" stroke-linejoin="round" stroke="#000000" stroke-opacity="1" x1="40.3847" y1="53.3572" x2="62.7169" y2="53.3572"/>
	<text transform="matrix(1.0000000000000000 0.0000000000000000 0.0000000000000000 1.0000000000000000 47.00 50.00)" xml:space="preserve">
		<tspan style=" font-family:Arial; font-size:9.679979pt;" letter-spacing="0.00em" fill="#000000" fill-opacity="1" stroke-width="0.2" stroke-linejoin="round">w</tspan>
	</text>
	<path fill="#000000" fill-opacity="1" stroke-width="0.2" stroke-linejoin="round" d="M 61.8249,50.0137L 61.833,56.1447L 67.445,53.0723L 61.8249,50.0137 Z "/>
</svg>
