<?xml version="1.0" encoding="utf-8"?>
<!DOCTYPE svg PUBLIC "-//W3C//DTD SVG 1.1//EN" "http://www.w3.org/Graphics/SVG/1.1/DTD/svg11.dtd">
<svg xmlns="http://www.w3.org/2000/svg" xmlns:xlink="http://www.w3.org/1999/xlink" version="1.1" baseProfile="full" width="223.56" height="171.8" viewBox="0 0 223.56 171.80" enable-background="new 0 0 223.56 171.80" xml:space="preserve">
	<line fill="none" stroke-width="0.640004" stroke-linejoin="round" stroke="#989898" stroke-opacity="1" x1="72.6617" y1="91.1923" x2="70.0201" y2="91.1894"/>
	<g>
		<path fill="#DEDEDE" fill-opacity="1" fill-rule="evenodd" stroke-width="0.2" stroke-linejoin="round" d="M 110.191,90.9491L 88.2828,90.9491C 88.2828,56.6808 116.063,28.9008 150.331,28.9008L 150.331,50.5905C 128.152,50.7291 110.212,68.7416 110.191,90.9491 Z "/>
		<path fill="#DEDEDE" fill-opacity="1" fill-rule="evenodd" stroke-width="0.2" stroke-linejoin="round" d="M 87.756,160.86L 110.182,160.86L 110.182,90.7211L 87.7562,90.7211L 87.756,160.86 Z "/>
		<path fill="none" stroke-width="0.640004" stroke-linejoin="round" stroke="#989898" stroke-opacity="1" d="M 98.8887,142.62C 82.754,131.416 72.1903,112.751 72.1903,91.6196C 72.1903,57.3513 99.9704,29.5712 134.239,29.5712C 168.507,29.5712 196.287,57.3513 196.287,91.6196C 196.287,125.888 168.507,153.668 134.239,153.668C 128.359,153.668 122.67,152.85 117.279,151.322"/>
		<text transform="matrix(0.9999999403953552 0.0000000000000000 0.0000000000000000 0.9999999403953552 216.00 65.00)" xml:space="preserve">
			<tspan style=" font-family:Times New Roman; font-size:10.000000pt;" letter-spacing="0.00em" fill="#000000" fill-opacity="1" stroke-width="0.2" stroke-linejoin="round">p(t3)</tspan>
		</text>
		<text transform="matrix(1.0000000000000000 0.0000000000000000 0.0000000000000000 1.0000000000000000 101.00 153.00)" xml:space="preserve">
			<tspan style=" font-family:Times New Roman; font-size:10.000000pt;" letter-spacing="0.00em" fill="#000000" fill-opacity="1" stroke-width="0.2" stroke-linejoin="round">V0</tspan>
		</text>
		<path fill="none" stroke-width="0.640004" stroke-linejoin="round" stroke="#2B2B2B" stroke-opacity="1" d="M 201.292,55.6358C 208.312,65.6905 212.429,77.9218 212.429,91.1148C 212.429,125.383 184.649,153.163 150.381,153.163C 116.113,153.163 88.3328,125.383 88.3328,91.1148C 88.3328,56.8465 116.113,29.0665 150.381,29.0665C 163.301,29.0665 175.298,33.0152 185.233,39.7716"/>
		<line fill="none" stroke-width="0.640004" stroke-linejoin="round" stroke="#2B2B2B" stroke-opacity="1" x1="87.965" y1="3.03821" x2="87.965" y2="15.0434"/>
		<line fill="none" stroke-width="0.640004" stroke-linejoin="round" stroke="#2B2B2B" stroke-opacity="1" x1="87.965" y1="31.31" x2="87.9652" y2="160.649"/>
		<line fill="none" stroke-width="0.640004" stroke-linejoin="round" stroke="#2B2B2B" stroke-opacity="1" x1="212.515" y1="3.0567" x2="212.515" y2="15.0433"/>
		<line fill="none" stroke-width="0.640004" stroke-linejoin="round" stroke="#2B2B2B" stroke-opacity="1" x1="212.515" y1="31.2933" x2="212.515" y2="160.668"/>
		<line fill="none" stroke-width="0.640004" stroke-linejoin="round" stroke="#2B2B2B" stroke-opacity="1" x1="152.788" y1="93.4603" x2="148.507" y2="89.179"/>
		<line fill="none" stroke-width="0.640004" stroke-linejoin="round" stroke="#2B2B2B" stroke-opacity="1" x1="148.51" y1="93.4575" x2="152.791" y2="89.1766"/>
		<path fill="#000000" fill-opacity="1" stroke-width="0.32" stroke-linejoin="round" d="M 87.1922,150.248L 87.1922,144.915L 88.4722,144.915L 88.4722,150.248L 87.1922,150.248 Z M 87.1922,139.582L 87.1921,134.248L 88.4721,134.248L 88.4721,139.582L 87.1922,139.582 Z M 87.1921,128.915L 87.1921,123.582L 88.4721,123.582L 88.4721,128.915L 87.1921,128.915 Z M 87.1921,118.248L 87.1921,112.915L 88.4721,112.915L 88.4721,118.248L 87.1921,118.248 Z M 87.192,107.582L 87.192,102.248L 88.472,102.248L 88.472,107.582L 87.192,107.582 Z M 87.192,96.9152L 87.192,91.5818L 88.472,91.5818L 88.472,96.9152L 87.192,96.9152 Z M 87.7111,86.2079L 87.8096,85.4595L 88.5098,81.5392L 88.6591,80.901L 89.9133,81.1569L 89.764,81.795L 89.0749,85.6529L 88.9836,86.3466L 87.7111,86.2079 Z M 89.9563,75.6921L 91.1514,71.702L 91.5801,70.5702L 92.7934,70.9779L 92.3648,72.1097L 91.1938,76.0189L 89.9563,75.6921 Z M 93.5349,65.5574L 95.8279,60.7421L 97.0065,61.2415L 94.7135,66.0568L 93.5349,65.5574 Z M 98.5625,56.0993L 99.4757,54.5746L 101.664,51.689L 102.726,52.4027L 100.538,55.2884L 99.6923,56.701L 98.5625,56.0993 Z M 105.113,47.5367L 108.833,43.7147L 109.806,44.5468L 106.086,48.3687L 105.113,47.5367 Z M 113.09,40.3674L 115.059,38.8285L 117.598,37.3783L 118.313,38.4398L 115.774,39.89L 113.947,41.3182L 113.09,40.3674 Z M 122.315,34.6955L 127.285,32.7611L 127.837,33.9159L 122.867,35.8503L 122.315,34.6955 Z M 132.424,31.0541L 137.621,29.8573L 137.998,31.0806L 132.8,32.2775L 132.424,31.0541 Z M 142.968,29.0255L 148.279,28.546L 148.48,29.8101L 143.169,30.2896L 142.968,29.0255 Z M 153.715,28.5551L 159.02,29.1031L 158.968,30.3821L 153.663,29.8341L 153.715,28.5551 Z M 164.344,30.0292L 169.528,31.2818L 169.312,32.5435L 164.128,31.291L 164.344,30.0292 Z M 174.623,33.1078L 178.856,34.7919L 179.609,35.2259L 179.05,36.3776L 178.297,35.9437L 174.235,34.3275L 174.623,33.1078 Z M 184.231,37.8871L 185.818,38.8013L 185.102,39.8619L 183.672,39.0389L 184.231,37.8871 Z M 87.1922,160.915L 87.1922,155.582L 88.4722,155.582L 88.4722,160.915L 87.1922,160.915 Z "/>
		<path fill="#000000" fill-opacity="1" stroke-width="0.32" stroke-linejoin="round" d="M 206.957,64.7718L 208.839,69.7621L 207.672,70.2867L 205.79,65.2963L 206.957,64.7718 Z M 201.856,55.2951L 204.401,59.982L 203.328,60.6793L 200.783,55.9924L 201.856,55.2951 Z "/>
		<path fill="none" stroke-width="1.28" stroke-linejoin="round" stroke="#000000" stroke-opacity="1" d="M 209.514,73.3629C 212.2,82.0212 212.562,88.4727 212.562,88.4727L 212.524,137.023"/>
		<text transform="matrix(1.0000000000000000 0.0000000000000000 0.0000000000000000 1.0000000000000000 205.00 27.00)" xml:space="preserve">
			<tspan style=" font-family:Times New Roman; font-size:10.000000pt;" letter-spacing="0.00em" fill="#000000" fill-opacity="1" stroke-width="0.2" stroke-linejoin="round">V3</tspan>
		</text>
		<text transform="matrix(1.0000000000000000 0.0000000000000000 0.0000000000000000 1.0000000000000000 188.00 51.00)" xml:space="preserve">
			<tspan style=" font-family:Times New Roman; font-size:10.000000pt;" letter-spacing="0.00em" fill="#000000" fill-opacity="1" stroke-width="0.2" stroke-linejoin="round">V4</tspan>
		</text>
		<line fill="none" stroke-width="0.640004" stroke-linejoin="round" stroke="#989898" stroke-opacity="1" x1="136.326" y1="93.3392" x2="132.043" y2="89.0579"/>
		<line fill="none" stroke-width="0.640004" stroke-linejoin="round" stroke="#989898" stroke-opacity="1" x1="132.046" y1="93.3358" x2="136.328" y2="89.0567"/>
		<line fill="none" stroke-width="0.640004" stroke-linejoin="round" stroke="#989898" stroke-opacity="1" x1="72.1527" y1="2.86285" x2="72.1526" y2="15.1033"/>
		<line fill="none" stroke-width="0.640004" stroke-linejoin="round" stroke="#989898" stroke-opacity="1" x1="72.1525" y1="31.3162" x2="72.1518" y2="160.474"/>
		<path fill="none" stroke-width="1.28" stroke-linejoin="round" stroke="#000000" stroke-opacity="1" d="M 72.0499,91.7728C 72.0499,60.9444 94.5326,35.3671 123.996,30.5426"/>
		<line fill="none" stroke-width="1.28" stroke-linejoin="round" stroke="#000000" stroke-opacity="1" x1="72.0918" y1="91.4697" x2="72.1456" y2="92.0526"/>
		<path fill="none" stroke-width="1.28" stroke-linejoin="round" stroke="#000000" stroke-opacity="1" d="M 151.316,6.6839C 152.17,10.5238 150.826,13.139 149.543,15.4439C 145.299,23.0718 137.825,28.1129 122.428,30.9623"/>
		<line fill="none" stroke-width="1.28" stroke-linejoin="round" stroke="#000000" stroke-opacity="1" x1="72.0839" y1="160.94" x2="72.0843" y2="91.4542"/>
		<text transform="matrix(1.0000000000000000 0.0000000000000000 0.0000000000000000 1.0000000000000000 83.00 27.00)" xml:space="preserve">
			<tspan style=" font-family:Times New Roman; font-size:10.000000pt;" letter-spacing="0.00em" fill="#000000" fill-opacity="1" stroke-width="0.2" stroke-linejoin="round">V5</tspan>
		</text>
		<path fill="#FFFFFF" fill-opacity="1" stroke-width="0.640004" stroke-linejoin="round" stroke="#000000" stroke-opacity="1" d="M 110.535,34.0242L 129.746,35.0223L 124.712,30.439L 126.424,23.1793L 110.535,34.0242 Z "/>
		<line fill="none" stroke-width="0.640004" stroke-linejoin="round" stroke="#000000" stroke-opacity="1" x1="110.959" y1="33.907" x2="124.585" y2="30.438"/>
		<line fill="none" stroke-width="1.28" stroke-linejoin="round" stroke="#000000" stroke-opacity="1" x1="212.533" y1="160.847" x2="212.534" y2="111.279"/>
		<path fill="#9B9B9B" fill-opacity="1" stroke-width="0.640004" stroke-linejoin="round" stroke="#000000" stroke-opacity="1" d="M 203.899,60.2508L 204.79,79.4679L 209.755,74.7215L 216.25,75.0004L 203.899,60.2508 Z "/>
		<line fill="none" stroke-width="0.640004" stroke-linejoin="round" stroke="#000000" stroke-opacity="1" x1="204.2" y1="61.0667" x2="209.748" y2="74.6237"/>
		<line fill="none" stroke-width="0.640004" stroke-linejoin="round" stroke="#000000" stroke-opacity="1" x1="10.6945" y1="128.483" x2="10.6945" y2="158.082"/>
		<line fill="none" stroke-width="0.640004" stroke-linejoin="round" stroke="#000000" stroke-opacity="1" x1="40.0912" y1="157.843" x2="10.4916" y2="157.843"/>
		<text transform="matrix(1.0000000000000000 0.0000000000000000 0.0000000000000000 1.0000000000000000 0.00 171.00)" xml:space="preserve">
			<tspan style=" font-family:Times New Roman; font-size:10.000000pt;" letter-spacing="0.00em" fill="#000000" fill-opacity="1" stroke-width="0.2" stroke-linejoin="round">Ow</tspan>
		</text>
		<line fill="none" stroke-width="0.640004" stroke-linejoin="round" stroke="#000000" stroke-opacity="1" x1="11.6279" y1="157.698" x2="26.2342" y2="145.95"/>
		<line fill="none" stroke-width="0.640004" stroke-linejoin="round" stroke="#000000" stroke-opacity="1" x1="48.7816" y1="127.815" x2="69.56" y2="111.103"/>
		<text transform="matrix(1.0000000000000000 0.0000000000000000 0.0000000000000000 1.0000000000000000 64.00 27.00)" xml:space="preserve">
			<tspan style=" font-family:Times New Roman; font-size:10.000000pt;" letter-spacing="0.00em" fill="#000000" fill-opacity="1" stroke-width="0.2" stroke-linejoin="round">V1</tspan>
		</text>
		<text transform="matrix(0.9999998807907103 0.0000000000000000 0.0000000000000000 0.9999998807907103 26.00 139.00)" xml:space="preserve">
			<tspan style=" font-family:Times New Roman; font-size:10.000000pt;" letter-spacing="0.00em" fill="#000000" fill-opacity="1" stroke-width="0.2" stroke-linejoin="round">p(t1)</tspan>
		</text>
		<path fill="#FFFFFF" fill-opacity="1" stroke-width="0.640004" stroke-linejoin="round" stroke="#000000" stroke-opacity="1" d="M 71.7014,120.916L 77.616,102.61L 71.3004,105.311L 65.3168,102.769L 71.7014,120.916 Z "/>
		<line fill="none" stroke-width="0.640004" stroke-linejoin="round" stroke="#000000" stroke-opacity="1" x1="71.7059" y1="120.047" x2="71.2722" y2="105.405"/>
	</g>
	<line fill="none" stroke-width="0.640004" stroke-linejoin="round" stroke="#2B2B2B" stroke-opacity="1" x1="214.322" y1="91.2615" x2="212.183" y2="91.2599"/>
	<line fill="none" stroke-width="0.640004" stroke-linejoin="round" stroke="#2B2B2B" stroke-opacity="1" x1="88.4214" y1="91.2331" x2="85.7825" y2="91.233"/>
	<text transform="matrix(1.0000000000000000 0.0000000000000000 0.0000000000000000 1.0000000000000000 104.00 172.00)" xml:space="preserve">
		<tspan style=" font-family:Times New Roman; font-size:10.000000pt;" letter-spacing="0.00em" fill="#000000" fill-opacity="1" stroke-width="0.2" stroke-linejoin="round">cid</tspan>
	</text>
	<text transform="matrix(1.0000000000000000 0.0000000000000000 0.0000000000000000 1.0000000000000000 79.00 172.00)" xml:space="preserve">
		<tspan style=" font-family:Times New Roman; font-size:10.000000pt;" letter-spacing="0.00em" fill="#000000" fill-opacity="1" stroke-width="0.2" stroke-linejoin="round">ciu</tspan>
	</text>
	<text transform="matrix(1.0000000000000000 0.0000000000000000 0.0000000000000000 1.0000000000000000 54.00 96.00)" xml:space="preserve">
		<tspan style=" font-family:Times New Roman; font-size:10.000000pt;" letter-spacing="0.00em" fill="#000000" fill-opacity="1" stroke-width="0.2" stroke-linejoin="round">pT0</tspan>
	</text>
	<text transform="matrix(1.0000000000000000 0.0000000000000000 0.0000000000000000 1.0000000000000000 95.00 96.00)" xml:space="preserve">
		<tspan style=" font-family:Times New Roman; font-size:10.000000pt;" letter-spacing="0.00em" fill="#000000" fill-opacity="1" stroke-width="0.2" stroke-linejoin="round">pT4</tspan>
	</text>
	<text transform="matrix(1.0000000000000000 0.0000000000000000 0.0000000000000000 1.0000000000000000 217.00 96.00)" xml:space="preserve">
		<tspan style=" font-family:Times New Roman; font-size:10.000000pt;" letter-spacing="0.00em" fill="#000000" fill-opacity="1" stroke-width="0.2" stroke-linejoin="round">pT3</tspan>
	</text>
	<line fill="none" stroke-width="0.2" stroke-linejoin="round" x1="140.165" y1="61.2828" x2="140.165" y2="73.7323"/>
	<text transform="matrix(0.9999998807907103 0.0000000000000000 0.0000000000000000 0.9999998807907103 103.00 15.00)" xml:space="preserve">
		<tspan style=" font-family:Times New Roman; font-size:10.000000pt;" letter-spacing="0.00em" fill="#000000" fill-opacity="1" stroke-width="0.2" stroke-linejoin="round">p(t0)</tspan>
	</text>
	<path fill="#000000" fill-opacity="1" stroke-width="0.2" stroke-linejoin="round" d="M 8.29538,131.867L 10.6668,129.776L 12.8405,131.858L 10.5598,125.84L 8.29538,131.867 Z "/>
	<path fill="#000000" fill-opacity="1" stroke-width="0.2" stroke-linejoin="round" d="M 37.4883,155.437L 39.5801,157.808L 37.4979,159.982L 43.5161,157.701L 37.4883,155.437 Z "/>
	<path fill="#000000" fill-opacity="1" stroke-width="0.2" stroke-linejoin="round" d="M 64.8407,111.515L 67.89,112.353L 67.3394,115.312L 71.1237,110.106L 64.8407,111.515 Z "/>
</svg>
